SplineFontDB: 3.2
FontName: Samaano-Thin-Slanted
FullName: Samaano Thin Slanted
FamilyName: Samaano
Weight: Thin
Copyright: Copyright 2024 The Samaano Project Authors (https://github.com/mitradranirban/samaano-fonts)
UComments: "2024-8-27: Created with FontForge (http://fontforge.org)"
Version: 1.600
StyleMapFamilyName: Samaano
ItalicAngle: -20
UnderlinePosition: 0
UnderlineWidth: 102
Ascent: 1638
Descent: 410
InvalidEm: 0
UFOAscent: 1638
UFODescent: -410
LayerCount: 2
Layer: 0 1 "Back" 1
Layer: 1 1 "public.default" 0 "glyphs"
StyleMap: 0x0001
FSType: 256
OS2Version: 0
OS2_WeightWidthSlopeOnly: 0
OS2_UseTypoMetrics: 0
CreationTime: 1731342365
ModificationTime: 1731342799
PfmFamily: 16
TTFWeight: 100
TTFWidth: 5
LineGap: 0
VLineGap: 0
Panose: 2 7 2 9 2 2 2 2 4 4
OS2TypoAscent: 2457
OS2TypoAOffset: 0
OS2TypoDescent: -615
OS2TypoDOffset: 0
OS2TypoLinegap: 0
OS2WinAscent: 3225
OS2WinAOffset: 0
OS2WinDescent: 978
OS2WinDOffset: 0
HheadAscent: 2457
HheadAOffset: 0
HheadDescent: -615
HheadDOffset: 0
OS2CapHeight: 1548
OS2XHeight: 1023
OS2FamilyClass: 1031
OS2Vendor: 'anir'
OS2CodePages: 00000193.00000000
Lookup: 4 0 1 "ligaStandardLigaturesinLatinlookup0" { "ligaStandardLigaturesinLatinlookup0 subtable"  } ['liga' ('latn' <'dflt' > 'DFLT' <'dflt' > ) ]
Lookup: 4 0 0 "nuktNuktaFormsinDevanagari2lookup0" { "nuktNuktaFormsinDevanagari2lookup0 subtable"  } ['nukt' ('dev2' <'dflt' > 'DFLT' <'dflt' > ) ]
Lookup: 4 0 0 "akhnAkhandinDevanagari2lookup0" { "akhnAkhandinDevanagari2lookup0 subtable"  } ['akhn' ('dev2' <'dflt' > 'DFLT' <'dflt' > ) ]
Lookup: 4 0 0 "rphfRephForminDevanagari2lookup0" { "rphfRephForminDevanagari2lookup0 subtable"  } ['rphf' ('dev2' <'dflt' > 'DFLT' <'dflt' > ) ]
Lookup: 4 0 0 "rkrfRakarVariantsinDevanagari2lookup0" { "rkrfRakarVariantsinDevanagari2lookup0 subtable"  } ['rkrf' ('dev2' <'dflt' > 'DFLT' <'dflt' > ) ]

StartChar: .notdef
Encoding: 0 0 0
GlifName: _notdef
Width: 1024
VWidth: 0
Flags: W
LayerCount: 2
Fore
SplineSet
-285 -100 m 257,0,-1
 713 -100 l 257,1,-1
 1309 1540 l 257,2,-1
 311 1540 l 257,3,-1
 -285 -100 l 257,0,-1
-182 -20 m 257,4,-1
 357 1462 l 257,5,-1
 488 743 l 257,6,-1
 -182 -20 l 257,4,-1
-90 -20 m 257,7,-1
 498 666 l 257,8,-1
 590 -20 l 257,9,-1
 -90 -20 l 257,7,-1
481 1474 m 257,10,-1
 1112 1474 l 257,11,-1
 558 825 l 257,12,-1
 481 1474 l 257,10,-1
568 748 m 257,13,-1
 1209 1475 l 257,14,-1
 665 -20 l 257,15,-1
 568 748 l 257,13,-1
EndSplineSet
EndChar

StartChar: A
Encoding: 65 65 1
GlifName: A_
Width: 1024
VWidth: 0
GlyphClass: 2
Flags: W
AnchorPoint: "top" 1022 1629 basechar 0
AnchorPoint: "base" 568 -44 basechar 0
LayerCount: 2
Fore
SplineSet
108 16 m 257,0,-1
 167 16 l 257,1,-1
 726 1553 l 257,2,-1
 667 1553 l 257,3,-1
 108 16 l 257,0,-1
704 1492 m 257,4,-1
 1421 1492 l 257,5,-1
 1443 1553 l 257,6,-1
 726 1553 l 257,7,-1
 704 1492 l 257,4,-1
508 970 m 257,8,-1
 487 911 l 257,9,-1
 1210 911 l 257,10,-1
 1231 970 l 257,11,-1
 508 970 l 257,8,-1
864 5 m 257,12,-1
 924 5 l 257,13,-1
 1487 1553 l 257,14,-1
 1427 1553 l 257,15,-1
 864 5 l 257,12,-1
EndSplineSet
EndChar

StartChar: AE
Encoding: 198 198 2
GlifName: A_E_
Width: 1024
VWidth: 0
GlyphClass: 2
Flags: W
LayerCount: 2
Fore
SplineSet
279 62 m 257,0,-1
 257 0 l 257,1,-1
 677 0 l 257,2,-1
 699 62 l 257,3,-1
 279 62 l 257,0,-1
-195 0 m 257,4,-1
 -133 0 l 257,5,-1
 431 1550 l 257,6,-1
 369 1550 l 257,7,-1
 -195 0 l 257,4,-1
391 1489 m 257,8,-1
 1197 1489 l 257,9,-1
 1219 1550 l 257,10,-1
 413 1550 l 257,11,-1
 391 1489 l 257,8,-1
225 1023 m 257,12,-1
 204 964 l 257,13,-1
 954 964 l 257,14,-1
 975 1023 l 257,15,-1
 225 1023 l 257,12,-1
231 0 m 257,16,-1
 291 0 l 257,17,-1
 855 1550 l 257,18,-1
 795 1550 l 257,19,-1
 231 0 l 257,16,-1
EndSplineSet
EndChar

StartChar: B
Encoding: 66 66 14
GlifName: B_
Width: 1024
VWidth: 0
GlyphClass: 2
Flags: W
HStem: 811 59<397.654 397.654 397.654 441.18 441.18 441.18 441.18 441.18>
AnchorPoint: "top" 709 1645 basechar 0
AnchorPoint: "base" 69 -99 basechar 0
LayerCount: 2
Fore
SplineSet
27 0 m 257,0,-1
 84 0 l 257,1,-1
 649 1553 l 257,2,-1
 592 1553 l 257,3,-1
 27 0 l 257,0,-1
667 1494 m 257,4,-1
 1334 1023 l 257,5,-1
 1355 1081 l 257,6,-1
 687 1550 l 257,7,-1
 667 1494 l 257,4,-1
441 811 m 257,8,-1
 1334 1023 l 257,9,-1
 1355 1079 l 257,10,-1
 463 870 l 257,11,-1
 441 811 l 257,8,-1
151 62 m 257,12,-1
 128 0 l 257,13,-1
 1154 434 l 257,14,-1
 1178 500 l 257,15,-1
 151 62 l 257,12,-1
413 746 m 257,16,-1
 1154 430 l 257,17,-1
 1179 501 l 257,18,-1
 435 808 l 257,19,-1
 413 746 l 257,16,-1
398 870 m 257,20,-1
 376 811 l 257,21,-1
 441 811 l 257,22,-1
 463 870 l 257,23,-1
 398 870 l 257,20,-1
375 808 m 257,24,-1
 353 748 l 257,25,-1
 413 748 l 257,26,-1
 435 808 l 257,27,-1
 375 808 l 257,24,-1
91 62 m 257,28,-1
 68 0 l 257,29,-1
 128 0 l 257,30,-1
 151 62 l 257,31,-1
 91 62 l 257,28,-1
628 1553 m 257,32,-1
 607 1494 l 257,33,-1
 667 1494 l 257,34,-1
 688 1553 l 257,35,-1
 628 1553 l 257,32,-1
EndSplineSet
PickledDataWithLists: "(dp0
Vcom.fontlab.hintData
p1
(dp2
Vhhints
p3
(lp4
(dp5
Vposition
p6
I811
sVwidth
p7
I59
sass."
EndChar

StartChar: C
Encoding: 67 67 15
GlifName: C_
Width: 1024
VWidth: 0
GlyphClass: 2
Flags: W
AnchorPoint: "top" 1008 1625 basechar 0
AnchorPoint: "base" 541 -39 basechar 0
LayerCount: 2
Fore
SplineSet
636 1553 m 257,0,-1
 71 0 l 257,1,-1
 131 0 l 257,2,-1
 696 1553 l 257,3,-1
 636 1553 l 257,0,-1
665 1553 m 257,4,-1
 644 1495 l 257,5,-1
 1497 1495 l 257,6,-1
 1518 1553 l 257,7,-1
 665 1553 l 257,4,-1
126 58 m 257,8,-1
 105 0 l 257,9,-1
 951 0 l 257,10,-1
 972 58 l 257,11,-1
 126 58 l 257,8,-1
EndSplineSet
EndChar

StartChar: D
Encoding: 68 68 21
GlifName: D_
Width: 1024
VWidth: 0
GlyphClass: 2
Flags: W
AnchorPoint: "base" 161 -96 basechar 0
AnchorPoint: "top" 752 1641 basechar 0
LayerCount: 2
Fore
SplineSet
661 1553 m 257,0,-1
 96 0 l 257,1,-1
 156 0 l 257,2,-1
 721 1553 l 257,3,-1
 661 1553 l 257,0,-1
800 1550 m 257,4,-1
 779 1493 l 257,5,-1
 1276 961 l 257,6,-1
 1298 1023 l 257,7,-1
 800 1550 l 257,4,-1
257 58 m 257,8,-1
 236 0 l 257,9,-1
 1277 960 l 257,10,-1
 1300 1023 l 257,11,-1
 257 58 l 257,8,-1
721 1553 m 257,12,-1
 699 1493 l 257,13,-1
 779 1493 l 257,14,-1
 801 1553 l 257,15,-1
 721 1553 l 257,12,-1
179 58 m 257,16,-1
 158 0 l 257,17,-1
 236 0 l 257,18,-1
 257 58 l 257,19,-1
 179 58 l 257,16,-1
EndSplineSet
EndChar

StartChar: Dcroat
Encoding: 272 272 23
GlifName: D_croat
Width: 1024
VWidth: 0
GlyphClass: 2
Flags: W
AnchorPoint: "top" 773 1662 basechar 0
AnchorPoint: "base" 300 -152 basechar 0
LayerCount: 2
Fore
SplineSet
157 935 m 257,0,-1
 136 876 l 257,1,-1
 612 876 l 257,2,-1
 633 935 l 257,3,-1
 157 935 l 257,0,-1
487 1550 m 257,4,-1
 -77 0 l 257,5,-1
 -15 0 l 257,6,-1
 549 1550 l 257,7,-1
 487 1550 l 257,4,-1
813 1550 m 257,8,-1
 790 1488 l 257,9,-1
 1059 906 l 257,10,-1
 1101 1023 l 257,11,-1
 813 1550 l 257,8,-1
279 61 m 257,12,-1
 257 0 l 257,13,-1
 1062 915 l 257,14,-1
 1101 1023 l 257,15,-1
 279 61 l 257,12,-1
533 1550 m 257,16,-1
 510 1488 l 257,17,-1
 790 1488 l 257,18,-1
 813 1550 l 257,19,-1
 533 1550 l 257,16,-1
-13 61 m 257,20,-1
 -35 0 l 257,21,-1
 257 0 l 257,22,-1
 279 61 l 257,23,-1
 -13 61 l 257,20,-1
EndSplineSet
EndChar

StartChar: E
Encoding: 69 69 24
GlifName: E_
Width: 1024
VWidth: 0
GlyphClass: 2
Flags: W
AnchorPoint: "top" 1007 1633 basechar 0
AnchorPoint: "base" 565 -80 basechar 0
LayerCount: 2
Fore
SplineSet
670 1550 m 257,0,-1
 106 0 l 257,1,-1
 165 0 l 257,2,-1
 729 1550 l 257,3,-1
 670 1550 l 257,0,-1
707 1553 m 257,4,-1
 691 1490 l 257,5,-1
 1445 1490 l 257,6,-1
 1468 1553 l 257,7,-1
 707 1553 l 257,4,-1
171 60 m 257,8,-1
 149 0 l 257,9,-1
 918 0 l 257,10,-1
 940 60 l 257,11,-1
 171 60 l 257,8,-1
461 859 m 257,12,-1
 438 798 l 257,13,-1
 962 798 l 257,14,-1
 985 859 l 257,15,-1
 461 859 l 257,12,-1
EndSplineSet
EndChar

StartChar: Eng
Encoding: 330 330 33
GlifName: E_ng
Width: 1024
VWidth: 0
GlyphClass: 2
Flags: W
AnchorPoint: "top" 885 1630 basechar 0
AnchorPoint: "base" 149 -442 basechar 0
LayerCount: 2
Fore
SplineSet
109 -374 m 257,0,-1
 94 -408 l 257,1,-1
 481 -408 l 257,2,-1
 496 -374 l 257,3,-1
 109 -374 l 257,0,-1
373 1490 m 257,4,-1
 -170 0 l 257,5,-1
 -126 0 l 257,6,-1
 417 1490 l 257,7,-1
 373 1490 l 257,4,-1
1112 1476 m 257,8,-1
 426 -408 l 257,9,-1
 482 -408 l 257,10,-1
 1168 1476 l 257,11,-1
 1112 1476 l 257,8,-1
395 1550 m 257,12,-1
 372 1478 l 257,13,-1
 1171 1478 l 257,14,-1
 1194 1550 l 257,15,-1
 395 1550 l 257,12,-1
EndSplineSet
EndChar

StartChar: Eth
Encoding: 208 208 35
GlifName: E_th
Width: 1024
VWidth: 0
GlyphClass: 2
Flags: W
AnchorPoint: "top" 680 1630 basechar 0
AnchorPoint: "base" 122 -122 basechar 0
LayerCount: 2
Fore
SplineSet
156 935 m 257,0,-1
 133 873 l 257,1,-1
 440 873 l 257,2,-1
 463 935 l 257,3,-1
 156 935 l 257,0,-1
488 1553 m 257,4,-1
 -78 0 l 257,5,-1
 -17 0 l 257,6,-1
 549 1553 l 257,7,-1
 488 1553 l 257,4,-1
814 1553 m 257,8,-1
 788 1484 l 257,9,-1
 1080 964 l 257,10,-1
 1102 1023 l 257,11,-1
 814 1553 l 257,8,-1
278 60 m 257,12,-1
 256 0 l 257,13,-1
 1080 964 l 257,14,-1
 1102 1023 l 257,15,-1
 278 60 l 257,12,-1
528 1553 m 257,16,-1
 502 1484 l 257,17,-1
 788 1484 l 257,18,-1
 814 1553 l 257,19,-1
 528 1553 l 257,16,-1
-8 60 m 257,20,-1
 -30 0 l 257,21,-1
 256 0 l 257,22,-1
 278 60 l 257,23,-1
 -8 60 l 257,20,-1
EndSplineSet
EndChar

StartChar: Euro
Encoding: 8364 8364 36
GlifName: E_uro
Width: 1024
VWidth: 0
GlyphClass: 2
Flags: W
LayerCount: 2
Fore
SplineSet
21 520 m 257,0,-1
 -4 451 l 257,1,-1
 633 451 l 257,2,-1
 658 520 l 257,3,-1
 21 520 l 257,0,-1
156 856 m 257,4,-1
 131 788 l 257,5,-1
 740 788 l 257,6,-1
 765 856 l 257,7,-1
 156 856 l 257,4,-1
472 1023 m 257,8,-1
 165 179 l 257,9,-1
 245 179 l 257,10,-1
 552 1023 l 257,11,-1
 472 1023 l 257,8,-1
1012 1633 m 257,12,-1
 472 1023 l 257,13,-1
 552 1023 l 257,14,-1
 1028 1607 l 257,15,-1
 1012 1633 l 257,12,-1
165 179 m 257,16,-1
 296 -406 l 257,17,-1
 356 -406 l 257,18,-1
 245 179 l 257,19,-1
 165 179 l 257,16,-1
EndSplineSet
EndChar

StartChar: F
Encoding: 70 70 37
GlifName: F_
Width: 1024
VWidth: 0
GlyphClass: 2
Flags: W
AnchorPoint: "top" 1003 1652 basechar 0
AnchorPoint: "base" 266 -71 basechar 0
LayerCount: 2
Fore
SplineSet
671 1553 m 257,0,-1
 106 0 l 257,1,-1
 164 0 l 257,2,-1
 729 1553 l 257,3,-1
 671 1553 l 257,0,-1
729 1553 m 257,4,-1
 709 1497 l 257,5,-1
 1463 1497 l 257,6,-1
 1483 1553 l 257,7,-1
 729 1553 l 257,4,-1
470 864 m 257,8,-1
 449 806 l 257,9,-1
 1039 806 l 257,10,-1
 1060 864 l 257,11,-1
 470 864 l 257,8,-1
EndSplineSet
EndChar

StartChar: G
Encoding: 71 71 38
GlifName: G_
Width: 1024
VWidth: 0
GlyphClass: 2
Flags: W
AnchorPoint: "top" 1014 1653 basechar 0
AnchorPoint: "base" 556 -50 basechar 0
LayerCount: 2
Fore
SplineSet
672 1529 m 257,0,-1
 115 0 l 257,1,-1
 174 0 l 257,2,-1
 731 1529 l 257,3,-1
 672 1529 l 257,0,-1
725 1529 m 257,4,-1
 703 1469 l 257,5,-1
 1408 1469 l 257,6,-1
 1430 1529 l 257,7,-1
 725 1529 l 257,4,-1
168 60 m 257,8,-1
 146 0 l 257,9,-1
 909 0 l 257,10,-1
 931 60 l 257,11,-1
 168 60 l 257,8,-1
1052 561 m 257,12,-1
 855 18 l 257,13,-1
 916 18 l 257,14,-1
 1113 561 l 257,15,-1
 1052 561 l 257,12,-1
EndSplineSet
EndChar

StartChar: H
Encoding: 72 72 42
GlifName: H_
Width: 1024
VWidth: 0
GlyphClass: 2
Flags: W
AnchorPoint: "top" 1005 1626 basechar 0
AnchorPoint: "base" 551 -54 basechar 0
LayerCount: 2
Fore
SplineSet
679 1553 m 257,0,-1
 114 0 l 257,1,-1
 173 0 l 257,2,-1
 738 1553 l 257,3,-1
 679 1553 l 257,0,-1
1414 1553 m 257,4,-1
 849 0 l 257,5,-1
 910 0 l 257,6,-1
 1475 1553 l 257,7,-1
 1414 1553 l 257,4,-1
492 923 m 257,8,-1
 470 864 l 257,9,-1
 1187 864 l 257,10,-1
 1209 923 l 257,11,-1
 492 923 l 257,8,-1
EndSplineSet
EndChar

StartChar: Hbar
Encoding: 294 294 43
GlifName: H_bar
Width: 1024
VWidth: 0
GlyphClass: 2
Flags: W
LayerCount: 2
Fore
SplineSet
380 1540 m 257,0,-1
 -181 0 l 257,1,-1
 -121 0 l 257,2,-1
 440 1540 l 257,3,-1
 380 1540 l 257,0,-1
1116 1540 m 257,4,-1
 555 0 l 257,5,-1
 615 0 l 257,6,-1
 1176 1540 l 257,7,-1
 1116 1540 l 257,4,-1
231 1023 m 257,8,-1
 208 959 l 257,9,-1
 920 959 l 257,10,-1
 943 1023 l 257,11,-1
 231 1023 l 257,8,-1
281 1434 m 257,12,-1
 259 1374 l 257,13,-1
 1183 1374 l 257,14,-1
 1205 1434 l 257,15,-1
 281 1434 l 257,12,-1
EndSplineSet
EndChar

StartChar: I
Encoding: 73 73 45
GlifName: I_
Width: 1024
VWidth: 0
GlyphClass: 2
Flags: W
AnchorPoint: "top" 1042 1653 basechar 0
AnchorPoint: "base" 496 -82 basechar 0
LayerCount: 2
Fore
SplineSet
718 1550 m 257,0,-1
 696 1489 l 257,1,-1
 1397 1489 l 257,2,-1
 1419 1550 l 257,3,-1
 718 1550 l 257,0,-1
1029 1515 m 257,4,-1
 490 34 l 257,5,-1
 549 34 l 257,6,-1
 1088 1515 l 257,7,-1
 1029 1515 l 257,4,-1
158 66 m 257,8,-1
 136 6 l 257,9,-1
 892 6 l 257,10,-1
 914 66 l 257,11,-1
 158 66 l 257,8,-1
EndSplineSet
EndChar

StartChar: J
Encoding: 74 74 56
GlifName: J_
Width: 1024
VWidth: 0
GlyphClass: 2
Flags: W
AnchorPoint: "base" 493 -72 basechar 0
AnchorPoint: "top" 1480 1625 basechar 0
LayerCount: 2
Fore
SplineSet
1396 1527 m 257,0,-1
 840 0 l 257,1,-1
 900 0 l 257,2,-1
 1456 1527 l 257,3,-1
 1396 1527 l 257,0,-1
146 60 m 257,4,-1
 124 0 l 257,5,-1
 866 0 l 257,6,-1
 888 60 l 257,7,-1
 146 60 l 257,4,-1
307 503 m 257,8,-1
 134 27 l 257,9,-1
 194 27 l 257,10,-1
 367 503 l 257,11,-1
 307 503 l 257,8,-1
EndSplineSet
EndChar

StartChar: K
Encoding: 75 75 58
GlifName: K_
Width: 1024
VWidth: 0
GlyphClass: 2
Flags: W
AnchorPoint: "base" 417 -60 basechar 0
AnchorPoint: "top" 1025 1642 basechar 0
LayerCount: 2
Fore
SplineSet
737 1553 m 257,0,-1
 174 5 l 257,1,-1
 234 5 l 257,2,-1
 797 1553 l 257,3,-1
 737 1553 l 257,0,-1
599 1015 m 257,4,-1
 574 944 l 257,5,-1
 1382 1550 l 257,6,-1
 1312 1550 l 257,7,-1
 599 1015 l 257,4,-1
570 934 m 257,8,-1
 517 844 l 257,9,-1
 802 0 l 257,10,-1
 852 0 l 257,11,-1
 570 934 l 257,8,-1
EndSplineSet
EndChar

StartChar: L
Encoding: 76 76 59
GlifName: L_
Width: 1024
VWidth: 0
GlyphClass: 2
Flags: W
AnchorPoint: "base" 493 -80 basechar 0
AnchorPoint: "top" 755 1622 basechar 0
LayerCount: 2
Fore
SplineSet
697 1553 m 257,0,-1
 132 0 l 257,1,-1
 192 0 l 257,2,-1
 757 1553 l 257,3,-1
 697 1553 l 257,0,-1
169 61 m 257,4,-1
 147 0 l 257,5,-1
 892 0 l 257,6,-1
 914 61 l 257,7,-1
 169 61 l 257,4,-1
EndSplineSet
EndChar

StartChar: Lcaron
Encoding: 317 317 61
GlifName: L_caron
Width: 1024
VWidth: 0
GlyphClass: 2
Flags: W
LayerCount: 2
Fore
SplineSet
584 1542 m 257,0,-1
 23 0 l 257,1,-1
 85 0 l 257,2,-1
 646 1542 l 257,3,-1
 584 1542 l 257,0,-1
73 62 m 257,4,-1
 51 0 l 257,5,-1
 859 0 l 257,6,-1
 881 62 l 257,7,-1
 73 62 l 257,4,-1
961 1496 m 257,8,-1
 877 1264 l 257,9,-1
 917 1264 l 257,10,-1
 1001 1496 l 257,11,-1
 961 1496 l 257,8,-1
EndSplineSet
EndChar

StartChar: Lslash
Encoding: 321 321 63
GlifName: L_slash
Width: 1024
VWidth: 0
GlyphClass: 2
Flags: W
LayerCount: 2
Fore
SplineSet
644 1542 m 257,0,-1
 83 0 l 257,1,-1
 143 0 l 257,2,-1
 704 1542 l 257,3,-1
 644 1542 l 257,0,-1
130 64 m 257,4,-1
 107 0 l 257,5,-1
 918 0 l 257,6,-1
 941 64 l 257,7,-1
 130 64 l 257,4,-1
256 902 m 257,8,-1
 323 866 l 257,9,-1
 831 1068 l 257,10,-1
 764 1104 l 257,11,-1
 256 902 l 257,8,-1
EndSplineSet
EndChar

StartChar: M
Encoding: 77 77 64
GlifName: M_
Width: 1024
VWidth: 0
GlyphClass: 2
Flags: W
AnchorPoint: "base" 505 -48 basechar 0
AnchorPoint: "top" 1015 1630 basechar 0
LayerCount: 2
Fore
SplineSet
665 1553 m 257,0,-1
 100 0 l 257,1,-1
 160 0 l 257,2,-1
 725 1553 l 257,3,-1
 665 1553 l 257,0,-1
1427 1553 m 257,4,-1
 862 0 l 257,5,-1
 924 0 l 257,6,-1
 1489 1553 l 257,7,-1
 1427 1553 l 257,4,-1
665 1553 m 257,8,-1
 852 1033 l 257,9,-1
 920 1033 l 257,10,-1
 725 1553 l 257,11,-1
 665 1553 l 257,8,-1
1427 1553 m 257,12,-1
 852 1033 l 257,13,-1
 920 1033 l 257,14,-1
 1489 1553 l 257,15,-1
 1427 1553 l 257,12,-1
EndSplineSet
EndChar

StartChar: N
Encoding: 78 78 65
GlifName: N_
Width: 1024
VWidth: 0
GlyphClass: 2
Flags: W
AnchorPoint: "top" 1013 1642 basechar 0
AnchorPoint: "base" 541 -48 basechar 0
LayerCount: 2
Fore
SplineSet
663 1553 m 257,0,-1
 98 0 l 257,1,-1
 158 0 l 257,2,-1
 723 1553 l 257,3,-1
 663 1553 l 257,0,-1
1431 1553 m 257,4,-1
 866 0 l 257,5,-1
 926 0 l 257,6,-1
 1491 1553 l 257,7,-1
 1431 1553 l 257,4,-1
663 1553 m 257,8,-1
 866 0 l 257,9,-1
 926 0 l 257,10,-1
 723 1553 l 257,11,-1
 663 1553 l 257,8,-1
EndSplineSet
EndChar

StartChar: O
Encoding: 79 79 69
GlifName: O_
Width: 1024
VWidth: 0
GlyphClass: 2
Flags: W
AnchorPoint: "top" 1022 1658 basechar 0
AnchorPoint: "base" 527 -66 basechar 0
LayerCount: 2
Fore
SplineSet
677 1553 m 257,0,-1
 112 0 l 257,1,-1
 171 0 l 257,2,-1
 736 1553 l 257,3,-1
 677 1553 l 257,0,-1
1418 1553 m 257,4,-1
 853 0 l 257,5,-1
 912 0 l 257,6,-1
 1477 1553 l 257,7,-1
 1418 1553 l 257,4,-1
715 1553 m 257,8,-1
 693 1493 l 257,9,-1
 1425 1493 l 257,10,-1
 1447 1553 l 257,11,-1
 715 1553 l 257,8,-1
174 61 m 257,12,-1
 152 0 l 257,13,-1
 890 0 l 257,14,-1
 912 61 l 257,15,-1
 174 61 l 257,12,-1
EndSplineSet
EndChar

StartChar: OE
Encoding: 338 338 70
GlifName: O_E_
Width: 1024
VWidth: 0
GlyphClass: 2
Flags: W
AnchorPoint: "top" 731 1646 basechar 0
AnchorPoint: "base" 150 -71 basechar 0
LayerCount: 2
Fore
SplineSet
410 1553 m 257,0,-1
 -156 0 l 257,1,-1
 -97 0 l 257,2,-1
 469 1553 l 257,3,-1
 410 1553 l 257,0,-1
874 1553 m 257,4,-1
 308 0 l 257,5,-1
 367 0 l 257,6,-1
 933 1553 l 257,7,-1
 874 1553 l 257,4,-1
448 1553 m 257,8,-1
 426 1493 l 257,9,-1
 1158 1493 l 257,10,-1
 1180 1553 l 257,11,-1
 448 1553 l 257,8,-1
-93 61 m 257,12,-1
 -116 0 l 257,13,-1
 622 0 l 257,14,-1
 645 61 l 257,15,-1
 -93 61 l 257,12,-1
653 859 m 257,16,-1
 631 798 l 257,17,-1
 854 798 l 257,18,-1
 876 859 l 257,19,-1
 653 859 l 257,16,-1
EndSplineSet
EndChar

StartChar: Oslash
Encoding: 216 216 79
GlifName: O_slash
Width: 1024
VWidth: 0
GlyphClass: 2
Flags: W
AnchorPoint: "top" 794 1656 basechar 0
AnchorPoint: "base" 210 -70 basechar 0
LayerCount: 2
Fore
SplineSet
1212 1630 m 257,0,-1
 -229 -48 l 257,1,-1
 -199 -75 l 257,2,-1
 1253 1588 l 257,3,-1
 1212 1630 l 257,0,-1
387 1540 m 257,4,-1
 -173 0 l 257,5,-1
 -113 0 l 257,6,-1
 447 1540 l 257,7,-1
 387 1540 l 257,4,-1
1127 1537 m 257,8,-1
 568 0 l 257,9,-1
 627 0 l 257,10,-1
 1186 1537 l 257,11,-1
 1127 1537 l 257,8,-1
417 1538 m 257,12,-1
 395 1478 l 257,13,-1
 1135 1478 l 257,14,-1
 1157 1538 l 257,15,-1
 417 1538 l 257,12,-1
-106 75 m 257,16,-1
 -133 0 l 257,17,-1
 568 0 l 257,18,-1
 595 75 l 257,19,-1
 -106 75 l 257,16,-1
EndSplineSet
EndChar

StartChar: P
Encoding: 80 80 82
GlifName: P_
Width: 1024
VWidth: 0
GlyphClass: 2
Flags: W
AnchorPoint: "base" 149 -80 basechar 0
AnchorPoint: "top" 1017 1634 basechar 0
LayerCount: 2
Fore
SplineSet
691 1535 m 257,0,-1
 132 0 l 257,1,-1
 191 0 l 257,2,-1
 750 1535 l 257,3,-1
 691 1535 l 257,0,-1
696 1550 m 257,4,-1
 668 1472 l 257,5,-1
 1428 1472 l 257,6,-1
 1456 1550 l 257,7,-1
 696 1550 l 257,4,-1
1390 1536 m 257,8,-1
 1148 872 l 257,9,-1
 1209 872 l 257,10,-1
 1451 1536 l 257,11,-1
 1390 1536 l 257,8,-1
516 931 m 257,12,-1
 494 871 l 257,13,-1
 1181 871 l 257,14,-1
 1203 931 l 257,15,-1
 516 931 l 257,12,-1
EndSplineSet
EndChar

StartChar: Q
Encoding: 81 81 83
GlifName: Q_
Width: 1024
VWidth: 0
GlyphClass: 2
Flags: W
VStem: 648 76
AnchorPoint: "base" 499 -41 basechar 0
AnchorPoint: "top" 1066 1652 basechar 0
LayerCount: 2
Fore
SplineSet
677 1553 m 257,0,-1
 112 0 l 257,1,-1
 170 0 l 257,2,-1
 735 1553 l 257,3,-1
 677 1553 l 257,0,-1
1419 1553 m 257,4,-1
 854 0 l 257,5,-1
 912 0 l 257,6,-1
 1477 1553 l 257,7,-1
 1419 1553 l 257,4,-1
717 1553 m 257,8,-1
 696 1496 l 257,9,-1
 1406 1496 l 257,10,-1
 1427 1553 l 257,11,-1
 717 1553 l 257,8,-1
175 62 m 257,12,-1
 152 0 l 257,13,-1
 864 0 l 257,14,-1
 887 62 l 257,15,-1
 175 62 l 257,12,-1
621 13 m 257,16,-1
 648 -204 l 257,17,-1
 724 -165 l 257,18,-1
 683 52 l 257,19,-1
 621 13 l 257,16,-1
EndSplineSet
PickledDataWithLists: "(dp0
Vcom.fontlab.hintData
p1
(dp2
Vvhints
p3
(lp4
(dp5
Vposition
p6
I648
sVwidth
p7
I76
sass."
EndChar

StartChar: R
Encoding: 82 82 84
GlifName: R_
Width: 1024
VWidth: 0
GlyphClass: 2
Flags: W
HStem: 868 7<732.474 732.474 732.474 790.474>
VStem: 846 56<0 0>
AnchorPoint: "base" 469 -36 basechar 0
AnchorPoint: "top" 1024 1634 basechar 0
LayerCount: 2
Fore
SplineSet
686 1550 m 257,0,-1
 122 0 l 257,1,-1
 182 0 l 257,2,-1
 746 1550 l 257,3,-1
 686 1550 l 257,0,-1
728 1550 m 257,4,-1
 707 1491 l 257,5,-1
 1399 1491 l 257,6,-1
 1420 1550 l 257,7,-1
 728 1550 l 257,4,-1
1386 1550 m 257,8,-1
 1139 872 l 257,9,-1
 1201 872 l 257,10,-1
 1448 1550 l 257,11,-1
 1386 1550 l 257,8,-1
490 929 m 257,12,-1
 468 868 l 257,13,-1
 1188 868 l 257,14,-1
 1210 929 l 257,15,-1
 490 929 l 257,12,-1
732 875 m 257,16,-1
 846 0 l 257,17,-1
 902 0 l 257,18,-1
 790 875 l 257,19,-1
 732 875 l 257,16,-1
EndSplineSet
PickledDataWithLists: "(dp0
Vcom.fontlab.hintData
p1
(dp2
Vhhints
p3
(lp4
(dp5
Vposition
p6
I868
sVwidth
p7
I7
sasVvhints
p8
(lp9
(dp10
g6
I846
sg7
I56
sass."
EndChar

StartChar: S
Encoding: 83 83 87
GlifName: S_
Width: 1024
VWidth: 0
GlyphClass: 2
Flags: W
AnchorPoint: "top" 994 1638 basechar 0
AnchorPoint: "base" 546 -54 basechar 0
LayerCount: 2
Fore
SplineSet
691 1553 m 257,0,-1
 670 1494 l 257,1,-1
 1268 1494 l 257,2,-1
 1289 1553 l 257,3,-1
 691 1553 l 257,0,-1
687 1542 m 257,4,-1
 500 1028 l 257,5,-1
 559 1028 l 257,6,-1
 746 1542 l 257,7,-1
 687 1542 l 257,4,-1
176 60 m 257,8,-1
 154 0 l 257,9,-1
 862 0 l 257,10,-1
 884 60 l 257,11,-1
 176 60 l 257,8,-1
839 0 m 257,12,-1
 898 0 l 257,13,-1
 1027 355 l 257,14,-1
 968 355 l 257,15,-1
 839 0 l 257,12,-1
500 1028 m 257,16,-1
 968 355 l 257,17,-1
 1027 355 l 257,18,-1
 559 1028 l 257,19,-1
 500 1028 l 257,16,-1
EndSplineSet
EndChar

StartChar: T
Encoding: 84 84 92
GlifName: T_
Width: 1024
VWidth: 0
GlyphClass: 2
Flags: W
AnchorPoint: "top" 1067 1634 basechar 0
AnchorPoint: "base" 491 -70 basechar 0
LayerCount: 2
Fore
SplineSet
685 1553 m 257,0,-1
 664 1494 l 257,1,-1
 1448 1494 l 257,2,-1
 1469 1553 l 257,3,-1
 685 1553 l 257,0,-1
1034 1512 m 257,4,-1
 488 12 l 257,5,-1
 546 12 l 257,6,-1
 1092 1512 l 257,7,-1
 1034 1512 l 257,4,-1
EndSplineSet
EndChar

StartChar: Thorn
Encoding: 222 222 94
GlifName: T_horn
Width: 1024
VWidth: 0
GlyphClass: 2
Flags: W
LayerCount: 2
Fore
SplineSet
468 1542 m 257,0,-1
 -90 9 l 257,1,-1
 -30 9 l 257,2,-1
 528 1542 l 257,3,-1
 468 1542 l 257,0,-1
406 1240 m 257,4,-1
 386 1187 l 257,5,-1
 1074 1187 l 257,6,-1
 1094 1240 l 257,7,-1
 406 1240 l 257,4,-1
1054 1242 m 257,8,-1
 796 531 l 257,9,-1
 856 531 l 257,10,-1
 1114 1242 l 257,11,-1
 1054 1242 l 257,8,-1
172 544 m 257,12,-1
 150 484 l 257,13,-1
 836 484 l 257,14,-1
 858 544 l 257,15,-1
 172 544 l 257,12,-1
EndSplineSet
EndChar

StartChar: U
Encoding: 85 85 95
GlifName: U_
Width: 1024
VWidth: 0
GlyphClass: 2
Flags: W
AnchorPoint: "top" 1043 1626 basechar 0
AnchorPoint: "base" 519 -122 basechar 0
LayerCount: 2
Fore
SplineSet
722 1553 m 257,0,-1
 157 0 l 257,1,-1
 219 0 l 257,2,-1
 784 1553 l 257,3,-1
 722 1553 l 257,0,-1
1372 1553 m 257,4,-1
 807 0 l 257,5,-1
 867 0 l 257,6,-1
 1432 1553 l 257,7,-1
 1372 1553 l 257,4,-1
226 61 m 257,8,-1
 204 0 l 257,9,-1
 824 0 l 257,10,-1
 846 61 l 257,11,-1
 226 61 l 257,8,-1
EndSplineSet
EndChar

StartChar: V
Encoding: 86 86 107
GlifName: V_
Width: 1024
VWidth: 0
GlyphClass: 2
Flags: W
VStem: 671 64
AnchorPoint: "top" 983 1642 basechar 0
AnchorPoint: "base" 531 -78 basechar 0
LayerCount: 2
Fore
SplineSet
671 1553 m 257,0,-1
 514 0 l 257,1,-1
 574 0 l 257,2,-1
 735 1553 l 257,3,-1
 671 1553 l 257,0,-1
1413 1553 m 257,4,-1
 514 0 l 257,5,-1
 574 0 l 257,6,-1
 1483 1553 l 257,7,-1
 1413 1553 l 257,4,-1
EndSplineSet
PickledDataWithLists: "(dp0
Vcom.fontlab.hintData
p1
(dp2
Vvhints
p3
(lp4
(dp5
Vposition
p6
I671
sVwidth
p7
I64
sass."
EndChar

StartChar: W
Encoding: 87 87 108
GlifName: W_
Width: 1024
VWidth: 0
GlyphClass: 2
Flags: W
AnchorPoint: "base" 488 -136 basechar 0
AnchorPoint: "top" 1091 1583 basechar 0
LayerCount: 2
Fore
SplineSet
667 1550 m 257,0,-1
 103 0 l 257,1,-1
 163 0 l 257,2,-1
 727 1550 l 257,3,-1
 667 1550 l 257,0,-1
1419 1533 m 257,4,-1
 865 12 l 257,5,-1
 925 12 l 257,6,-1
 1479 1533 l 257,7,-1
 1419 1533 l 257,4,-1
856 1028 m 257,8,-1
 482 0 l 257,9,-1
 542 0 l 257,10,-1
 916 1028 l 257,11,-1
 856 1028 l 257,8,-1
133 60 m 257,12,-1
 111 0 l 257,13,-1
 921 0 l 257,14,-1
 943 60 l 257,15,-1
 133 60 l 257,12,-1
EndSplineSet
EndChar

StartChar: X
Encoding: 88 88 113
GlifName: X_
Width: 1024
VWidth: 0
GlyphClass: 2
Flags: W
AnchorPoint: "top" 1025 1623 basechar 0
AnchorPoint: "base" 486 -32 basechar 0
LayerCount: 2
Fore
SplineSet
619 1553 m 257,0,-1
 896 0 l 257,1,-1
 970 0 l 257,2,-1
 691 1553 l 257,3,-1
 619 1553 l 257,0,-1
70 0 m 257,4,-1
 128 0 l 257,5,-1
 1439 1553 l 257,6,-1
 1363 1553 l 257,7,-1
 70 0 l 257,4,-1
EndSplineSet
EndChar

StartChar: Y
Encoding: 89 89 114
GlifName: Y_
Width: 1024
VWidth: 0
GlyphClass: 2
Flags: W
AnchorPoint: "top" 1076 1626 basechar 0
AnchorPoint: "base" 508 -74 basechar 0
LayerCount: 2
Fore
SplineSet
806 895 m 257,0,-1
 480 0 l 257,1,-1
 539 0 l 257,2,-1
 865 895 l 257,3,-1
 806 895 l 257,0,-1
735 1550 m 257,4,-1
 484 859 l 257,5,-1
 545 859 l 257,6,-1
 796 1550 l 257,7,-1
 735 1550 l 257,4,-1
1352 1536 m 257,8,-1
 1106 859 l 257,9,-1
 1166 859 l 257,10,-1
 1412 1536 l 257,11,-1
 1352 1536 l 257,8,-1
551 919 m 257,12,-1
 530 859 l 257,13,-1
 1139 859 l 257,14,-1
 1160 919 l 257,15,-1
 551 919 l 257,12,-1
EndSplineSet
EndChar

StartChar: Z
Encoding: 90 90 119
GlifName: Z_
Width: 1024
VWidth: 0
GlyphClass: 2
Flags: W
AnchorPoint: "top" 1061 1646 basechar 0
AnchorPoint: "base" 657 -50 basechar 0
LayerCount: 2
Fore
SplineSet
662 1550 m 257,0,-1
 641 1491 l 257,1,-1
 1469 1491 l 257,2,-1
 1490 1550 l 257,3,-1
 662 1550 l 257,0,-1
121 60 m 257,4,-1
 99 0 l 257,5,-1
 926 0 l 257,6,-1
 948 60 l 257,7,-1
 121 60 l 257,4,-1
1409 1491 m 257,8,-1
 121 60 l 257,9,-1
 181 60 l 257,10,-1
 1469 1491 l 257,11,-1
 1409 1491 l 257,8,-1
EndSplineSet
EndChar

StartChar: a
Encoding: 97 97 123
GlifName: a
Width: 1024
VWidth: 0
GlyphClass: 2
Flags: W
AnchorPoint: "top" 888 1116 basechar 0
AnchorPoint: "base" 525 -74 basechar 0
LayerCount: 2
Fore
SplineSet
541 1024 m 257,0,-1
 516 957 l 257,1,-1
 1165 957 l 257,2,-1
 1189 1023 l 257,3,-1
 541 1024 l 257,0,-1
1151 1023 m 257,4,-1
 779 0 l 257,5,-1
 856 0 l 257,6,-1
 1228 1023 l 257,7,-1
 1151 1023 l 257,4,-1
389 600 m 257,8,-1
 367 538 l 257,9,-1
 991 538 l 257,10,-1
 1013 600 l 257,11,-1
 389 600 l 257,8,-1
382 577 m 257,12,-1
 172 0 l 257,13,-1
 243 0 l 257,14,-1
 453 577 l 257,15,-1
 382 577 l 257,12,-1
208 74 m 257,16,-1
 181 0 l 257,17,-1
 845 0 l 257,18,-1
 872 74 l 257,19,-1
 208 74 l 257,16,-1
EndSplineSet
EndChar

StartChar: acute
Encoding: 180 180 127
GlifName: acute
Width: 1024
VWidth: 0
GlyphClass: 2
Flags: W
LayerCount: 2
Fore
SplineSet
586 1553 m 257,0,-1
 364 1302 l 257,1,-1
 436 1256 l 257,2,-1
 660 1511 l 257,3,-1
 586 1553 l 257,0,-1
EndSplineSet
EndChar

StartChar: acutecomb
Encoding: 769 769 128
GlifName: acutecomb
Width: 0
VWidth: 0
GlyphClass: 4
Flags: W
AnchorPoint: "top" 10 763 mark 0
LayerCount: 2
Fore
SplineSet
144 976 m 257,0,-1
 -3 791 l 257,1,-1
 38 757 l 257,2,-1
 184 942 l 257,3,-1
 144 976 l 257,0,-1
EndSplineSet
EndChar

StartChar: ae
Encoding: 230 230 130
GlifName: ae
Width: 1024
VWidth: 0
GlyphClass: 2
Flags: W
AnchorPoint: "top" 750 1125 basechar 0
AnchorPoint: "base" 302 -102 basechar 0
LayerCount: 2
Fore
SplineSet
227 1023 m 257,0,-1
 205 961 l 257,1,-1
 1095 961 l 257,2,-1
 1117 1023 l 257,3,-1
 227 1023 l 257,0,-1
697 1023 m 257,4,-1
 325 0 l 257,5,-1
 385 0 l 257,6,-1
 757 1023 l 257,7,-1
 697 1023 l 257,4,-1
97 599 m 257,8,-1
 75 538 l 257,9,-1
 915 538 l 257,10,-1
 937 599 l 257,11,-1
 97 599 l 257,8,-1
88 575 m 257,12,-1
 -121 0 l 257,13,-1
 -61 0 l 257,14,-1
 148 575 l 257,15,-1
 88 575 l 257,12,-1
-101 61 m 257,16,-1
 -123 0 l 257,17,-1
 797 0 l 257,18,-1
 819 61 l 257,19,-1
 -101 61 l 257,16,-1
1085 1023 m 257,20,-1
 909 538 l 257,21,-1
 971 538 l 257,22,-1
 1147 1023 l 257,23,-1
 1085 1023 l 257,20,-1
EndSplineSet
EndChar

StartChar: ampersand
Encoding: 38 38 134
GlifName: ampersand
Width: 1024
VWidth: 0
GlyphClass: 2
Flags: W
LayerCount: 2
Fore
SplineSet
594 1534 m 257,0,-1
 569 43 l 257,1,-1
 650 56 l 257,2,-1
 672 1534 l 257,3,-1
 594 1534 l 257,0,-1
1113 1467 m 257,4,-1
 1138 1536 l 257,5,-1
 672 1536 l 257,6,-1
 647 1467 l 257,7,-1
 1113 1467 l 257,4,-1
1062 1485 m 257,8,-1
 888 1006 l 257,9,-1
 946 1006 l 257,10,-1
 1120 1485 l 257,11,-1
 1062 1485 l 257,8,-1
264 1045 m 257,12,-1
 242 985 l 257,13,-1
 938 985 l 257,14,-1
 960 1045 l 257,15,-1
 264 1045 l 257,12,-1
264 1045 m 257,16,-1
 -108 24 l 257,17,-1
 -18 24 l 257,18,-1
 354 1045 l 257,19,-1
 264 1045 l 257,16,-1
-91 71 m 257,20,-1
 -114 6 l 257,21,-1
 694 6 l 257,22,-1
 717 71 l 257,23,-1
 -91 71 l 257,20,-1
EndSplineSet
EndChar

StartChar: asciicircum
Encoding: 94 94 138
GlifName: asciicircum
Width: 1024
VWidth: 0
GlyphClass: 2
Flags: W
LayerCount: 2
Fore
SplineSet
735 1023 m 257,0,-1
 663 1023 l 257,1,-1
 175 407 l 257,2,-1
 217 373 l 257,3,-1
 735 1023 l 257,0,-1
672 1030 m 257,4,-1
 754 364 l 257,5,-1
 849 400 l 257,6,-1
 746 1030 l 257,7,-1
 672 1030 l 257,4,-1
EndSplineSet
EndChar

StartChar: asciitilde
Encoding: 126 126 139
GlifName: asciitilde
Width: 1024
VWidth: 0
GlyphClass: 2
Flags: W
LayerCount: 2
Fore
SplineSet
373 766 m 257,0,-1
 355 716 l 257,1,-1
 679 645 l 257,2,-1
 697 695 l 257,3,-1
 373 766 l 257,0,-1
112 710 m 257,4,-1
 105 652 l 257,5,-1
 355 716 l 257,6,-1
 373 766 l 257,7,-1
 112 710 l 257,4,-1
697 695 m 257,8,-1
 679 645 l 257,9,-1
 916 796 l 257,10,-1
 919 843 l 257,11,-1
 697 695 l 257,8,-1
EndSplineSet
EndChar

StartChar: asterisk
Encoding: 42 42 140
GlifName: asterisk
Width: 1024
VWidth: 0
GlyphClass: 2
Flags: W
LayerCount: 2
Fore
SplineSet
690 1297 m 257,0,-1
 323 289 l 257,1,-1
 423 289 l 257,2,-1
 790 1297 l 257,3,-1
 690 1297 l 257,0,-1
292 1153 m 257,4,-1
 750 424 l 257,5,-1
 844 496 l 257,6,-1
 377 1222 l 257,7,-1
 292 1153 l 257,4,-1
1009 1200 m 257,8,-1
 -13 449 l 257,9,-1
 25 399 l 257,10,-1
 1037 1134 l 257,11,-1
 1009 1200 l 257,8,-1
EndSplineSet
EndChar

StartChar: at
Encoding: 64 64 141
GlifName: at
Width: 1024
VWidth: 0
GlyphClass: 2
Flags: W
LayerCount: 2
Fore
SplineSet
454 1023 m 257,0,-1
 430 956 l 257,1,-1
 1328 956 l 257,2,-1
 1352 1023 l 257,3,-1
 454 1023 l 257,0,-1
958 598 m 257,4,-1
 740 0 l 257,5,-1
 808 0 l 257,6,-1
 1026 598 l 257,7,-1
 958 598 l 257,4,-1
539 601 m 257,8,-1
 521 551 l 257,9,-1
 945 551 l 257,10,-1
 963 601 l 257,11,-1
 539 601 l 257,8,-1
530 589 m 257,12,-1
 320 12 l 257,13,-1
 374 12 l 257,14,-1
 584 589 l 257,15,-1
 530 589 l 257,12,-1
342 76 m 257,16,-1
 314 0 l 257,17,-1
 808 0 l 257,18,-1
 836 76 l 257,19,-1
 342 76 l 257,16,-1
400 1023 m 257,20,-1
 -53 -223 l 257,21,-1
 13 -223 l 257,22,-1
 466 1023 l 257,23,-1
 400 1023 l 257,20,-1
-39 -179 m 257,24,-1
 -68 -258 l 257,25,-1
 880 -258 l 257,26,-1
 909 -179 l 257,27,-1
 -39 -179 l 257,24,-1
1288 1033 m 257,28,-1
 912 0 l 257,29,-1
 998 0 l 257,30,-1
 1374 1033 l 257,31,-1
 1288 1033 l 257,28,-1
782 76 m 257,32,-1
 754 0 l 257,33,-1
 944 0 l 257,34,-1
 972 76 l 257,35,-1
 782 76 l 257,32,-1
EndSplineSet
EndChar

StartChar: b
Encoding: 98 98 143
GlifName: b
Width: 1024
VWidth: 0
GlyphClass: 2
Flags: W
AnchorPoint: "base" 469 -72 basechar 0
AnchorPoint: "top" 746 1622 basechar 0
LayerCount: 2
Fore
SplineSet
694 1536 m 257,0,-1
 135 0 l 257,1,-1
 195 0 l 257,2,-1
 754 1536 l 257,3,-1
 694 1536 l 257,0,-1
554 1033 m 257,4,-1
 532 972 l 257,5,-1
 1196 972 l 257,6,-1
 1218 1033 l 257,7,-1
 554 1033 l 257,4,-1
1205 1033 m 257,8,-1
 829 0 l 257,9,-1
 889 0 l 257,10,-1
 1265 1033 l 257,11,-1
 1205 1033 l 257,8,-1
192 60 m 257,12,-1
 170 0 l 257,13,-1
 867 0 l 257,14,-1
 889 60 l 257,15,-1
 192 60 l 257,12,-1
EndSplineSet
EndChar

StartChar: backslash
Encoding: 92 92 144
GlifName: backslash
Width: 1024
VWidth: 0
GlyphClass: 2
Flags: W
LayerCount: 2
Fore
SplineSet
475 1550 m 257,0,-1
 466 0 l 257,1,-1
 544 0 l 257,2,-1
 558 1550 l 257,3,-1
 475 1550 l 257,0,-1
EndSplineSet
EndChar

StartChar: bar
Encoding: 124 124 145
GlifName: bar
Width: 1024
VWidth: 0
GlyphClass: 2
Flags: W
LayerCount: 2
Fore
SplineSet
750 1435 m 257,0,-1
 194 -90 l 257,1,-1
 274 -90 l 257,2,-1
 830 1435 l 257,3,-1
 750 1435 l 257,0,-1
EndSplineSet
EndChar

StartChar: braceleft
Encoding: 123 123 146
GlifName: braceleft
Width: 1024
VWidth: 0
GlyphClass: 2
Flags: W
LayerCount: 2
Fore
SplineSet
692 1544 m 257,0,-1
 435 838 l 257,1,-1
 519 838 l 257,2,-1
 776 1544 l 257,3,-1
 692 1544 l 257,0,-1
296 424 m 257,4,-1
 38 -286 l 257,5,-1
 128 -286 l 257,6,-1
 386 424 l 257,7,-1
 296 424 l 257,4,-1
92 690 m 257,8,-1
 70 630 l 257,9,-1
 519 838 l 257,10,-1
 435 838 l 257,11,-1
 92 690 l 257,8,-1
92 690 m 257,12,-1
 70 630 l 257,13,-1
 295 425 l 257,14,-1
 388 425 l 257,15,-1
 92 690 l 257,12,-1
714 1603 m 257,16,-1
 659 1452 l 257,17,-1
 972 1574 l 257,18,-1
 986 1603 l 257,19,-1
 714 1603 l 257,16,-1
92 -140 m 257,20,-1
 38 -287 l 257,21,-1
 314 -287 l 257,22,-1
 319 -274 l 257,23,-1
 92 -140 l 257,20,-1
EndSplineSet
EndChar

StartChar: braceright
Encoding: 125 125 147
GlifName: braceright
Width: 1024
VWidth: 0
GlyphClass: 2
Flags: W
LayerCount: 2
Fore
SplineSet
986 1544 m 257,0,-1
 886 1544 l 257,1,-1
 629 838 l 257,2,-1
 729 838 l 257,3,-1
 986 1544 l 257,0,-1
564 424 m 257,4,-1
 471 424 l 257,5,-1
 213 -286 l 257,6,-1
 306 -286 l 257,7,-1
 564 424 l 257,4,-1
948 690 m 257,8,-1
 724 838 l 257,9,-1
 625 838 l 257,10,-1
 926 630 l 257,11,-1
 948 690 l 257,8,-1
948 690 m 257,12,-1
 471 424 l 257,13,-1
 564 424 l 257,14,-1
 926 630 l 257,15,-1
 948 690 l 257,12,-1
1008 1603 m 257,16,-1
 733 1603 l 257,17,-1
 727 1574 l 257,18,-1
 953 1452 l 257,19,-1
 1008 1603 l 257,16,-1
344 -140 m 257,20,-1
 19 -274 l 257,21,-1
 16 -284 l 257,22,-1
 292 -284 l 257,23,-1
 344 -140 l 257,20,-1
EndSplineSet
EndChar

StartChar: bracketleft
Encoding: 91 91 148
GlifName: bracketleft
Width: 1024
VWidth: 0
GlyphClass: 2
Flags: W
LayerCount: 2
Fore
SplineSet
705 1542 m 257,0,-1
 56 -242 l 257,1,-1
 113 -242 l 257,2,-1
 762 1542 l 257,3,-1
 705 1542 l 257,0,-1
759 1543 m 257,4,-1
 737 1481 l 257,5,-1
 946 1481 l 257,6,-1
 968 1543 l 257,7,-1
 759 1543 l 257,4,-1
119 -168 m 257,8,-1
 92 -242 l 257,9,-1
 324 -242 l 257,10,-1
 351 -168 l 257,11,-1
 119 -168 l 257,8,-1
EndSplineSet
EndChar

StartChar: bracketright
Encoding: 93 93 149
GlifName: bracketright
Width: 1024
VWidth: 0
GlyphClass: 2
Flags: W
LayerCount: 2
Fore
SplineSet
912 1542 m 257,0,-1
 262 -242 l 257,1,-1
 324 -242 l 257,2,-1
 974 1542 l 257,3,-1
 912 1542 l 257,0,-1
700 1543 m 257,4,-1
 676 1478 l 257,5,-1
 904 1478 l 257,6,-1
 928 1543 l 257,7,-1
 700 1543 l 257,4,-1
78 -165 m 257,8,-1
 50 -242 l 257,9,-1
 289 -242 l 257,10,-1
 317 -165 l 257,11,-1
 78 -165 l 257,8,-1
EndSplineSet
EndChar

StartChar: breve
Encoding: 728 728 150
GlifName: breve
Width: 1024
VWidth: 0
GlyphClass: 2
Flags: W
LayerCount: 2
Fore
SplineSet
660 1550 m 257,0,-1
 634 1480 l 257,1,-1
 825 1550 l 257,2,-1
 859 1645 l 257,3,-1
 660 1550 l 257,0,-1
336 1550 m 257,4,-1
 310 1480 l 257,5,-1
 634 1480 l 257,6,-1
 660 1550 l 257,7,-1
 336 1550 l 257,4,-1
194 1630 m 257,8,-1
 165 1550 l 257,9,-1
 310 1480 l 257,10,-1
 336 1550 l 257,11,-1
 194 1630 l 257,8,-1
EndSplineSet
EndChar

StartChar: brokenbar
Encoding: 166 166 151
GlifName: brokenbar
Width: 1024
VWidth: 0
GlyphClass: 2
Flags: W
LayerCount: 2
Fore
SplineSet
132 -332 m 257,0,-1
 176 -332 l 257,1,-1
 545 682 l 257,2,-1
 501 682 l 257,3,-1
 132 -332 l 257,0,-1
547 790 m 257,4,-1
 584 790 l 257,5,-1
 892 1636 l 257,6,-1
 855 1636 l 257,7,-1
 547 790 l 257,4,-1
EndSplineSet
EndChar

StartChar: bullet
Encoding: 8226 8226 152
GlifName: bullet
Width: 1024
VWidth: 0
GlyphClass: 2
Flags: W
LayerCount: 2
Fore
SplineSet
465 1009 m 257,0,-1
 405 844 l 257,1,-1
 559 844 l 257,2,-1
 619 1009 l 257,3,-1
 465 1009 l 257,0,-1
EndSplineSet
EndChar

StartChar: c
Encoding: 99 99 153
GlifName: c
Width: 1024
VWidth: 0
GlyphClass: 2
Flags: W
AnchorPoint: "base" 448 -69 basechar 0
AnchorPoint: "top" 932 1114 basechar 0
LayerCount: 2
Fore
SplineSet
536 1023 m 257,0,-1
 516 967 l 257,1,-1
 1212 967 l 257,2,-1
 1232 1023 l 257,3,-1
 536 1023 l 257,0,-1
524 984 m 257,4,-1
 166 0 l 257,5,-1
 226 0 l 257,6,-1
 584 984 l 257,7,-1
 524 984 l 257,4,-1
236 60 m 257,8,-1
 214 0 l 257,9,-1
 854 0 l 257,10,-1
 876 60 l 257,11,-1
 236 60 l 257,8,-1
EndSplineSet
EndChar

StartChar: caron
Encoding: 711 711 155
GlifName: caron
Width: 1024
VWidth: 0
GlyphClass: 2
Flags: W
LayerCount: 2
Fore
SplineSet
397 1068 m 257,0,-1
 375 1395 l 257,1,-1
 342 1378 l 257,2,-1
 361 1068 l 257,3,-1
 397 1068 l 257,0,-1
364 1067 m 257,4,-1
 401 1067 l 257,5,-1
 682 1382 l 257,6,-1
 647 1400 l 257,7,-1
 364 1067 l 257,4,-1
EndSplineSet
EndChar

StartChar: cedilla
Encoding: 184 184 160
GlifName: cedilla
Width: 1024
VWidth: 0
GlyphClass: 2
Flags: W
LayerCount: 2
Fore
SplineSet
423 236 m 257,0,-1
 337 0 l 257,1,-1
 395 0 l 257,2,-1
 481 236 l 257,3,-1
 423 236 l 257,0,-1
237 -291 m 257,4,-1
 215 -352 l 257,5,-1
 661 -352 l 257,6,-1
 683 -291 l 257,7,-1
 237 -291 l 257,4,-1
750 56 m 257,8,-1
 615 -316 l 257,9,-1
 674 -316 l 257,10,-1
 809 56 l 257,11,-1
 750 56 l 257,8,-1
363 56 m 257,12,-1
 343 0 l 257,13,-1
 789 0 l 257,14,-1
 809 56 l 257,15,-1
 363 56 l 257,12,-1
EndSplineSet
EndChar

StartChar: cent
Encoding: 162 162 161
GlifName: cent
Width: 1024
VWidth: 0
GlyphClass: 2
Flags: W
LayerCount: 2
Fore
SplineSet
847 1183 m 257,0,-1
 787 1183 l 257,1,-1
 326 -86 l 257,2,-1
 386 -86 l 257,3,-1
 847 1183 l 257,0,-1
349 1023 m 257,4,-1
 328 966 l 257,5,-1
 1024 966 l 257,6,-1
 1045 1023 l 257,7,-1
 349 1023 l 257,4,-1
337 984 m 257,8,-1
 -21 0 l 257,9,-1
 44 0 l 257,10,-1
 402 984 l 257,11,-1
 337 984 l 257,8,-1
50 61 m 257,12,-1
 28 0 l 257,13,-1
 667 0 l 257,14,-1
 689 61 l 257,15,-1
 50 61 l 257,12,-1
EndSplineSet
EndChar

StartChar: circumflex
Encoding: 710 710 162
GlifName: circumflex
Width: 1024
VWidth: 0
GlyphClass: 2
Flags: W
LayerCount: 2
Fore
SplineSet
625 2308 m 257,0,-1
 589 2308 l 257,1,-1
 344 1998 l 257,2,-1
 365 1981 l 257,3,-1
 625 2308 l 257,0,-1
592 2310 m 257,4,-1
 633 1976 l 257,5,-1
 680 1994 l 257,6,-1
 629 2310 l 257,7,-1
 592 2310 l 257,4,-1
EndSplineSet
EndChar

StartChar: colon
Encoding: 58 58 163
GlifName: colon
Width: 1024
VWidth: 0
GlyphClass: 2
Flags: W
HStem: 7 546<446.549 645.275 582.549 645.275>
LayerCount: 2
Fore
SplineSet
504 164 m 257,0,-1
 447 7 l 257,1,-1
 583 7 l 257,2,-1
 640 164 l 257,3,-1
 504 164 l 257,0,-1
645 553 m 257,4,-1
 588 396 l 257,5,-1
 724 396 l 257,6,-1
 781 553 l 257,7,-1
 645 553 l 257,4,-1
EndSplineSet
PickledDataWithLists: "(dp0
Vcom.fontlab.hintData
p1
(dp2
Vhhints
p3
(lp4
(dp5
Vposition
p6
I7
sVwidth
p7
I546
sass."
EndChar

StartChar: comma
Encoding: 44 44 164
GlifName: comma
Width: 1024
VWidth: 0
GlyphClass: 2
Flags: W
LayerCount: 2
Fore
SplineSet
473 165 m 257,0,-1
 415 8 l 257,1,-1
 551 8 l 257,2,-1
 609 165 l 257,3,-1
 473 165 l 257,0,-1
546 135 m 257,4,-1
 418 -99 l 257,5,-1
 451 -148 l 257,6,-1
 556 26 l 257,7,-1
 546 135 l 257,4,-1
EndSplineSet
EndChar

StartChar: copyright
Encoding: 169 169 165
GlifName: copyright
Width: 1024
VWidth: 0
GlyphClass: 2
Flags: W
LayerCount: 2
Fore
SplineSet
293 1540 m 257,0,-1
 -268 0 l 257,1,-1
 -208 0 l 257,2,-1
 353 1540 l 257,3,-1
 293 1540 l 257,0,-1
1232 1537 m 257,4,-1
 672 0 l 257,5,-1
 732 0 l 257,6,-1
 1292 1537 l 257,7,-1
 1232 1537 l 257,4,-1
344 1538 m 257,8,-1
 322 1476 l 257,9,-1
 1266 1476 l 257,10,-1
 1288 1538 l 257,11,-1
 344 1538 l 257,8,-1
-234 60 m 257,12,-1
 -256 0 l 257,13,-1
 714 0 l 257,14,-1
 736 60 l 257,15,-1
 -234 60 l 257,12,-1
414 1197 m 257,16,-1
 391 1135 l 257,17,-1
 825 1135 l 257,18,-1
 848 1197 l 257,19,-1
 414 1197 l 257,16,-1
398 1154 m 257,20,-1
 102 340 l 257,21,-1
 162 340 l 257,22,-1
 458 1154 l 257,23,-1
 398 1154 l 257,20,-1
108 356 m 257,24,-1
 85 294 l 257,25,-1
 525 294 l 257,26,-1
 548 356 l 257,27,-1
 108 356 l 257,24,-1
EndSplineSet
EndChar

StartChar: currency
Encoding: 164 164 166
GlifName: currency
Width: 1024
VWidth: 0
GlyphClass: 2
Flags: W
LayerCount: 2
Fore
SplineSet
285 1182 m 257,0,-1
 -87 160 l 257,1,-1
 -27 160 l 257,2,-1
 345 1182 l 257,3,-1
 285 1182 l 257,0,-1
1043 1184 m 257,4,-1
 671 160 l 257,5,-1
 731 160 l 257,6,-1
 1103 1184 l 257,7,-1
 1043 1184 l 257,4,-1
348 1187 m 257,8,-1
 327 1127 l 257,9,-1
 1027 1127 l 257,10,-1
 1048 1187 l 257,11,-1
 348 1187 l 257,8,-1
-19 222 m 257,12,-1
 -41 160 l 257,13,-1
 679 160 l 257,14,-1
 701 222 l 257,15,-1
 -19 222 l 257,12,-1
236 1251 m 257,16,-1
 194 1137 l 257,17,-1
 338 1137 l 257,18,-1
 380 1251 l 257,19,-1
 236 1251 l 257,16,-1
1068 1241 m 257,20,-1
 1027 1127 l 257,21,-1
 1169 1127 l 257,22,-1
 1210 1241 l 257,23,-1
 1068 1241 l 257,20,-1
-145 223 m 257,24,-1
 -186 109 l 257,25,-1
 -42 109 l 257,26,-1
 -1 223 l 257,27,-1
 -145 223 l 257,24,-1
698 220 m 257,28,-1
 657 106 l 257,29,-1
 801 106 l 257,30,-1
 842 220 l 257,31,-1
 698 220 l 257,28,-1
EndSplineSet
EndChar

StartChar: d
Encoding: 100 100 167
GlifName: d
Width: 1024
VWidth: 0
GlyphClass: 2
Flags: W
AnchorPoint: "base" 484 -69 basechar 0
AnchorPoint: "top" 1479 1648 basechar 0
LayerCount: 2
Fore
SplineSet
1388 1527 m 257,0,-1
 832 0 l 257,1,-1
 892 0 l 257,2,-1
 1448 1527 l 257,3,-1
 1388 1527 l 257,0,-1
548 1023 m 257,4,-1
 528 966 l 257,5,-1
 1218 966 l 257,6,-1
 1238 1023 l 257,7,-1
 548 1023 l 257,4,-1
504 1023 m 257,8,-1
 132 0 l 257,9,-1
 192 0 l 257,10,-1
 564 1023 l 257,11,-1
 504 1023 l 257,8,-1
193 59 m 257,12,-1
 172 0 l 257,13,-1
 844 0 l 257,14,-1
 865 59 l 257,15,-1
 193 59 l 257,12,-1
EndSplineSet
EndChar

StartChar: dagger
Encoding: 8224 8224 168
GlifName: dagger
Width: 1024
VWidth: 0
GlyphClass: 2
Flags: W
LayerCount: 2
Fore
SplineSet
301 1251 m 257,0,-1
 282 1200 l 257,1,-1
 888 1200 l 257,2,-1
 907 1251 l 257,3,-1
 301 1251 l 257,0,-1
681 1550 m 257,4,-1
 117 0 l 257,5,-1
 183 0 l 257,6,-1
 747 1550 l 257,7,-1
 681 1550 l 257,4,-1
EndSplineSet
EndChar

StartChar: daggerdbl
Encoding: 8225 8225 169
GlifName: daggerdbl
Width: 1024
VWidth: 0
GlyphClass: 2
Flags: W
LayerCount: 2
Fore
SplineSet
140 823 m 257,0,-1
 122 772 l 257,1,-1
 728 772 l 257,2,-1
 746 823 l 257,3,-1
 140 823 l 257,0,-1
296 1251 m 257,4,-1
 278 1200 l 257,5,-1
 884 1200 l 257,6,-1
 902 1251 l 257,7,-1
 296 1251 l 257,4,-1
686 1550 m 257,8,-1
 122 0 l 257,9,-1
 184 0 l 257,10,-1
 748 1550 l 257,11,-1
 686 1550 l 257,8,-1
EndSplineSet
EndChar

StartChar: dcaron
Encoding: 271 271 170
GlifName: dcaron
Width: 1024
VWidth: 0
GlyphClass: 2
Flags: W
LayerCount: 2
Fore
SplineSet
1042 1527 m 257,0,-1
 486 0 l 257,1,-1
 546 0 l 257,2,-1
 1102 1527 l 257,3,-1
 1042 1527 l 257,0,-1
202 1023 m 257,4,-1
 180 962 l 257,5,-1
 856 962 l 257,6,-1
 878 1023 l 257,7,-1
 202 1023 l 257,4,-1
158 1023 m 257,8,-1
 -214 0 l 257,9,-1
 -156 0 l 257,10,-1
 216 1023 l 257,11,-1
 158 1023 l 257,8,-1
-176 60 m 257,12,-1
 -198 0 l 257,13,-1
 498 0 l 257,14,-1
 520 60 l 257,15,-1
 -176 60 l 257,12,-1
1188 1496 m 257,16,-1
 1104 1264 l 257,17,-1
 1154 1264 l 257,18,-1
 1238 1496 l 257,19,-1
 1188 1496 l 257,16,-1
EndSplineSet
EndChar

StartChar: dcroat
Encoding: 273 273 171
GlifName: dcroat
Width: 1024
VWidth: 0
GlyphClass: 2
Flags: W
AnchorPoint: "top" 1170 1632 basechar 0
AnchorPoint: "base" 259 -107 basechar 0
LayerCount: 2
Fore
SplineSet
1106 1527 m 257,0,-1
 551 0 l 257,1,-1
 611 0 l 257,2,-1
 1166 1527 l 257,3,-1
 1106 1527 l 257,0,-1
253 1023 m 257,4,-1
 231 962 l 257,5,-1
 923 962 l 257,6,-1
 945 1023 l 257,7,-1
 253 1023 l 257,4,-1
221 1023 m 257,8,-1
 -151 0 l 257,9,-1
 -91 0 l 257,10,-1
 281 1023 l 257,11,-1
 221 1023 l 257,8,-1
-81 61 m 257,12,-1
 -103 0 l 257,13,-1
 563 0 l 257,14,-1
 585 61 l 257,15,-1
 -81 61 l 257,12,-1
867 1260 m 257,16,-1
 846 1202 l 257,17,-1
 1154 1202 l 257,18,-1
 1175 1260 l 257,19,-1
 867 1260 l 257,16,-1
EndSplineSet
EndChar

StartChar: degree
Encoding: 176 176 172
GlifName: degree
Width: 1024
VWidth: 0
GlyphClass: 2
Flags: W
LayerCount: 2
Fore
SplineSet
429 1439 m 257,0,-1
 679 1439 l 257,1,-1
 604 1231 l 257,2,-1
 354 1231 l 257,3,-1
 429 1439 l 257,0,-1
388 1488 m 257,4,-1
 276 1179 l 257,5,-1
 636 1179 l 257,6,-1
 748 1488 l 257,7,-1
 388 1488 l 257,4,-1
EndSplineSet
EndChar

StartChar: dieresis
Encoding: 168 168 173
GlifName: dieresis
Width: 1024
VWidth: 0
GlyphClass: 2
Flags: W
LayerCount: 2
Fore
SplineSet
353 1023 m 257,0,-1
 317 923 l 257,1,-1
 429 923 l 257,2,-1
 465 1023 l 257,3,-1
 353 1023 l 257,0,-1
595 1023 m 257,4,-1
 559 923 l 257,5,-1
 671 923 l 257,6,-1
 707 1023 l 257,7,-1
 595 1023 l 257,4,-1
EndSplineSet
EndChar

StartChar: divide
Encoding: 247 247 174
GlifName: divide
Width: 1024
VWidth: 0
GlyphClass: 2
Flags: W
LayerCount: 2
Fore
SplineSet
343 264 m 257,0,-1
 320 201 l 257,1,-1
 422 201 l 257,2,-1
 445 264 l 257,3,-1
 343 264 l 257,0,-1
641 1111 m 257,4,-1
 617 1047 l 257,5,-1
 708 1047 l 257,6,-1
 732 1111 l 257,7,-1
 641 1111 l 257,4,-1
110 662 m 257,8,-1
 88 600 l 257,9,-1
 914 600 l 257,10,-1
 936 662 l 257,11,-1
 110 662 l 257,8,-1
EndSplineSet
EndChar

StartChar: dollar
Encoding: 36 36 175
GlifName: dollar
Width: 1024
VWidth: 0
GlyphClass: 2
Flags: W
LayerCount: 2
Fore
SplineSet
479 1539 m 257,0,-1
 449 1457 l 257,1,-1
 1047 1457 l 257,2,-1
 1077 1539 l 257,3,-1
 479 1539 l 257,0,-1
480 1542 m 257,4,-1
 293 1028 l 257,5,-1
 377 1028 l 257,6,-1
 564 1542 l 257,7,-1
 480 1542 l 257,4,-1
-28 69 m 257,8,-1
 -53 0 l 257,9,-1
 655 0 l 257,10,-1
 680 69 l 257,11,-1
 -28 69 l 257,8,-1
611 0 m 257,12,-1
 691 0 l 257,13,-1
 820 355 l 257,14,-1
 740 355 l 257,15,-1
 611 0 l 257,12,-1
293 1028 m 257,16,-1
 739 355 l 257,17,-1
 820 355 l 257,18,-1
 377 1028 l 257,19,-1
 293 1028 l 257,16,-1
809 1636 m 257,20,-1
 136 -215 l 257,21,-1
 206 -215 l 257,22,-1
 879 1636 l 257,23,-1
 809 1636 l 257,20,-1
EndSplineSet
EndChar

StartChar: dotaccent
Encoding: 729 729 176
GlifName: dotaccent
Width: 1024
VWidth: 0
GlyphClass: 2
Flags: W
LayerCount: 2
Fore
SplineSet
474 1078 m 257,0,-1
 438 977 l 257,1,-1
 550 977 l 257,2,-1
 586 1078 l 257,3,-1
 474 1078 l 257,0,-1
EndSplineSet
EndChar

StartChar: dotbelowcomb
Encoding: 803 803 177
GlifName: dotbelowcomb
Width: 0
VWidth: 0
GlyphClass: 4
Flags: W
HStem: -365 75<-145.553 -145.553 -145.553 -92.8496 -92.8496 -92.8496>
AnchorPoint: "base" -108 -290 mark 0
LayerCount: 2
Fore
SplineSet
-146 -290 m 257,0,-1
 -173 -365 l 257,1,-1
 -93 -365 l 257,2,-1
 -66 -290 l 257,3,-1
 -146 -290 l 257,0,-1
EndSplineSet
PickledDataWithLists: "(dp0
Vcom.fontlab.hintData
p1
(dp2
Vhhints
p3
(lp4
(dp5
Vposition
p6
I-365
sVwidth
p7
I75
sass."
EndChar

StartChar: dotlessi
Encoding: 305 305 178
GlifName: dotlessi
Width: 1024
VWidth: 0
GlyphClass: 2
Flags: W
AnchorPoint: "top" 912 1155 basechar 0
AnchorPoint: "base" 482 -93 basechar 0
LayerCount: 2
Fore
SplineSet
853 1023 m 257,0,-1
 499 52 l 257,1,-1
 559 52 l 257,2,-1
 913 1023 l 257,3,-1
 853 1023 l 257,0,-1
133 60 m 257,4,-1
 111 0 l 257,5,-1
 853 0 l 257,6,-1
 875 60 l 257,7,-1
 133 60 l 257,4,-1
534 1023 m 257,8,-1
 511 962 l 257,9,-1
 847 962 l 257,10,-1
 870 1023 l 257,11,-1
 534 1023 l 257,8,-1
EndSplineSet
EndChar

StartChar: e
Encoding: 101 101 179
GlifName: e
Width: 1024
VWidth: 0
GlyphClass: 2
Flags: W
AnchorPoint: "top" 713 1133 basechar 0
AnchorPoint: "base" 366 -87 basechar 0
LayerCount: 2
Fore
SplineSet
404 1023 m 257,0,-1
 372 972 l 257,1,-1
 1011 972 l 257,2,-1
 1043 1023 l 257,3,-1
 404 1023 l 257,0,-1
352 1023 m 257,4,-1
 -20 0 l 257,5,-1
 38 0 l 257,6,-1
 410 1023 l 257,7,-1
 352 1023 l 257,4,-1
44 61 m 257,8,-1
 22 0 l 257,9,-1
 667 0 l 257,10,-1
 689 61 l 257,11,-1
 44 61 l 257,8,-1
185 506 m 257,12,-1
 171 446 l 257,13,-1
 800 446 l 257,14,-1
 822 506 l 257,15,-1
 185 506 l 257,12,-1
985 1023 m 257,16,-1
 775 445 l 257,17,-1
 834 445 l 257,18,-1
 1044 1023 l 257,19,-1
 985 1023 l 257,16,-1
EndSplineSet
EndChar

StartChar: eight
Encoding: 56 56 187
GlifName: eight
Width: 1024
VWidth: 0
GlyphClass: 2
Flags: W
LayerCount: 2
Fore
SplineSet
620 1550 m 257,0,-1
 56 0 l 257,1,-1
 968 0 l 257,2,-1
 1533 1550 l 257,3,-1
 620 1550 l 257,0,-1
1234 899 m 257,4,-1
 927 57 l 257,5,-1
 139 57 l 257,6,-1
 446 899 l 257,7,-1
 1234 899 l 257,4,-1
1257 959 m 257,8,-1
 467 959 l 257,9,-1
 659 1489 l 257,10,-1
 1449 1489 l 257,11,-1
 1257 959 l 257,8,-1
EndSplineSet
EndChar

StartChar: ellipsis
Encoding: 8230 8230 188
GlifName: ellipsis
Width: 1024
VWidth: 0
GlyphClass: 2
Flags: W
LayerCount: 2
Fore
SplineSet
201 114 m 257,0,-1
 159 0 l 257,1,-1
 301 0 l 257,2,-1
 343 114 l 257,3,-1
 201 114 l 257,0,-1
457 114 m 257,4,-1
 415 0 l 257,5,-1
 559 0 l 257,6,-1
 601 114 l 257,7,-1
 457 114 l 257,4,-1
723 114 m 257,8,-1
 681 0 l 257,9,-1
 823 0 l 257,10,-1
 865 114 l 257,11,-1
 723 114 l 257,8,-1
EndSplineSet
EndChar

StartChar: emdash
Encoding: 8212 8212 190
GlifName: emdash
Width: 1024
VWidth: 0
GlyphClass: 2
Flags: W
HStem: 600 51<236.944 1242.38 1242.38 1242.38>
LayerCount: 2
Fore
SplineSet
218 600 m 257,0,-1
 1242 600 l 257,1,-1
 1261 651 l 257,2,-1
 237 651 l 257,3,-1
 218 600 l 257,0,-1
EndSplineSet
PickledDataWithLists: "(dp0
Vcom.fontlab.hintData
p1
(dp2
Vhhints
p3
(lp4
(dp5
Vposition
p6
I600
sVwidth
p7
I51
sass."
EndChar

StartChar: endash
Encoding: 8211 8211 191
GlifName: endash
Width: 1024
VWidth: 0
GlyphClass: 2
Flags: W
HStem: 600 80<147 943 943 943>
LayerCount: 2
Fore
SplineSet
117 600 m 257,0,-1
 943 600 l 257,1,-1
 973 680 l 257,2,-1
 147 680 l 257,3,-1
 117 600 l 257,0,-1
EndSplineSet
PickledDataWithLists: "(dp0
Vcom.fontlab.hintData
p1
(dp2
Vhhints
p3
(lp4
(dp5
Vposition
p6
I600
sVwidth
p7
I80
sass."
EndChar

StartChar: eng
Encoding: 331 331 192
GlifName: eng
Width: 1024
VWidth: 0
GlyphClass: 2
Flags: W
AnchorPoint: "top" 724 1094 basechar 0
AnchorPoint: "base" 228 -466 basechar 0
LayerCount: 2
Fore
SplineSet
110 -366 m 257,0,-1
 90 -408 l 257,1,-1
 477 -408 l 257,2,-1
 497 -366 l 257,3,-1
 110 -366 l 257,0,-1
387 990 m 257,4,-1
 26 0 l 257,5,-1
 83 0 l 257,6,-1
 444 990 l 257,7,-1
 387 990 l 257,4,-1
922 976 m 257,8,-1
 418 -408 l 257,9,-1
 478 -408 l 257,10,-1
 982 976 l 257,11,-1
 922 976 l 257,8,-1
220 1023 m 257,12,-1
 201 970 l 257,13,-1
 979 970 l 257,14,-1
 998 1023 l 257,15,-1
 220 1023 l 257,12,-1
EndSplineSet
EndChar

StartChar: equal
Encoding: 61 61 194
GlifName: equal
Width: 1024
VWidth: 0
GlyphClass: 2
Flags: W
HStem: 450 374<403.911 403.911 403.911 1083.79 1083.79 1083.79>
LayerCount: 2
Fore
SplineSet
404 824 m 257,0,-1
 368 724 l 257,1,-1
 1184 724 l 257,2,-1
 1220 824 l 257,3,-1
 404 824 l 257,0,-1
301 540 m 257,4,-1
 268 450 l 257,5,-1
 1084 450 l 257,6,-1
 1117 540 l 257,7,-1
 301 540 l 257,4,-1
EndSplineSet
PickledDataWithLists: "(dp0
Vcom.fontlab.hintData
p1
(dp2
Vhhints
p3
(lp4
(dp5
Vposition
p6
I450
sVwidth
p7
I374
sass."
EndChar

StartChar: eth
Encoding: 240 240 195
GlifName: eth
Width: 1024
VWidth: 0
GlyphClass: 2
Flags: W
AnchorPoint: "top" 767 1633 basechar 0
AnchorPoint: "base" 503 -143 basechar 0
LayerCount: 2
Fore
SplineSet
740 1550 m 257,0,-1
 780 0 l 257,1,-1
 828 0 l 257,2,-1
 796 1550 l 257,3,-1
 740 1550 l 257,0,-1
481 1023 m 257,4,-1
 459 964 l 257,5,-1
 783 964 l 257,6,-1
 805 1023 l 257,7,-1
 481 1023 l 257,4,-1
441 1023 m 257,8,-1
 68 0 l 257,9,-1
 128 0 l 257,10,-1
 501 1023 l 257,11,-1
 441 1023 l 257,8,-1
136 59 m 257,12,-1
 114 0 l 257,13,-1
 780 0 l 257,14,-1
 802 59 l 257,15,-1
 136 59 l 257,12,-1
612 1416 m 257,16,-1
 588 1351 l 257,17,-1
 932 1351 l 257,18,-1
 956 1416 l 257,19,-1
 612 1416 l 257,16,-1
EndSplineSet
EndChar

StartChar: exclam
Encoding: 33 33 196
GlifName: exclam
Width: 1024
VWidth: 0
GlyphClass: 2
Flags: W
LayerCount: 2
Fore
SplineSet
231 9 m 257,0,-1
 298 9 l 257,1,-1
 333 107 l 257,2,-1
 266 107 l 257,3,-1
 231 9 l 257,0,-1
351 344 m 257,4,-1
 423 344 l 257,5,-1
 793 1362 l 257,6,-1
 721 1362 l 257,7,-1
 351 344 l 257,4,-1
EndSplineSet
EndChar

StartChar: exclamdown
Encoding: 161 161 197
GlifName: exclamdown
Width: 1024
VWidth: 0
GlyphClass: 2
Flags: W
LayerCount: 2
Fore
SplineSet
815 1520 m 257,0,-1
 755 1520 l 257,1,-1
 664 1272 l 257,2,-1
 724 1272 l 257,3,-1
 815 1520 l 257,0,-1
634 1035 m 257,4,-1
 580 1035 l 257,5,-1
 209 17 l 257,6,-1
 267 17 l 257,7,-1
 634 1035 l 257,4,-1
EndSplineSet
EndChar

StartChar: f
Encoding: 102 102 198
GlifName: f
Width: 1024
VWidth: 0
GlyphClass: 2
Flags: W
AnchorPoint: "top" 794 1640 basechar 0
AnchorPoint: "base" 448 -116 basechar 0
LayerCount: 2
Fore
SplineSet
604 1551 m 257,0,-1
 53 -6 l 257,1,-1
 113 -6 l 257,2,-1
 664 1551 l 257,3,-1
 604 1551 l 257,0,-1
604 1551 m 257,4,-1
 582 1491 l 257,5,-1
 980 1491 l 257,6,-1
 1002 1551 l 257,7,-1
 604 1551 l 257,4,-1
159 862 m 257,8,-1
 137 802 l 257,9,-1
 615 802 l 257,10,-1
 637 862 l 257,11,-1
 159 862 l 257,8,-1
EndSplineSet
EndChar

StartChar: five
Encoding: 53 53 199
GlifName: five
Width: 1024
VWidth: 0
GlyphClass: 2
Flags: W
LayerCount: 2
Fore
SplineSet
1233 899 m 257,0,-1
 927 58 l 257,1,-1
 69 58 l 257,2,-1
 48 0 l 257,3,-1
 966 0 l 257,4,-1
 1315 959 l 257,5,-1
 458 959 l 257,6,-1
 652 1492 l 257,7,-1
 1519 1492 l 257,8,-1
 1540 1550 l 257,9,-1
 613 1550 l 257,10,-1
 376 899 l 257,11,-1
 1233 899 l 257,0,-1
EndSplineSet
EndChar

StartChar: four
Encoding: 52 52 200
GlifName: four
Width: 1024
VWidth: 0
GlyphClass: 2
Flags: W
LayerCount: 2
Fore
SplineSet
370 761 m 257,0,-1
 1151 761 l 257,1,-1
 877 7 l 257,2,-1
 934 7 l 257,3,-1
 1495 1550 l 257,4,-1
 1435 1550 l 257,5,-1
 1170 821 l 257,6,-1
 452 821 l 257,7,-1
 717 1550 l 257,8,-1
 657 1550 l 257,9,-1
 370 761 l 257,0,-1
EndSplineSet
EndChar

StartChar: g
Encoding: 103 103 201
GlifName: g
Width: 1024
VWidth: 0
GlyphClass: 2
Flags: W
AnchorPoint: "top" 578 1176 basechar 0
AnchorPoint: "base" 570 -460 basechar 0
LayerCount: 2
Fore
SplineSet
464 1023 m 257,0,-1
 92 0 l 257,1,-1
 152 0 l 257,2,-1
 524 1023 l 257,3,-1
 464 1023 l 257,0,-1
504 1023 m 257,4,-1
 482 962 l 257,5,-1
 998 962 l 257,6,-1
 1020 1023 l 257,7,-1
 504 1023 l 257,4,-1
982 1023 m 257,8,-1
 460 -411 l 257,9,-1
 520 -411 l 257,10,-1
 1042 1023 l 257,11,-1
 982 1023 l 257,8,-1
176 58 m 257,12,-1
 155 0 l 257,13,-1
 612 0 l 257,14,-1
 633 58 l 257,15,-1
 176 58 l 257,12,-1
3 -354 m 257,16,-1
 -18 -413 l 257,17,-1
 471 -413 l 257,18,-1
 492 -354 l 257,19,-1
 3 -354 l 257,16,-1
EndSplineSet
EndChar

StartChar: germandbls
Encoding: 223 223 205
GlifName: germandbls
Width: 1024
VWidth: 0
GlyphClass: 2
Flags: W
LayerCount: 2
Fore
SplineSet
96 1084 m 257,0,-1
 74 1023 l 257,1,-1
 325 1023 l 257,2,-1
 347 1084 l 257,3,-1
 96 1084 l 257,0,-1
451 1550 m 257,4,-1
 -113 0 l 257,5,-1
 -49 0 l 257,6,-1
 515 1550 l 257,7,-1
 451 1550 l 257,4,-1
503 1550 m 257,8,-1
 481 1488 l 257,9,-1
 1088 1488 l 257,10,-1
 1110 1550 l 257,11,-1
 503 1550 l 257,8,-1
1076 1550 m 257,12,-1
 884 1023 l 257,13,-1
 945 1023 l 257,14,-1
 1137 1550 l 257,15,-1
 1076 1550 l 257,12,-1
902 1062 m 257,16,-1
 664 1062 l 257,17,-1
 579 826 l 257,18,-1
 817 826 l 257,19,-1
 902 1062 l 257,16,-1
823 848 m 257,20,-1
 578 175 l 257,21,-1
 636 175 l 257,22,-1
 881 848 l 257,23,-1
 823 848 l 257,20,-1
299 187 m 257,24,-1
 279 131 l 257,25,-1
 622 131 l 257,26,-1
 642 187 l 257,27,-1
 299 187 l 257,24,-1
EndSplineSet
EndChar

StartChar: grave
Encoding: 96 96 206
GlifName: grave
Width: 1024
VWidth: 0
GlyphClass: 2
Flags: W
LayerCount: 2
Fore
SplineSet
458 1286 m 257,0,-1
 458 1057 l 257,1,-1
 566 1112 l 257,2,-1
 557 1340 l 257,3,-1
 458 1286 l 257,0,-1
EndSplineSet
EndChar

StartChar: gravecomb
Encoding: 768 768 207
GlifName: gravecomb
Width: 0
VWidth: 0
GlyphClass: 4
Flags: W
AnchorPoint: "top" 9 784 mark 0
LayerCount: 2
Fore
SplineSet
-78 997 m 257,0,-1
 -28 793 l 257,1,-1
 52 847 l 257,2,-1
 2 1052 l 257,3,-1
 -78 997 l 257,0,-1
EndSplineSet
EndChar

StartChar: greater
Encoding: 62 62 208
GlifName: greater
Width: 1024
VWidth: 0
GlyphClass: 2
Flags: W
LayerCount: 2
Fore
SplineSet
1151 632 m 257,0,-1
 474 1013 l 257,1,-1
 452 952 l 257,2,-1
 1128 569 l 257,3,-1
 1151 632 l 257,0,-1
1151 632 m 257,4,-1
 171 186 l 257,5,-1
 147 122 l 257,6,-1
 1128 569 l 257,7,-1
 1151 632 l 257,4,-1
EndSplineSet
EndChar

StartChar: guillemotleft
Encoding: 171 171 209
GlifName: guillemotleft
Width: 1024
VWidth: 0
GlyphClass: 2
Flags: W
LayerCount: 2
Fore
SplineSet
48 509 m 257,0,-1
 34 472 l 257,1,-1
 575 757 l 257,2,-1
 585 784 l 257,3,-1
 48 509 l 257,0,-1
48 509 m 257,4,-1
 34 472 l 257,5,-1
 275 122 l 257,6,-1
 297 160 l 257,7,-1
 48 509 l 257,4,-1
472 527 m 257,8,-1
 462 498 l 257,9,-1
 975 783 l 257,10,-1
 990 823 l 257,11,-1
 472 527 l 257,8,-1
471 527 m 257,12,-1
 460 497 l 257,13,-1
 690 122 l 257,14,-1
 717 149 l 257,15,-1
 471 527 l 257,12,-1
EndSplineSet
EndChar

StartChar: guillemotright
Encoding: 187 187 210
GlifName: guillemotright
Width: 1024
VWidth: 0
GlyphClass: 2
Flags: W
LayerCount: 2
Fore
SplineSet
978 509 m 257,0,-1
 641 784 l 257,1,-1
 631 757 l 257,2,-1
 963 472 l 257,3,-1
 978 509 l 257,0,-1
978 509 m 257,4,-1
 474 160 l 257,5,-1
 469 122 l 257,6,-1
 963 472 l 257,7,-1
 978 509 l 257,4,-1
566 527 m 257,8,-1
 264 823 l 257,9,-1
 249 783 l 257,10,-1
 557 498 l 257,11,-1
 566 527 l 257,8,-1
567 527 m 257,12,-1
 46 149 l 257,13,-1
 54 122 l 257,14,-1
 556 497 l 257,15,-1
 567 527 l 257,12,-1
EndSplineSet
EndChar

StartChar: guilsinglleft
Encoding: 8249 8249 211
GlifName: guilsinglleft
Width: 1024
VWidth: 0
GlyphClass: 2
Flags: W
LayerCount: 2
Fore
SplineSet
52 652 m 257,0,-1
 22 569 l 257,1,-1
 977 946 l 257,2,-1
 1002 1013 l 257,3,-1
 52 652 l 257,0,-1
52 652 m 257,4,-1
 22 569 l 257,5,-1
 672 122 l 257,6,-1
 700 199 l 257,7,-1
 52 652 l 257,4,-1
EndSplineSet
EndChar

StartChar: guilsinglright
Encoding: 8250 8250 212
GlifName: guilsinglright
Width: 1024
VWidth: 0
GlyphClass: 2
Flags: W
LayerCount: 2
Fore
SplineSet
1014 632 m 257,0,-1
 336 1013 l 257,1,-1
 314 952 l 257,2,-1
 991 569 l 257,3,-1
 1014 632 l 257,0,-1
1014 632 m 257,4,-1
 33 186 l 257,5,-1
 10 122 l 257,6,-1
 991 569 l 257,7,-1
 1014 632 l 257,4,-1
EndSplineSet
EndChar

StartChar: h
Encoding: 104 104 213
GlifName: h
Width: 1024
VWidth: 0
GlyphClass: 2
Flags: W
AnchorPoint: "top" 590 1631 basechar 0
AnchorPoint: "base" 341 -52 basechar 0
LayerCount: 2
Fore
SplineSet
541 1525 m 257,0,-1
 -12 6 l 257,1,-1
 47 6 l 257,2,-1
 600 1525 l 257,3,-1
 541 1525 l 257,0,-1
400 1028 m 257,4,-1
 378 968 l 257,5,-1
 967 968 l 257,6,-1
 989 1028 l 257,7,-1
 400 1028 l 257,4,-1
977 1028 m 257,8,-1
 603 0 l 257,9,-1
 662 0 l 257,10,-1
 1036 1028 l 257,11,-1
 977 1028 l 257,8,-1
EndSplineSet
EndChar

StartChar: hbar
Encoding: 295 295 214
GlifName: hbar
Width: 1024
VWidth: 0
GlyphClass: 2
Flags: W
LayerCount: 2
Fore
SplineSet
548 1541 m 257,0,-1
 -11 6 l 257,1,-1
 49 6 l 257,2,-1
 608 1541 l 257,3,-1
 548 1541 l 257,0,-1
393 1023 m 257,4,-1
 372 966 l 257,5,-1
 1006 966 l 257,6,-1
 1027 1023 l 257,7,-1
 393 1023 l 257,4,-1
976 1023 m 257,8,-1
 604 0 l 257,9,-1
 663 0 l 257,10,-1
 1035 1023 l 257,11,-1
 976 1023 l 257,8,-1
371 1429 m 257,12,-1
 349 1369 l 257,13,-1
 805 1369 l 257,14,-1
 827 1429 l 257,15,-1
 371 1429 l 257,12,-1
EndSplineSet
EndChar

StartChar: hookabovecomb
Encoding: 777 777 216
GlifName: hookabovecomb
Width: 0
VWidth: 0
GlyphClass: 4
Flags: W
VStem: 346 460
AnchorPoint: "top" 9 778 mark 0
LayerCount: 2
Fore
SplineSet
100 1148 m 257,0,-1
 86 1109 l 257,1,-1
 289 1109 l 257,2,-1
 303 1148 l 257,3,-1
 100 1148 l 257,0,-1
277 1148 m 257,4,-1
 209 962 l 257,5,-1
 238 962 l 257,6,-1
 306 1148 l 257,7,-1
 277 1148 l 257,4,-1
75 973 m 257,8,-1
 62 937 l 257,9,-1
 228 937 l 257,10,-1
 241 973 l 257,11,-1
 75 973 l 257,8,-1
75 973 m 257,12,-1
 23 830 l 257,13,-1
 51 830 l 257,14,-1
 103 973 l 257,15,-1
 75 973 l 257,12,-1
EndSplineSet
PickledDataWithLists: "(dp0
Vcom.fontlab.hintData
p1
(dp2
Vvhints
p3
(lp4
(dp5
Vposition
p6
I346
sVwidth
p7
I460
sass."
EndChar

StartChar: hungarumlaut
Encoding: 733 733 217
GlifName: hungarumlaut
Width: 1024
VWidth: 0
GlyphClass: 2
Flags: W
LayerCount: 2
Fore
SplineSet
235 122 m 257,0,-1
 300 122 l 257,1,-1
 391 370 l 257,2,-1
 326 370 l 257,3,-1
 235 122 l 257,0,-1
638 122 m 257,4,-1
 698 122 l 257,5,-1
 789 370 l 257,6,-1
 729 370 l 257,7,-1
 638 122 l 257,4,-1
EndSplineSet
EndChar

StartChar: hyphen
Encoding: 45 45 218
GlifName: hyphen
Width: 1024
VWidth: 0
GlyphClass: 2
Flags: W
LayerCount: 2
Fore
SplineSet
117 793 m 257,0,-1
 81 695 l 257,1,-1
 907 695 l 257,2,-1
 943 793 l 257,3,-1
 117 793 l 257,0,-1
EndSplineSet
EndChar

StartChar: i
Encoding: 105 105 219
GlifName: i
Width: 1024
VWidth: 0
GlyphClass: 2
Flags: W
AnchorPoint: "top" 847 1405 basechar 0
AnchorPoint: "base" 548 -78 basechar 0
LayerCount: 2
Fore
SplineSet
853 1023 m 257,0,-1
 499 52 l 257,1,-1
 559 52 l 257,2,-1
 913 1023 l 257,3,-1
 853 1023 l 257,0,-1
133 60 m 257,4,-1
 111 0 l 257,5,-1
 853 0 l 257,6,-1
 875 60 l 257,7,-1
 133 60 l 257,4,-1
765 1292 m 257,8,-1
 722 1174 l 257,9,-1
 835 1174 l 257,10,-1
 878 1292 l 257,11,-1
 765 1292 l 257,8,-1
534 1023 m 257,12,-1
 511 962 l 257,13,-1
 847 962 l 257,14,-1
 870 1023 l 257,15,-1
 534 1023 l 257,12,-1
EndSplineSet
EndChar

StartChar: j
Encoding: 106 106 229
GlifName: j
Width: 1024
VWidth: 0
GlyphClass: 2
Flags: W
AnchorPoint: "top" 1111 1348 basechar 0
AnchorPoint: "base" 204 -486 basechar 0
LayerCount: 2
Fore
SplineSet
996 1023 m 257,0,-1
 474 -411 l 257,1,-1
 532 -411 l 257,2,-1
 1054 1023 l 257,3,-1
 996 1023 l 257,0,-1
-73 -348 m 257,4,-1
 -94 -406 l 257,5,-1
 496 -406 l 257,6,-1
 517 -348 l 257,7,-1
 -73 -348 l 257,4,-1
51 -6 m 257,8,-1
 -84 -378 l 257,9,-1
 -24 -378 l 257,10,-1
 111 -6 l 257,11,-1
 51 -6 l 257,8,-1
1058 1201 m 257,12,-1
 1037 1142 l 257,13,-1
 1097 1142 l 257,14,-1
 1118 1201 l 257,15,-1
 1058 1201 l 257,12,-1
EndSplineSet
EndChar

StartChar: k
Encoding: 107 107 231
GlifName: k
Width: 1024
VWidth: 0
GlyphClass: 2
Flags: W
AnchorPoint: "base" 343 -24 basechar 0
AnchorPoint: "top" 607 1638 basechar 0
LayerCount: 2
Fore
SplineSet
531 1535 m 257,0,-1
 -26 5 l 257,1,-1
 34 5 l 257,2,-1
 591 1535 l 257,3,-1
 531 1535 l 257,0,-1
174 421 m 257,4,-1
 149 352 l 257,5,-1
 1050 1023 l 257,6,-1
 990 1023 l 257,7,-1
 174 421 l 257,4,-1
491 612 m 257,8,-1
 433 569 l 257,9,-1
 783 0 l 257,10,-1
 844 0 l 257,11,-1
 491 612 l 257,8,-1
EndSplineSet
EndChar

StartChar: l
Encoding: 108 108 232
GlifName: l
Width: 1024
VWidth: 0
GlyphClass: 2
Flags: W
AnchorPoint: "base" 361 -87 basechar 0
AnchorPoint: "top" 967 1630 basechar 0
LayerCount: 2
Fore
SplineSet
82 72 m 257,0,-1
 56 0 l 257,1,-1
 690 0 l 257,2,-1
 716 72 l 257,3,-1
 82 72 l 257,0,-1
908 1553 m 257,4,-1
 364 57 l 257,5,-1
 424 57 l 257,6,-1
 968 1553 l 257,7,-1
 908 1553 l 257,4,-1
682 1553 m 257,8,-1
 661 1494 l 257,9,-1
 896 1494 l 257,10,-1
 917 1553 l 257,11,-1
 682 1553 l 257,8,-1
EndSplineSet
EndChar

StartChar: lcaron
Encoding: 318 318 234
GlifName: lcaron
Width: 1024
VWidth: 0
GlyphClass: 2
Flags: W
LayerCount: 2
Fore
SplineSet
19 62 m 257,0,-1
 -3 0 l 257,1,-1
 631 0 l 257,2,-1
 653 62 l 257,3,-1
 19 62 l 257,0,-1
857 1550 m 257,4,-1
 309 46 l 257,5,-1
 367 46 l 257,6,-1
 915 1550 l 257,7,-1
 857 1550 l 257,4,-1
559 1550 m 257,8,-1
 537 1489 l 257,9,-1
 849 1489 l 257,10,-1
 871 1550 l 257,11,-1
 559 1550 l 257,8,-1
975 1496 m 257,12,-1
 891 1264 l 257,13,-1
 943 1264 l 257,14,-1
 1027 1496 l 257,15,-1
 975 1496 l 257,12,-1
EndSplineSet
EndChar

StartChar: less
Encoding: 60 60 236
GlifName: less
Width: 1024
VWidth: 0
GlyphClass: 2
Flags: W
LayerCount: 2
Fore
SplineSet
340 652 m 257,0,-1
 310 569 l 257,1,-1
 1265 946 l 257,2,-1
 1290 1013 l 257,3,-1
 340 652 l 257,0,-1
340 652 m 257,4,-1
 310 569 l 257,5,-1
 959 122 l 257,6,-1
 987 199 l 257,7,-1
 340 652 l 257,4,-1
EndSplineSet
EndChar

StartChar: logicalnot
Encoding: 172 172 237
GlifName: logicalnot
Width: 1024
VWidth: 0
GlyphClass: 2
Flags: W
LayerCount: 2
Fore
SplineSet
740 935 m 257,0,-1
 633 640 l 257,1,-1
 686 640 l 257,2,-1
 793 935 l 257,3,-1
 740 935 l 257,0,-1
253 935 m 257,4,-1
 231 875 l 257,5,-1
 765 875 l 257,6,-1
 787 935 l 257,7,-1
 253 935 l 257,4,-1
EndSplineSet
EndChar

StartChar: lslash
Encoding: 322 322 238
GlifName: lslash
Width: 1024
VWidth: 0
GlyphClass: 2
Flags: W
LayerCount: 2
Fore
SplineSet
-16 60 m 257,0,-1
 -38 0 l 257,1,-1
 596 0 l 257,2,-1
 618 60 l 257,3,-1
 -16 60 l 257,0,-1
884 1553 m 257,4,-1
 327 22 l 257,5,-1
 387 22 l 257,6,-1
 944 1553 l 257,7,-1
 884 1553 l 257,4,-1
588 1553 m 257,8,-1
 566 1493 l 257,9,-1
 888 1493 l 257,10,-1
 910 1553 l 257,11,-1
 588 1553 l 257,8,-1
960 1039 m 257,12,-1
 258 702 l 257,13,-1
 360 702 l 257,14,-1
 1062 1039 l 257,15,-1
 960 1039 l 257,12,-1
EndSplineSet
EndChar

StartChar: m
Encoding: 109 109 239
GlifName: m
Width: 1024
VWidth: 0
GlyphClass: 2
Flags: W
AnchorPoint: "base" 307 -108 basechar 0
AnchorPoint: "top" 715 1116 basechar 0
LayerCount: 2
Fore
SplineSet
272 993 m 257,0,-1
 -89 0 l 257,1,-1
 -29 0 l 257,2,-1
 332 993 l 257,3,-1
 272 993 l 257,0,-1
649 972 m 257,4,-1
 295 0 l 257,5,-1
 355 0 l 257,6,-1
 709 972 l 257,7,-1
 649 972 l 257,4,-1
1036 976 m 257,8,-1
 681 0 l 257,9,-1
 741 0 l 257,10,-1
 1096 976 l 257,11,-1
 1036 976 l 257,8,-1
209 1023 m 257,12,-1
 188 966 l 257,13,-1
 1092 966 l 257,14,-1
 1113 1023 l 257,15,-1
 209 1023 l 257,12,-1
EndSplineSet
EndChar

StartChar: macron
Encoding: 175 175 240
GlifName: macron
Width: 1024
VWidth: 0
GlyphClass: 2
Flags: W
LayerCount: 2
Fore
SplineSet
240 1015 m 257,0,-1
 224 970 l 257,1,-1
 784 970 l 257,2,-1
 800 1015 l 257,3,-1
 240 1015 l 257,0,-1
EndSplineSet
EndChar

StartChar: mu
Encoding: 181 181 242
GlifName: mu
Width: 1024
VWidth: 0
GlyphClass: 2
Flags: W
LayerCount: 2
Fore
SplineSet
1022 935 m 257,0,-1
 682 0 l 257,1,-1
 742 0 l 257,2,-1
 1082 935 l 257,3,-1
 1022 935 l 257,0,-1
166 60 m 257,4,-1
 144 0 l 257,5,-1
 712 0 l 257,6,-1
 734 60 l 257,7,-1
 166 60 l 257,4,-1
438 935 m 257,8,-1
 -58 -430 l 257,9,-1
 4 -430 l 257,10,-1
 500 935 l 257,11,-1
 438 935 l 257,8,-1
EndSplineSet
EndChar

StartChar: multiply
Encoding: 215 215 243
GlifName: multiply
Width: 1024
VWidth: 0
GlyphClass: 2
Flags: W
LayerCount: 2
Fore
SplineSet
-87 295 m 257,0,-1
 9 295 l 257,1,-1
 1111 1323 l 257,2,-1
 1029 1323 l 257,3,-1
 -87 295 l 257,0,-1
285 1322 m 257,4,-1
 656 288 l 257,5,-1
 744 288 l 257,6,-1
 369 1322 l 257,7,-1
 285 1322 l 257,4,-1
EndSplineSet
EndChar

StartChar: n
Encoding: 110 110 244
GlifName: n
Width: 1024
VWidth: 0
GlyphClass: 2
Flags: W
AnchorPoint: "base" 295 -57 basechar 0
AnchorPoint: "top" 720 1113 basechar 0
LayerCount: 2
Fore
SplineSet
387 990 m 257,0,-1
 27 0 l 257,1,-1
 88 0 l 257,2,-1
 448 990 l 257,3,-1
 387 990 l 257,0,-1
922 976 m 257,4,-1
 567 0 l 257,5,-1
 627 0 l 257,6,-1
 982 976 l 257,7,-1
 922 976 l 257,4,-1
219 1023 m 257,8,-1
 199 967 l 257,9,-1
 977 967 l 257,10,-1
 997 1023 l 257,11,-1
 219 1023 l 257,8,-1
EndSplineSet
EndChar

StartChar: nine
Encoding: 57 57 247
GlifName: nine
Width: 1024
VWidth: 0
GlyphClass: 2
Flags: W
LayerCount: 2
Fore
SplineSet
1192 759 m 257,0,-1
 937 59 l 257,1,-1
 95 59 l 257,2,-1
 74 0 l 257,3,-1
 972 0 l 257,4,-1
 1537 1553 l 257,5,-1
 617 1553 l 257,6,-1
 613 1541 l 257,7,-1
 328 759 l 257,8,-1
 1192 759 l 257,0,-1
1211 818 m 257,9,-1
 410 818 l 257,10,-1
 656 1495 l 257,11,-1
 1457 1495 l 257,12,-1
 1211 818 l 257,9,-1
EndSplineSet
EndChar

StartChar: numbersign
Encoding: 35 35 249
GlifName: numbersign
Width: 1024
VWidth: 0
GlyphClass: 2
Flags: W
LayerCount: 2
Fore
SplineSet
407 1184 m 257,0,-1
 13 99 l 257,1,-1
 72 99 l 257,2,-1
 466 1184 l 257,3,-1
 407 1184 l 257,0,-1
905 1192 m 257,4,-1
 506 95 l 257,5,-1
 577 95 l 257,6,-1
 976 1192 l 257,7,-1
 905 1192 l 257,4,-1
215 995 m 257,8,-1
 194 937 l 257,9,-1
 995 937 l 257,10,-1
 1016 995 l 257,11,-1
 215 995 l 257,8,-1
36 493 m 257,12,-1
 8 417 l 257,13,-1
 818 417 l 257,14,-1
 846 493 l 257,15,-1
 36 493 l 257,12,-1
EndSplineSet
EndChar

StartChar: o
Encoding: 111 111 250
GlifName: o
Width: 1024
VWidth: 0
GlyphClass: 2
Flags: W
AnchorPoint: "top" 744 1128 basechar 0
AnchorPoint: "base" 335 -50 basechar 0
LayerCount: 2
Fore
SplineSet
289 1023 m 257,0,-1
 -83 0 l 257,1,-1
 -24 0 l 257,2,-1
 348 1023 l 257,3,-1
 289 1023 l 257,0,-1
1046 1023 m 257,4,-1
 674 0 l 257,5,-1
 735 0 l 257,6,-1
 1107 1023 l 257,7,-1
 1046 1023 l 257,4,-1
350 1023 m 257,8,-1
 330 967 l 257,9,-1
 1031 967 l 257,10,-1
 1051 1023 l 257,11,-1
 350 1023 l 257,8,-1
-15 62 m 257,12,-1
 -37 0 l 257,13,-1
 682 0 l 257,14,-1
 704 62 l 257,15,-1
 -15 62 l 257,12,-1
EndSplineSet
EndChar

StartChar: oe
Encoding: 339 339 255
GlifName: oe
Width: 1024
VWidth: 0
GlyphClass: 2
Flags: W
AnchorPoint: "top" 780 1183 basechar 0
AnchorPoint: "base" 388 -97 basechar 0
LayerCount: 2
Fore
SplineSet
589 506 m 257,0,-1
 568 446 l 257,1,-1
 868 446 l 257,2,-1
 889 506 l 257,3,-1
 589 506 l 257,0,-1
1053 1023 m 257,4,-1
 842 445 l 257,5,-1
 901 445 l 257,6,-1
 1112 1023 l 257,7,-1
 1053 1023 l 257,4,-1
284 1023 m 257,8,-1
 -89 0 l 257,9,-1
 -30 0 l 257,10,-1
 343 1023 l 257,11,-1
 284 1023 l 257,8,-1
739 1023 m 257,12,-1
 366 0 l 257,13,-1
 427 0 l 257,14,-1
 800 1023 l 257,15,-1
 739 1023 l 257,12,-1
339 1023 m 257,16,-1
 317 964 l 257,17,-1
 1091 964 l 257,18,-1
 1113 1023 l 257,19,-1
 339 1023 l 257,16,-1
-20 62 m 257,20,-1
 -43 0 l 257,21,-1
 749 0 l 257,22,-1
 772 62 l 257,23,-1
 -20 62 l 257,20,-1
EndSplineSet
EndChar

StartChar: ogonek
Encoding: 731 731 256
GlifName: ogonek
Width: 1024
VWidth: 0
GlyphClass: 2
Flags: W
LayerCount: 2
Fore
SplineSet
188 -300 m 257,0,-1
 166 -360 l 257,1,-1
 707 -360 l 257,2,-1
 729 -300 l 257,3,-1
 188 -300 l 257,0,-1
316 51 m 257,4,-1
 166 -360 l 257,5,-1
 226 -360 l 257,6,-1
 376 51 l 257,7,-1
 316 51 l 257,4,-1
316 51 m 257,8,-1
 294 -8 l 257,9,-1
 836 -8 l 257,10,-1
 858 51 l 257,11,-1
 316 51 l 257,8,-1
EndSplineSet
EndChar

StartChar: one
Encoding: 49 49 261
GlifName: one
Width: 1024
VWidth: 0
GlyphClass: 2
Flags: W
LayerCount: 2
Fore
SplineSet
542 0 m 257,0,-1
 602 0 l 257,1,-1
 1166 1550 l 257,2,-1
 1106 1550 l 257,3,-1
 542 0 l 257,0,-1
1106 1550 m 257,4,-1
 942 1426 l 257,5,-1
 982 1398 l 257,6,-1
 1166 1550 l 257,7,-1
 1106 1550 l 257,4,-1
EndSplineSet
EndChar

StartChar: onehalf
Encoding: 189 189 262
GlifName: onehalf
Width: 1024
VWidth: 0
GlyphClass: 2
Flags: W
LayerCount: 2
Fore
SplineSet
1022 1480 m 257,0,-1
 -101 10 l 257,1,-1
 2 10 l 257,2,-1
 1125 1480 l 257,3,-1
 1022 1480 l 257,0,-1
466 1017 m 257,4,-1
 530 1017 l 257,5,-1
 724 1550 l 257,6,-1
 660 1550 l 257,7,-1
 466 1017 l 257,4,-1
660 1550 m 257,8,-1
 518 1508 l 257,9,-1
 568 1498 l 257,10,-1
 724 1550 l 257,11,-1
 660 1550 l 257,8,-1
631 623 m 257,12,-1
 921 623 l 257,13,-1
 833 381 l 257,14,-1
 546 381 l 257,15,-1
 407 0 l 257,16,-1
 712 0 l 257,17,-1
 721 25 l 257,18,-1
 439 25 l 257,19,-1
 559 356 l 257,20,-1
 846 356 l 257,21,-1
 953 648 l 257,22,-1
 640 648 l 257,23,-1
 631 623 l 257,12,-1
EndSplineSet
EndChar

StartChar: onequarter
Encoding: 188 188 263
GlifName: onequarter
Width: 1024
VWidth: 0
GlyphClass: 2
Flags: W
LayerCount: 2
Fore
SplineSet
1022 1480 m 257,0,-1
 -101 10 l 257,1,-1
 2 10 l 257,2,-1
 1125 1480 l 257,3,-1
 1022 1480 l 257,0,-1
504 1045 m 257,4,-1
 558 1045 l 257,5,-1
 742 1550 l 257,6,-1
 688 1550 l 257,7,-1
 504 1045 l 257,4,-1
693 1550 m 257,8,-1
 539 1428 l 257,9,-1
 545 1391 l 257,10,-1
 719 1541 l 257,11,-1
 693 1550 l 257,8,-1
523 379 m 257,12,-1
 862 379 l 257,13,-1
 726 7 l 257,14,-1
 751 7 l 257,15,-1
 1028 768 l 257,16,-1
 1002 768 l 257,17,-1
 872 409 l 257,18,-1
 560 409 l 257,19,-1
 691 770 l 257,20,-1
 665 770 l 257,21,-1
 523 379 l 257,12,-1
EndSplineSet
EndChar

StartChar: ordfeminine
Encoding: 170 170 264
GlifName: ordfeminine
Width: 1024
VWidth: 0
GlyphClass: 2
Flags: W
LayerCount: 2
Fore
SplineSet
459 1319 m 257,0,-1
 435 1252 l 257,1,-1
 1084 1252 l 257,2,-1
 1108 1319 l 257,3,-1
 459 1319 l 257,0,-1
1071 1320 m 257,4,-1
 698 296 l 257,5,-1
 775 296 l 257,6,-1
 1148 1320 l 257,7,-1
 1071 1320 l 257,4,-1
308 895 m 257,8,-1
 285 833 l 257,9,-1
 909 833 l 257,10,-1
 932 895 l 257,11,-1
 308 895 l 257,8,-1
301 872 m 257,12,-1
 90 294 l 257,13,-1
 161 294 l 257,14,-1
 372 872 l 257,15,-1
 301 872 l 257,12,-1
127 369 m 257,16,-1
 99 294 l 257,17,-1
 763 294 l 257,18,-1
 791 369 l 257,19,-1
 127 369 l 257,16,-1
-99 67 m 257,20,-1
 -124 0 l 257,21,-1
 744 0 l 257,22,-1
 769 67 l 257,23,-1
 -99 67 l 257,20,-1
EndSplineSet
EndChar

StartChar: ordmasculine
Encoding: 186 186 265
GlifName: ordmasculine
Width: 1024
VWidth: 0
GlyphClass: 2
Flags: W
LayerCount: 2
Fore
SplineSet
368 1023 m 257,0,-1
 -4 0 l 257,1,-1
 55 0 l 257,2,-1
 427 1023 l 257,3,-1
 368 1023 l 257,0,-1
1125 1023 m 257,4,-1
 753 0 l 257,5,-1
 814 0 l 257,6,-1
 1186 1023 l 257,7,-1
 1125 1023 l 257,4,-1
429 1023 m 257,8,-1
 409 967 l 257,9,-1
 1110 967 l 257,10,-1
 1130 1023 l 257,11,-1
 429 1023 l 257,8,-1
64 62 m 257,12,-1
 42 0 l 257,13,-1
 761 0 l 257,14,-1
 783 62 l 257,15,-1
 64 62 l 257,12,-1
-138 -70 m 257,16,-1
 -162 -136 l 257,17,-1
 862 -136 l 257,18,-1
 886 -70 l 257,19,-1
 -138 -70 l 257,16,-1
EndSplineSet
EndChar

StartChar: oslash
Encoding: 248 248 266
GlifName: oslash
Width: 1024
VWidth: 0
GlyphClass: 2
Flags: W
AnchorPoint: "top" 786 1110 basechar 0
AnchorPoint: "base" 326 -131 basechar 0
LayerCount: 2
Fore
SplineSet
1137 1125 m 257,0,-1
 -136 -36 l 257,1,-1
 -108 -70 l 257,2,-1
 1160 1073 l 257,3,-1
 1137 1125 l 257,0,-1
284 1023 m 257,4,-1
 -89 0 l 257,5,-1
 -29 0 l 257,6,-1
 344 1023 l 257,7,-1
 284 1023 l 257,4,-1
1040 1023 m 257,8,-1
 667 0 l 257,9,-1
 727 0 l 257,10,-1
 1100 1023 l 257,11,-1
 1040 1023 l 257,8,-1
326 1023 m 257,12,-1
 304 963 l 257,13,-1
 1050 963 l 257,14,-1
 1072 1023 l 257,15,-1
 326 1023 l 257,12,-1
-22 63 m 257,16,-1
 -45 0 l 257,17,-1
 703 0 l 257,18,-1
 726 63 l 257,19,-1
 -22 63 l 257,16,-1
EndSplineSet
EndChar

StartChar: p
Encoding: 112 112 269
GlifName: p
Width: 1024
VWidth: 0
GlyphClass: 2
Flags: W
AnchorPoint: "base" -53 -465 basechar 0
AnchorPoint: "top" 859 1232 basechar 0
LayerCount: 2
Fore
SplineSet
510 1181 m 257,0,-1
 -68 -406 l 257,1,-1
 -8 -406 l 257,2,-1
 570 1181 l 257,3,-1
 510 1181 l 257,0,-1
496 1023 m 257,4,-1
 475 964 l 257,5,-1
 1061 964 l 257,6,-1
 1082 1023 l 257,7,-1
 496 1023 l 257,4,-1
148 61 m 257,8,-1
 126 0 l 257,9,-1
 722 0 l 257,10,-1
 744 61 l 257,11,-1
 148 61 l 257,8,-1
1034 1023 m 257,12,-1
 662 0 l 257,13,-1
 720 0 l 257,14,-1
 1092 1023 l 257,15,-1
 1034 1023 l 257,12,-1
EndSplineSet
EndChar

StartChar: paragraph
Encoding: 182 182 270
GlifName: paragraph
Width: 1024
VWidth: 0
GlyphClass: 2
Flags: W
LayerCount: 2
Fore
SplineSet
9 1044 m 257,0,-1
 -13 985 l 257,1,-1
 551 985 l 257,2,-1
 573 1044 l 257,3,-1
 9 1044 l 257,0,-1
193 1550 m 257,4,-1
 -7 1000 l 257,5,-1
 55 1000 l 257,6,-1
 255 1550 l 257,7,-1
 193 1550 l 257,4,-1
193 1550 m 257,8,-1
 172 1493 l 257,9,-1
 992 1493 l 257,10,-1
 1013 1550 l 257,11,-1
 193 1550 l 257,8,-1
743 1550 m 257,12,-1
 179 0 l 257,13,-1
 243 0 l 257,14,-1
 807 1550 l 257,15,-1
 743 1550 l 257,12,-1
975 1550 m 257,16,-1
 411 0 l 257,17,-1
 473 0 l 257,18,-1
 1037 1550 l 257,19,-1
 975 1550 l 257,16,-1
EndSplineSet
EndChar

StartChar: parenleft
Encoding: 40 40 271
GlifName: parenleft
Width: 1024
VWidth: 0
GlyphClass: 2
Flags: W
LayerCount: 2
Fore
SplineSet
359 1023 m 257,0,-1
 51 179 l 257,1,-1
 179 179 l 257,2,-1
 487 1023 l 257,3,-1
 359 1023 l 257,0,-1
946 1636 m 257,4,-1
 359 1023 l 257,5,-1
 487 1023 l 257,6,-1
 973 1633 l 257,7,-1
 946 1636 l 257,4,-1
51 179 m 257,8,-1
 212 -309 l 257,9,-1
 240 -309 l 257,10,-1
 179 179 l 257,11,-1
 51 179 l 257,8,-1
EndSplineSet
EndChar

StartChar: parenright
Encoding: 41 41 272
GlifName: parenright
Width: 1024
VWidth: 0
GlyphClass: 2
Flags: W
LayerCount: 2
Fore
SplineSet
792 1023 m 257,0,-1
 485 179 l 257,1,-1
 613 179 l 257,2,-1
 920 1023 l 257,3,-1
 792 1023 l 257,0,-1
811 1635 m 257,4,-1
 792 1023 l 257,5,-1
 920 1023 l 257,6,-1
 849 1635 l 257,7,-1
 811 1635 l 257,4,-1
485 179 m 257,8,-1
 104 -309 l 257,9,-1
 132 -309 l 257,10,-1
 613 179 l 257,11,-1
 485 179 l 257,8,-1
EndSplineSet
EndChar

StartChar: percent
Encoding: 37 37 273
GlifName: percent
Width: 1024
VWidth: 0
GlyphClass: 2
Flags: W
LayerCount: 2
Fore
SplineSet
64 444 m 257,0,-1
 83 417 l 257,1,-1
 960 775 l 257,2,-1
 951 801 l 257,3,-1
 64 444 l 257,0,-1
426 1148 m 257,4,-1
 300 803 l 257,5,-1
 331 803 l 257,6,-1
 457 1148 l 257,7,-1
 426 1148 l 257,4,-1
427 1152 m 257,8,-1
 418 1126 l 257,9,-1
 765 1126 l 257,10,-1
 774 1152 l 257,11,-1
 427 1152 l 257,8,-1
309 826 m 257,12,-1
 295 789 l 257,13,-1
 639 789 l 257,14,-1
 653 826 l 257,15,-1
 309 826 l 257,12,-1
738 1152 m 257,16,-1
 607 791 l 257,17,-1
 643 791 l 257,18,-1
 774 1152 l 257,19,-1
 738 1152 l 257,16,-1
494 436 m 257,20,-1
 369 94 l 257,21,-1
 412 94 l 257,22,-1
 537 436 l 257,23,-1
 494 436 l 257,20,-1
495 440 m 257,24,-1
 480 397 l 257,25,-1
 827 397 l 257,26,-1
 842 440 l 257,27,-1
 495 440 l 257,24,-1
375 109 m 257,28,-1
 363 77 l 257,29,-1
 707 77 l 257,30,-1
 719 109 l 257,31,-1
 375 109 l 257,28,-1
808 440 m 257,32,-1
 677 79 l 257,33,-1
 711 79 l 257,34,-1
 842 440 l 257,35,-1
 808 440 l 257,32,-1
EndSplineSet
EndChar

StartChar: period
Encoding: 46 46 274
GlifName: period
Width: 1024
VWidth: 0
GlyphClass: 2
Flags: W
HStem: 0 113<481.129 481.129 481.129 584 584 584>
LayerCount: 2
Fore
SplineSet
481 113 m 257,0,-1
 440 0 l 257,1,-1
 584 0 l 257,2,-1
 625 113 l 257,3,-1
 481 113 l 257,0,-1
EndSplineSet
PickledDataWithLists: "(dp0
Vcom.fontlab.hintData
p1
(dp2
Vhhints
p3
(lp4
(dp5
Vposition
p6
I0
sVwidth
p7
I113
sass."
EndChar

StartChar: periodcentered
Encoding: 183 183 275
GlifName: periodcentered
Width: 1024
VWidth: 0
GlyphClass: 2
Flags: W
LayerCount: 2
Fore
SplineSet
482 1056 m 257,0,-1
 446 955 l 257,1,-1
 542 955 l 257,2,-1
 578 1056 l 257,3,-1
 482 1056 l 257,0,-1
EndSplineSet
EndChar

StartChar: perthousand
Encoding: 8240 8240 276
GlifName: perthousand
Width: 1024
VWidth: 0
GlyphClass: 2
Flags: W
LayerCount: 2
Fore
SplineSet
643 436 m 257,0,-1
 524 110 l 257,1,-1
 568 110 l 257,2,-1
 687 436 l 257,3,-1
 643 436 l 257,0,-1
644 440 m 257,4,-1
 625 386 l 257,5,-1
 971 386 l 257,6,-1
 990 440 l 257,7,-1
 644 440 l 257,4,-1
530 125 m 257,8,-1
 512 77 l 257,9,-1
 856 77 l 257,10,-1
 874 125 l 257,11,-1
 530 125 l 257,8,-1
942 440 m 257,12,-1
 811 79 l 257,13,-1
 859 79 l 257,14,-1
 990 440 l 257,15,-1
 942 440 l 257,12,-1
28 522 m 257,16,-1
 49 463 l 257,17,-1
 996 802 l 257,18,-1
 973 860 l 257,19,-1
 28 522 l 257,16,-1
396 1148 m 257,20,-1
 277 822 l 257,21,-1
 321 822 l 257,22,-1
 440 1148 l 257,23,-1
 396 1148 l 257,20,-1
397 1152 m 257,24,-1
 376 1092 l 257,25,-1
 722 1092 l 257,26,-1
 743 1152 l 257,27,-1
 397 1152 l 257,24,-1
283 837 m 257,28,-1
 265 789 l 257,29,-1
 609 789 l 257,30,-1
 627 837 l 257,31,-1
 283 837 l 257,28,-1
697 1152 m 257,32,-1
 566 791 l 257,33,-1
 612 791 l 257,34,-1
 743 1152 l 257,35,-1
 697 1152 l 257,32,-1
241 436 m 257,36,-1
 122 110 l 257,37,-1
 168 110 l 257,38,-1
 287 436 l 257,39,-1
 241 436 l 257,36,-1
242 440 m 257,40,-1
 223 386 l 257,41,-1
 571 386 l 257,42,-1
 590 440 l 257,43,-1
 242 440 l 257,40,-1
128 125 m 257,44,-1
 110 77 l 257,45,-1
 454 77 l 257,46,-1
 472 125 l 257,47,-1
 128 125 l 257,44,-1
542 440 m 257,48,-1
 411 79 l 257,49,-1
 459 79 l 257,50,-1
 590 440 l 257,51,-1
 542 440 l 257,48,-1
EndSplineSet
EndChar

StartChar: plus
Encoding: 43 43 277
GlifName: plus
Width: 1024
VWidth: 0
GlyphClass: 2
Flags: W
LayerCount: 2
Fore
SplineSet
607 1221 m 257,0,-1
 223 165 l 257,1,-1
 333 165 l 257,2,-1
 717 1221 l 257,3,-1
 607 1221 l 257,0,-1
80 796 m 257,4,-1
 42 693 l 257,5,-1
 944 693 l 257,6,-1
 982 796 l 257,7,-1
 80 796 l 257,4,-1
EndSplineSet
EndChar

StartChar: plusminus
Encoding: 177 177 278
GlifName: plusminus
Width: 1024
VWidth: 0
GlyphClass: 2
Flags: W
LayerCount: 2
Fore
SplineSet
-24 110 m 257,0,-1
 -47 48 l 257,1,-1
 779 48 l 257,2,-1
 802 110 l 257,3,-1
 -24 110 l 257,0,-1
747 1221 m 257,4,-1
 386 228 l 257,5,-1
 447 228 l 257,6,-1
 808 1221 l 257,7,-1
 747 1221 l 257,4,-1
169 744 m 257,8,-1
 148 686 l 257,9,-1
 1050 686 l 257,10,-1
 1071 744 l 257,11,-1
 169 744 l 257,8,-1
EndSplineSet
EndChar

StartChar: q
Encoding: 113 113 279
GlifName: q
Width: 1024
VWidth: 0
GlyphClass: 2
Flags: W
AnchorPoint: "top" 1039 1300 basechar 0
AnchorPoint: "base" 457 -496 basechar 0
LayerCount: 2
Fore
SplineSet
1004 1188 m 257,0,-1
 424 -406 l 257,1,-1
 484 -406 l 257,2,-1
 1064 1188 l 257,3,-1
 1004 1188 l 257,0,-1
340 1023 m 257,4,-1
 318 961 l 257,5,-1
 966 961 l 257,6,-1
 988 1023 l 257,7,-1
 340 1023 l 257,4,-1
-5 57 m 257,8,-1
 -26 0 l 257,9,-1
 590 0 l 257,10,-1
 611 57 l 257,11,-1
 -5 57 l 257,8,-1
332 1023 m 257,12,-1
 -40 0 l 257,13,-1
 18 0 l 257,14,-1
 390 1023 l 257,15,-1
 332 1023 l 257,12,-1
451 -344 m 257,16,-1
 428 -406 l 257,17,-1
 560 -406 l 257,18,-1
 583 -344 l 257,19,-1
 451 -344 l 257,16,-1
EndSplineSet
EndChar

StartChar: question
Encoding: 63 63 280
GlifName: question
Width: 1024
VWidth: 0
GlyphClass: 2
Flags: W
LayerCount: 2
Fore
SplineSet
417 134 m 257,0,-1
 368 0 l 257,1,-1
 480 0 l 257,2,-1
 529 134 l 257,3,-1
 417 134 l 257,0,-1
745 1519 m 257,4,-1
 711 1426 l 257,5,-1
 1347 1426 l 257,6,-1
 1381 1519 l 257,7,-1
 745 1519 l 257,4,-1
1297 1514 m 257,8,-1
 1098 966 l 257,9,-1
 1184 966 l 257,10,-1
 1383 1514 l 257,11,-1
 1297 1514 l 257,8,-1
737 1015 m 257,12,-1
 713 948 l 257,13,-1
 1177 948 l 257,14,-1
 1201 1015 l 257,15,-1
 737 1015 l 257,12,-1
736 1011 m 257,16,-1
 511 392 l 257,17,-1
 607 392 l 257,18,-1
 832 1011 l 257,19,-1
 736 1011 l 257,16,-1
EndSplineSet
EndChar

StartChar: questiondown
Encoding: 191 191 281
GlifName: questiondown
Width: 1024
VWidth: 0
GlyphClass: 2
Flags: W
LayerCount: 2
Fore
SplineSet
930 1273 m 257,0,-1
 1020 1519 l 257,1,-1
 962 1519 l 257,2,-1
 872 1272 l 257,3,-1
 930 1273 l 257,0,-1
643 0 m 257,4,-1
 665 61 l 257,5,-1
 29 61 l 257,6,-1
 7 0 l 257,7,-1
 643 0 l 257,4,-1
64 5 m 257,8,-1
 264 553 l 257,9,-1
 204 553 l 257,10,-1
 4 5 l 257,11,-1
 64 5 l 257,8,-1
650 504 m 257,12,-1
 673 566 l 257,13,-1
 209 566 l 257,14,-1
 186 504 l 257,15,-1
 650 504 l 257,12,-1
652 508 m 257,16,-1
 877 1127 l 257,17,-1
 819 1127 l 257,18,-1
 594 508 l 257,19,-1
 652 508 l 257,16,-1
EndSplineSet
EndChar

StartChar: quotedbl
Encoding: 34 34 282
GlifName: quotedbl
Width: 1024
VWidth: 0
GlyphClass: 2
Flags: W
LayerCount: 2
Fore
SplineSet
235 1326 m 257,0,-1
 301 1326 l 257,1,-1
 391 1574 l 257,2,-1
 325 1574 l 257,3,-1
 235 1326 l 257,0,-1
639 1326 m 257,4,-1
 699 1326 l 257,5,-1
 789 1574 l 257,6,-1
 729 1574 l 257,7,-1
 639 1326 l 257,4,-1
EndSplineSet
EndChar

StartChar: quotedblbase
Encoding: 8222 8222 283
GlifName: quotedblbase
Width: 1024
VWidth: 0
GlyphClass: 2
Flags: W
LayerCount: 2
Fore
SplineSet
424 126 m 257,0,-1
 381 8 l 257,1,-1
 490 8 l 257,2,-1
 533 126 l 257,3,-1
 424 126 l 257,0,-1
381 8 m 257,4,-1
 266 -118 l 257,5,-1
 316 -129 l 257,6,-1
 490 8 l 257,7,-1
 381 8 l 257,4,-1
649 126 m 257,8,-1
 606 8 l 257,9,-1
 715 8 l 257,10,-1
 758 126 l 257,11,-1
 649 126 l 257,8,-1
606 8 m 257,12,-1
 491 -118 l 257,13,-1
 541 -129 l 257,14,-1
 715 8 l 257,15,-1
 606 8 l 257,12,-1
EndSplineSet
EndChar

StartChar: quotedblleft
Encoding: 8220 8220 284
GlifName: quotedblleft
Width: 1024
VWidth: 0
GlyphClass: 2
Flags: W
LayerCount: 2
Fore
SplineSet
450 1953 m 257,0,-1
 492 2067 l 257,1,-1
 368 2067 l 257,2,-1
 326 1953 l 257,3,-1
 450 1953 l 257,0,-1
420 2004 m 257,4,-1
 530 2144 l 257,5,-1
 469 2174 l 257,6,-1
 369 2069 l 257,7,-1
 420 2004 l 257,4,-1
618 1953 m 257,8,-1
 660 2067 l 257,9,-1
 536 2067 l 257,10,-1
 494 1953 l 257,11,-1
 618 1953 l 257,8,-1
588 2004 m 257,12,-1
 698 2144 l 257,13,-1
 637 2174 l 257,14,-1
 537 2069 l 257,15,-1
 588 2004 l 257,12,-1
EndSplineSet
EndChar

StartChar: quotedblright
Encoding: 8221 8221 285
GlifName: quotedblright
Width: 1024
VWidth: 0
GlyphClass: 2
Flags: W
LayerCount: 2
Fore
SplineSet
569 2174 m 257,0,-1
 527 2060 l 257,1,-1
 651 2060 l 257,2,-1
 693 2174 l 257,3,-1
 569 2174 l 257,0,-1
600 2123 m 257,4,-1
 490 1983 l 257,5,-1
 550 1953 l 257,6,-1
 650 2058 l 257,7,-1
 600 2123 l 257,4,-1
410 2174 m 257,8,-1
 368 2060 l 257,9,-1
 492 2060 l 257,10,-1
 534 2174 l 257,11,-1
 410 2174 l 257,8,-1
441 2123 m 257,12,-1
 331 1983 l 257,13,-1
 391 1953 l 257,14,-1
 491 2058 l 257,15,-1
 441 2123 l 257,12,-1
EndSplineSet
EndChar

StartChar: quoteleft
Encoding: 8216 8216 286
GlifName: quoteleft
Width: 1024
VWidth: 0
GlyphClass: 2
Flags: W
LayerCount: 2
Fore
SplineSet
496 1913 m 257,0,-1
 556 2078 l 257,1,-1
 424 2078 l 257,2,-1
 365 1917 l 257,3,-1
 496 1913 l 257,0,-1
517 2066 m 257,4,-1
 659 2275 l 257,5,-1
 592 2285 l 257,6,-1
 422 2054 l 257,7,-1
 517 2066 l 257,4,-1
EndSplineSet
EndChar

StartChar: quoteright
Encoding: 8217 8217 287
GlifName: quoteright
Width: 1024
VWidth: 0
GlyphClass: 2
Flags: W
LayerCount: 2
Fore
SplineSet
491 2168 m 257,0,-1
 450 2056 l 257,1,-1
 566 2056 l 257,2,-1
 607 2168 l 257,3,-1
 491 2168 l 257,0,-1
540 2140 m 257,4,-1
 417 1927 l 257,5,-1
 455 1882 l 257,6,-1
 566 2056 l 257,7,-1
 540 2140 l 257,4,-1
EndSplineSet
EndChar

StartChar: quotesinglbase
Encoding: 8218 8218 288
GlifName: quotesinglbase
Width: 1024
VWidth: 0
GlyphClass: 2
Flags: W
LayerCount: 2
Fore
SplineSet
537 126 m 257,0,-1
 494 8 l 257,1,-1
 603 8 l 257,2,-1
 646 126 l 257,3,-1
 537 126 l 257,0,-1
494 8 m 257,4,-1
 378 -118 l 257,5,-1
 428 -129 l 257,6,-1
 603 8 l 257,7,-1
 494 8 l 257,4,-1
EndSplineSet
EndChar

StartChar: quotesingle
Encoding: 39 39 289
GlifName: quotesingle
Width: 1024
VWidth: 0
GlyphClass: 2
Flags: W
LayerCount: 2
Fore
SplineSet
513 1496 m 257,0,-1
 447 1317 l 257,1,-1
 511 1317 l 257,2,-1
 577 1496 l 257,3,-1
 513 1496 l 257,0,-1
EndSplineSet
EndChar

StartChar: r
Encoding: 114 114 290
GlifName: r
Width: 1024
VWidth: 0
GlyphClass: 2
Flags: W
AnchorPoint: "top" 675 1114 basechar 0
AnchorPoint: "base" 77 -91 basechar 0
LayerCount: 2
Fore
SplineSet
225 1023 m 257,0,-1
 203 961 l 257,1,-1
 935 961 l 257,2,-1
 957 1023 l 257,3,-1
 225 1023 l 257,0,-1
427 989 m 257,4,-1
 67 0 l 257,5,-1
 127 0 l 257,6,-1
 487 989 l 257,7,-1
 427 989 l 257,4,-1
880 976 m 257,8,-1
 761 650 l 257,9,-1
 821 650 l 257,10,-1
 940 976 l 257,11,-1
 880 976 l 257,8,-1
EndSplineSet
EndChar

StartChar: registered
Encoding: 174 174 293
GlifName: registered
Width: 1024
VWidth: 0
GlyphClass: 2
Flags: W
LayerCount: 2
Fore
SplineSet
493 1032 m 257,0,-1
 300 501 l 257,1,-1
 337 501 l 257,2,-1
 530 1032 l 257,3,-1
 493 1032 l 257,0,-1
518 1032 m 257,4,-1
 504 994 l 257,5,-1
 733 994 l 257,6,-1
 747 1032 l 257,7,-1
 518 1032 l 257,4,-1
718 1032 m 257,8,-1
 634 802 l 257,9,-1
 672 802 l 257,10,-1
 756 1032 l 257,11,-1
 718 1032 l 257,8,-1
447 848 m 257,12,-1
 430 801 l 257,13,-1
 668 801 l 257,14,-1
 685 848 l 257,15,-1
 447 848 l 257,12,-1
480 809 m 257,16,-1
 566 500 l 257,17,-1
 609 500 l 257,18,-1
 515 809 l 257,19,-1
 480 809 l 257,16,-1
322 1540 m 257,20,-1
 -239 0 l 257,21,-1
 -177 0 l 257,22,-1
 384 1540 l 257,23,-1
 322 1540 l 257,20,-1
1201 1537 m 257,24,-1
 641 0 l 257,25,-1
 703 0 l 257,26,-1
 1263 1537 l 257,27,-1
 1201 1537 l 257,24,-1
360 1538 m 257,28,-1
 338 1478 l 257,29,-1
 1210 1478 l 257,30,-1
 1232 1538 l 257,31,-1
 360 1538 l 257,28,-1
-182 61 m 257,32,-1
 -204 0 l 257,33,-1
 688 0 l 257,34,-1
 710 61 l 257,35,-1
 -182 61 l 257,32,-1
EndSplineSet
EndChar

StartChar: ring
Encoding: 730 730 294
GlifName: ring
Width: 1024
VWidth: 0
GlyphClass: 2
Flags: W
LayerCount: 2
Fore
SplineSet
411 1302 m 257,0,-1
 701 1302 l 257,1,-1
 609 1049 l 257,2,-1
 319 1049 l 257,3,-1
 411 1302 l 257,0,-1
388 1331 m 257,4,-1
 276 1023 l 257,5,-1
 636 1023 l 257,6,-1
 748 1331 l 257,7,-1
 388 1331 l 257,4,-1
EndSplineSet
EndChar

StartChar: s
Encoding: 115 115 295
GlifName: s
Width: 1024
VWidth: 0
GlyphClass: 2
Flags: W
AnchorPoint: "top" 703 1113 basechar 0
AnchorPoint: "base" 344 -69 basechar 0
LayerCount: 2
Fore
SplineSet
394 1023 m 257,0,-1
 373 964 l 257,1,-1
 981 964 l 257,2,-1
 1002 1023 l 257,3,-1
 394 1023 l 257,0,-1
394 1023 m 257,4,-1
 290 736 l 257,5,-1
 350 736 l 257,6,-1
 454 1023 l 257,7,-1
 394 1023 l 257,4,-1
43 59 m 257,8,-1
 22 0 l 257,9,-1
 628 0 l 257,10,-1
 649 59 l 257,11,-1
 43 59 l 257,8,-1
675 299 m 257,12,-1
 570 12 l 257,13,-1
 632 12 l 257,14,-1
 737 299 l 257,15,-1
 675 299 l 257,12,-1
290 736 m 257,16,-1
 675 299 l 257,17,-1
 737 299 l 257,18,-1
 350 736 l 257,19,-1
 290 736 l 257,16,-1
EndSplineSet
EndChar

StartChar: section
Encoding: 167 167 300
GlifName: section
Width: 1024
VWidth: 0
GlyphClass: 2
Flags: W
LayerCount: 2
Fore
SplineSet
396 1237 m 257,0,-1
 375 1178 l 257,1,-1
 973 1178 l 257,2,-1
 994 1237 l 257,3,-1
 396 1237 l 257,0,-1
396 1237 m 257,4,-1
 166 605 l 257,5,-1
 229 605 l 257,6,-1
 459 1237 l 257,7,-1
 396 1237 l 257,4,-1
-90 -200 m 257,8,-1
 -112 -260 l 257,9,-1
 596 -260 l 257,10,-1
 618 -200 l 257,11,-1
 -90 -200 l 257,8,-1
564 -259 m 257,12,-1
 624 -259 l 257,13,-1
 752 95 l 257,14,-1
 692 95 l 257,15,-1
 564 -259 l 257,12,-1
166 606 m 257,16,-1
 689 88 l 257,17,-1
 750 88 l 257,18,-1
 224 606 l 257,19,-1
 166 606 l 257,16,-1
538 1626 m 257,20,-1
 516 1566 l 257,21,-1
 1114 1566 l 257,22,-1
 1136 1626 l 257,23,-1
 538 1626 l 257,20,-1
539 1629 m 257,24,-1
 396 1237 l 257,25,-1
 459 1237 l 257,26,-1
 602 1629 l 257,27,-1
 539 1629 l 257,24,-1
6 88 m 257,28,-1
 -12 39 l 257,29,-1
 696 39 l 257,30,-1
 714 88 l 257,31,-1
 6 88 l 257,28,-1
689 88 m 257,32,-1
 750 88 l 257,33,-1
 879 442 l 257,34,-1
 818 442 l 257,35,-1
 689 88 l 257,32,-1
396 1237 m 257,36,-1
 819 442 l 257,37,-1
 879 442 l 257,38,-1
 459 1237 l 257,39,-1
 396 1237 l 257,36,-1
EndSplineSet
EndChar

StartChar: semicolon
Encoding: 59 59 301
GlifName: semicolon
Width: 1024
VWidth: 0
GlyphClass: 2
Flags: W
LayerCount: 2
Fore
SplineSet
504 164 m 257,0,-1
 447 7 l 257,1,-1
 583 7 l 257,2,-1
 640 164 l 257,3,-1
 504 164 l 257,0,-1
577 135 m 257,4,-1
 450 -99 l 257,5,-1
 482 -148 l 257,6,-1
 587 26 l 257,7,-1
 577 135 l 257,4,-1
627 503 m 257,8,-1
 570 346 l 257,9,-1
 706 346 l 257,10,-1
 763 503 l 257,11,-1
 627 503 l 257,8,-1
EndSplineSet
EndChar

StartChar: seven
Encoding: 55 55 302
GlifName: seven
Width: 1024
VWidth: 0
GlyphClass: 2
Flags: W
LayerCount: 2
Fore
SplineSet
600 1495 m 257,0,-1
 1451 1495 l 257,1,-1
 906 0 l 257,2,-1
 968 0 l 257,3,-1
 1534 1553 l 257,4,-1
 621 1553 l 257,5,-1
 600 1495 l 257,0,-1
EndSplineSet
EndChar

StartChar: six
Encoding: 54 54 303
GlifName: six
Width: 1024
VWidth: 0
GlyphClass: 2
Flags: W
LayerCount: 2
Fore
SplineSet
604 1550 m 257,0,-1
 113 201 l 257,1,-1
 40 0 l 257,2,-1
 979 0 l 257,3,-1
 1277 819 l 257,4,-1
 400 819 l 257,5,-1
 644 1488 l 257,6,-1
 1526 1488 l 257,7,-1
 1548 1550 l 257,8,-1
 604 1550 l 257,0,-1
1193 759 m 257,9,-1
 940 63 l 257,10,-1
 131 63 l 257,11,-1
 384 759 l 257,12,-1
 1193 759 l 257,9,-1
EndSplineSet
EndChar

StartChar: slash
Encoding: 47 47 304
GlifName: slash
Width: 1024
VWidth: 0
GlyphClass: 2
Flags: W
LayerCount: 2
Fore
SplineSet
1293 1480 m 257,0,-1
 171 10 l 257,1,-1
 274 10 l 257,2,-1
 1396 1480 l 257,3,-1
 1293 1480 l 257,0,-1
EndSplineSet
EndChar

StartChar: sterling
Encoding: 163 163 306
GlifName: sterling
Width: 1024
VWidth: 0
GlyphClass: 2
Flags: W
LayerCount: 2
Fore
SplineSet
815 1543 m 257,0,-1
 793 1482 l 257,1,-1
 982 1482 l 257,2,-1
 1004 1543 l 257,3,-1
 815 1543 l 257,0,-1
196 770 m 257,4,-1
 172 705 l 257,5,-1
 898 705 l 257,6,-1
 922 770 l 257,7,-1
 196 770 l 257,4,-1
791 1542 m 257,8,-1
 230 0 l 257,9,-1
 306 0 l 257,10,-1
 867 1542 l 257,11,-1
 791 1542 l 257,8,-1
46 72 m 257,12,-1
 20 0 l 257,13,-1
 746 0 l 257,14,-1
 772 72 l 257,15,-1
 46 72 l 257,12,-1
EndSplineSet
EndChar

StartChar: t
Encoding: 116 116 307
GlifName: t
Width: 1024
VWidth: 0
GlyphClass: 2
Flags: W
AnchorPoint: "top" 767 1642 basechar 0
AnchorPoint: "base" 308 -121 basechar 0
LayerCount: 2
Fore
SplineSet
699 1529 m 257,0,-1
 143 0 l 257,1,-1
 203 0 l 257,2,-1
 759 1529 l 257,3,-1
 699 1529 l 257,0,-1
177 60 m 257,4,-1
 155 0 l 257,5,-1
 547 0 l 257,6,-1
 569 60 l 257,7,-1
 177 60 l 257,4,-1
207 1023 m 257,8,-1
 186 965 l 257,9,-1
 860 965 l 257,10,-1
 881 1023 l 257,11,-1
 207 1023 l 257,8,-1
EndSplineSet
EndChar

StartChar: tcaron
Encoding: 357 357 308
GlifName: tcaron
Width: 1024
VWidth: 0
GlyphClass: 2
Flags: W
LayerCount: 2
Fore
SplineSet
670 1529 m 257,0,-1
 114 0 l 257,1,-1
 174 0 l 257,2,-1
 730 1529 l 257,3,-1
 670 1529 l 257,0,-1
148 60 m 257,4,-1
 126 0 l 257,5,-1
 518 0 l 257,6,-1
 540 60 l 257,7,-1
 148 60 l 257,4,-1
178 1023 m 257,8,-1
 157 965 l 257,9,-1
 831 965 l 257,10,-1
 852 1023 l 257,11,-1
 178 1023 l 257,8,-1
848 1496 m 257,12,-1
 783 1317 l 257,13,-1
 845 1317 l 257,14,-1
 910 1496 l 257,15,-1
 848 1496 l 257,12,-1
EndSplineSet
EndChar

StartChar: thorn
Encoding: 254 254 309
GlifName: thorn
Width: 1024
VWidth: 0
GlyphClass: 2
Flags: W
LayerCount: 2
Fore
SplineSet
471 1034 m 257,0,-1
 -53 -406 l 257,1,-1
 5 -406 l 257,2,-1
 529 1034 l 257,3,-1
 471 1034 l 257,0,-1
389 667 m 257,4,-1
 367 605 l 257,5,-1
 1055 605 l 257,6,-1
 1077 667 l 257,7,-1
 389 667 l 257,4,-1
83 -135 m 257,8,-1
 62 -195 l 257,9,-1
 764 -195 l 257,10,-1
 785 -135 l 257,11,-1
 83 -135 l 257,8,-1
1010 646 m 257,12,-1
 713 -170 l 257,13,-1
 773 -170 l 257,14,-1
 1070 646 l 257,15,-1
 1010 646 l 257,12,-1
EndSplineSet
EndChar

StartChar: three
Encoding: 51 51 310
GlifName: three
Width: 1024
VWidth: 0
GlyphClass: 2
Flags: W
LayerCount: 2
Fore
SplineSet
370 736 m 257,0,-1
 1172 736 l 257,1,-1
 923 52 l 257,2,-1
 79 52 l 257,3,-1
 66 -8 l 257,4,-1
 961 -8 l 257,5,-1
 1528 1550 l 257,6,-1
 654 1550 l 257,7,-1
 633 1493 l 257,8,-1
 1445 1493 l 257,9,-1
 1192 796 l 257,10,-1
 392 796 l 257,11,-1
 370 736 l 257,0,-1
EndSplineSet
EndChar

StartChar: threequarters
Encoding: 190 190 311
GlifName: threequarters
Width: 1024
VWidth: 0
GlyphClass: 2
Flags: W
LayerCount: 2
Fore
SplineSet
1058 1483 m 257,0,-1
 -50 6 l 257,1,-1
 -34 -67 l 257,2,-1
 1074 1410 l 257,3,-1
 1058 1483 l 257,0,-1
355 1272 m 257,4,-1
 673 1272 l 257,5,-1
 604 1084 l 257,6,-1
 268 1084 l 257,7,-1
 243 1015 l 257,8,-1
 625 1015 l 257,9,-1
 821 1553 l 257,10,-1
 452 1553 l 257,11,-1
 427 1484 l 257,12,-1
 749 1484 l 257,13,-1
 697 1340 l 257,14,-1
 380 1340 l 257,15,-1
 355 1272 l 257,4,-1
582 340 m 257,16,-1
 885 340 l 257,17,-1
 763 7 l 257,18,-1
 806 7 l 257,19,-1
 1054 687 l 257,20,-1
 1010 687 l 257,21,-1
 900 386 l 257,22,-1
 645 386 l 257,23,-1
 756 689 l 257,24,-1
 709 689 l 257,25,-1
 582 340 l 257,16,-1
EndSplineSet
EndChar

StartChar: tilde
Encoding: 732 732 312
GlifName: tilde
Width: 1024
VWidth: 0
GlyphClass: 2
Flags: W
LayerCount: 2
Fore
SplineSet
373 279 m 257,0,-1
 355 229 l 257,1,-1
 679 158 l 257,2,-1
 697 208 l 257,3,-1
 373 279 l 257,0,-1
112 223 m 257,4,-1
 105 165 l 257,5,-1
 355 229 l 257,6,-1
 373 279 l 257,7,-1
 112 223 l 257,4,-1
697 208 m 257,8,-1
 679 158 l 257,9,-1
 916 309 l 257,10,-1
 919 356 l 257,11,-1
 697 208 l 257,8,-1
EndSplineSet
EndChar

StartChar: tildecomb
Encoding: 771 771 313
GlifName: tildecomb
Width: 0
VWidth: 0
GlyphClass: 4
Flags: W
AnchorPoint: "top" 5 784 mark 0
LayerCount: 2
Fore
SplineSet
-165 916 m 257,0,-1
 -183 866 l 257,1,-1
 141 795 l 257,2,-1
 160 845 l 257,3,-1
 -165 916 l 257,0,-1
-425 860 m 257,4,-1
 -432 802 l 257,5,-1
 -183 866 l 257,6,-1
 -165 916 l 257,7,-1
 -425 860 l 257,4,-1
160 845 m 257,8,-1
 141 795 l 257,9,-1
 378 946 l 257,10,-1
 381 993 l 257,11,-1
 160 845 l 257,8,-1
EndSplineSet
EndChar

StartChar: two
Encoding: 50 50 314
GlifName: two
Width: 1024
VWidth: 0
GlyphClass: 2
Flags: W
LayerCount: 2
Fore
SplineSet
655 1484 m 257,0,-1
 1389 1484 l 257,1,-1
 1179 908 l 257,2,-1
 452 908 l 257,3,-1
 122 0 l 257,4,-1
 895 0 l 257,5,-1
 916 59 l 257,6,-1
 203 59 l 257,7,-1
 491 849 l 257,8,-1
 1218 849 l 257,9,-1
 1471 1544 l 257,10,-1
 677 1544 l 257,11,-1
 655 1484 l 257,0,-1
EndSplineSet
EndChar

StartChar: u
Encoding: 117 117 315
GlifName: u
Width: 1024
VWidth: 0
GlyphClass: 2
Flags: W
AnchorPoint: "top" 689 1128 basechar 0
AnchorPoint: "base" 355 -74 basechar 0
LayerCount: 2
Fore
SplineSet
384 1034 m 257,0,-1
 8 0 l 257,1,-1
 68 0 l 257,2,-1
 444 1034 l 257,3,-1
 384 1034 l 257,0,-1
958 1033 m 257,4,-1
 582 0 l 257,5,-1
 640 0 l 257,6,-1
 1016 1033 l 257,7,-1
 958 1033 l 257,4,-1
76 61 m 257,8,-1
 54 0 l 257,9,-1
 756 0 l 257,10,-1
 778 61 l 257,11,-1
 76 61 l 257,8,-1
EndSplineSet
EndChar

StartChar: underscore
Encoding: 95 95 324
GlifName: underscore
Width: 1024
VWidth: 0
GlyphClass: 2
Flags: W
LayerCount: 2
Fore
SplineSet
7 0 m 257,0,-1
 -7 -40 l 257,1,-1
 1017 -40 l 257,2,-1
 1031 0 l 257,3,-1
 7 0 l 257,0,-1
EndSplineSet
EndChar

StartChar: uni00B2
Encoding: 178 178 326
GlifName: uni00B_2
Width: 1024
VWidth: 0
GlyphClass: 2
Flags: W
LayerCount: 2
Fore
SplineSet
416 1522 m 257,0,-1
 769 1522 l 257,1,-1
 691 1307 l 257,2,-1
 341 1307 l 257,3,-1
 218 969 l 257,4,-1
 590 969 l 257,5,-1
 598 991 l 257,6,-1
 255 991 l 257,7,-1
 362 1285 l 257,8,-1
 712 1285 l 257,9,-1
 806 1544 l 257,10,-1
 424 1544 l 257,11,-1
 416 1522 l 257,0,-1
EndSplineSet
EndChar

StartChar: uni00B3
Encoding: 179 179 327
GlifName: uni00B_3
Width: 1024
VWidth: 0
GlyphClass: 2
Flags: W
LayerCount: 2
Fore
SplineSet
271 1246 m 257,0,-1
 728 1246 l 257,1,-1
 635 989 l 257,2,-1
 153 989 l 257,3,-1
 151 967 l 257,4,-1
 661 967 l 257,5,-1
 873 1550 l 257,6,-1
 374 1550 l 257,7,-1
 366 1529 l 257,8,-1
 829 1529 l 257,9,-1
 734 1268 l 257,10,-1
 279 1268 l 257,11,-1
 271 1246 l 257,0,-1
EndSplineSet
EndChar

StartChar: uni00B9
Encoding: 185 185 328
GlifName: uni00B_9
Width: 1024
VWidth: 0
GlyphClass: 2
Flags: W
LayerCount: 2
Fore
SplineSet
356 888 m 257,0,-1
 386 888 l 257,1,-1
 668 1662 l 257,2,-1
 638 1662 l 257,3,-1
 356 888 l 257,0,-1
638 1662 m 257,4,-1
 556 1600 l 257,5,-1
 576 1586 l 257,6,-1
 668 1662 l 257,7,-1
 638 1662 l 257,4,-1
EndSplineSet
EndChar

StartChar: uni0192
Encoding: 402 402 341
GlifName: uni0192
Width: 1024
VWidth: 0
GlyphClass: 2
Flags: W
LayerCount: 2
Fore
SplineSet
695 1023 m 257,0,-1
 175 -406 l 257,1,-1
 236 -406 l 257,2,-1
 756 1023 l 257,3,-1
 695 1023 l 257,0,-1
722 1023 m 257,4,-1
 701 966 l 257,5,-1
 1146 966 l 257,6,-1
 1167 1023 l 257,7,-1
 722 1023 l 257,4,-1
270 559 m 257,8,-1
 249 500 l 257,9,-1
 880 500 l 257,10,-1
 901 559 l 257,11,-1
 270 559 l 257,8,-1
-121 -345 m 257,12,-1
 -143 -406 l 257,13,-1
 229 -406 l 257,14,-1
 251 -345 l 257,15,-1
 -121 -345 l 257,12,-1
EndSplineSet
EndChar

StartChar: uni0237
Encoding: 567 567 384
GlifName: uni0237
Width: 1024
VWidth: 0
GlyphClass: 2
Flags: W
AnchorPoint: "top" 720 1182 basechar 0
LayerCount: 2
Fore
SplineSet
1028 1023 m 257,0,-1
 506 -411 l 257,1,-1
 564 -411 l 257,2,-1
 1086 1023 l 257,3,-1
 1028 1023 l 257,0,-1
-41 -348 m 257,4,-1
 -62 -406 l 257,5,-1
 528 -406 l 257,6,-1
 549 -348 l 257,7,-1
 -41 -348 l 257,4,-1
84 -6 m 257,8,-1
 -52 -378 l 257,9,-1
 8 -378 l 257,10,-1
 144 -6 l 257,11,-1
 84 -6 l 257,8,-1
EndSplineSet
EndChar

StartChar: uni02C9
Encoding: 713 713 388
GlifName: uni02C_9
Width: 1024
VWidth: 0
GlyphClass: 2
Flags: W
LayerCount: 2
Fore
SplineSet
247 1630 m 257,0,-1
 217 1550 l 257,1,-1
 777 1550 l 257,2,-1
 807 1630 l 257,3,-1
 247 1630 l 257,0,-1
EndSplineSet
EndChar

StartChar: uni02CA
Encoding: 714 714 389
GlifName: uni02C_A_
Width: 1024
VWidth: 0
GlyphClass: 2
Flags: W
LayerCount: 2
Fore
SplineSet
565 949 m 257,0,-1
 419 764 l 257,1,-1
 459 730 l 257,2,-1
 605 915 l 257,3,-1
 565 949 l 257,0,-1
EndSplineSet
EndChar

StartChar: uni02CB
Encoding: 715 715 390
GlifName: uni02C_B_
Width: 1024
VWidth: 0
GlyphClass: 2
Flags: W
LayerCount: 2
Fore
SplineSet
447 877 m 257,0,-1
 497 673 l 257,1,-1
 577 727 l 257,2,-1
 527 932 l 257,3,-1
 447 877 l 257,0,-1
EndSplineSet
EndChar

StartChar: uni0302
Encoding: 770 770 391
GlifName: uni0302
Width: 0
VWidth: 0
GlyphClass: 4
Flags: W
VStem: 618 47
AnchorPoint: "top" -8 769 mark 0
LayerCount: 2
Fore
SplineSet
101 1101 m 257,0,-1
 65 1101 l 257,1,-1
 -180 791 l 257,2,-1
 -159 774 l 257,3,-1
 101 1101 l 257,0,-1
68 1103 m 257,4,-1
 109 769 l 257,5,-1
 156 787 l 257,6,-1
 105 1103 l 257,7,-1
 68 1103 l 257,4,-1
EndSplineSet
PickledDataWithLists: "(dp0
Vcom.fontlab.hintData
p1
(dp2
Vvhints
p3
(lp4
(dp5
Vposition
p6
I618
sVwidth
p7
I47
sass."
EndChar

StartChar: uni0304
Encoding: 772 772 392
GlifName: uni0304
Width: 0
VWidth: 0
GlyphClass: 4
Flags: W
HStem: 1550 52
AnchorPoint: "top" -1 779 mark 0
LayerCount: 2
Fore
SplineSet
-279 894 m 257,0,-1
 -298 842 l 257,1,-1
 262 842 l 257,2,-1
 281 894 l 257,3,-1
 -279 894 l 257,0,-1
EndSplineSet
PickledDataWithLists: "(dp0
Vcom.fontlab.hintData
p1
(dp2
Vhhints
p3
(lp4
(dp5
Vposition
p6
I1550
sVwidth
p7
I52
sass."
EndChar

StartChar: uni0305
Encoding: 773 773 393
GlifName: uni0305
Width: 0
VWidth: 0
GlyphClass: 4
Flags: W
HStem: 1542 60<195.161 949.161>
AnchorPoint: "top" 590 1480 mark 0
LayerCount: 2
Fore
SplineSet
195 1602 m 257,0,-1
 195 1542 l 257,1,-1
 949 1542 l 257,2,-1
 949 1602 l 257,3,-1
 195 1602 l 257,0,-1
EndSplineSet
PickledDataWithLists: "(dp0
Vcom.fontlab.hintData
p1
(dp2
Vhhints
p3
(lp4
(dp5
Vposition
p6
I1542
sVwidth
p7
I60
sass."
EndChar

StartChar: uni0306
Encoding: 774 774 394
GlifName: uni0306
Width: 0
VWidth: 0
GlyphClass: 4
Flags: W
AnchorPoint: "top" -1 765 mark 0
LayerCount: 2
Fore
SplineSet
156 875 m 257,0,-1
 130 805 l 257,1,-1
 321 875 l 257,2,-1
 355 970 l 257,3,-1
 156 875 l 257,0,-1
-168 875 m 257,4,-1
 -194 805 l 257,5,-1
 130 805 l 257,6,-1
 156 875 l 257,7,-1
 -168 875 l 257,4,-1
-310 955 m 257,8,-1
 -339 875 l 257,9,-1
 -194 805 l 257,10,-1
 -168 875 l 257,11,-1
 -310 955 l 257,8,-1
EndSplineSet
EndChar

StartChar: uni0307
Encoding: 775 775 395
GlifName: uni0307
Width: 0
VWidth: 0
GlyphClass: 4
Flags: W
HStem: 1637 101
AnchorPoint: "top" -3 783 mark 0
LayerCount: 2
Fore
SplineSet
-25 914 m 257,0,-1
 -62 813 l 257,1,-1
 50 813 l 257,2,-1
 87 914 l 257,3,-1
 -25 914 l 257,0,-1
EndSplineSet
PickledDataWithLists: "(dp0
Vcom.fontlab.hintData
p1
(dp2
Vhhints
p3
(lp4
(dp5
Vposition
p6
I1637
sVwidth
p7
I101
sass."
EndChar

StartChar: uni0308
Encoding: 776 776 396
GlifName: uni0308
Width: 0
VWidth: 0
GlyphClass: 4
Flags: W
HStem: 1637 101<455.58 455.58 455.58 530.818 530.818 530.818 697.58 772.818 772.818 772.818>
AnchorPoint: "top" 618 1592 mark 0
LayerCount: 2
Fore
SplineSet
456 1738 m 257,0,-1
 419 1637 l 257,1,-1
 531 1637 l 257,2,-1
 568 1738 l 257,3,-1
 456 1738 l 257,0,-1
698 1738 m 257,4,-1
 661 1637 l 257,5,-1
 773 1637 l 257,6,-1
 810 1738 l 257,7,-1
 698 1738 l 257,4,-1
EndSplineSet
PickledDataWithLists: "(dp0
Vcom.fontlab.hintData
p1
(dp2
Vhhints
p3
(lp4
(dp5
Vposition
p6
I1637
sVwidth
p7
I101
sass."
EndChar

StartChar: uni030A
Encoding: 778 778 397
GlifName: uni030A_
Width: 0
VWidth: 0
GlyphClass: 4
Flags: W
HStem: 1538 309
AnchorPoint: "top" -2 785 mark 0
LayerCount: 2
Fore
SplineSet
-11 1084 m 257,0,-1
 279 1084 l 257,1,-1
 187 831 l 257,2,-1
 -103 831 l 257,3,-1
 -11 1084 l 257,0,-1
-34 1113 m 257,4,-1
 -147 804 l 257,5,-1
 213 804 l 257,6,-1
 326 1113 l 257,7,-1
 -34 1113 l 257,4,-1
EndSplineSet
PickledDataWithLists: "(dp0
Vcom.fontlab.hintData
p1
(dp2
Vhhints
p3
(lp4
(dp5
Vposition
p6
I1538
sVwidth
p7
I309
sass."
EndChar

StartChar: uni030B
Encoding: 779 779 398
GlifName: uni030B_
Width: 0
VWidth: 0
GlyphClass: 4
Flags: W
AnchorPoint: "top" -2 775 mark 0
LayerCount: 2
Fore
SplineSet
-268 809 m 257,0,-1
 -202 809 l 257,1,-1
 -21 1057 l 257,2,-1
 -87 1057 l 257,3,-1
 -268 809 l 257,0,-1
136 809 m 257,4,-1
 196 809 l 257,5,-1
 377 1057 l 257,6,-1
 317 1057 l 257,7,-1
 136 809 l 257,4,-1
EndSplineSet
EndChar

StartChar: uni030C
Encoding: 780 780 399
GlifName: uni030C_
Width: 0
VWidth: 0
GlyphClass: 4
Flags: W
VStem: 412 33
AnchorPoint: "top" -12 726 mark 0
LayerCount: 2
Fore
SplineSet
0 791 m 257,0,-1
 -22 1118 l 257,1,-1
 -55 1101 l 257,2,-1
 -36 791 l 257,3,-1
 0 791 l 257,0,-1
-33 790 m 257,4,-1
 4 790 l 257,5,-1
 284 1105 l 257,6,-1
 250 1123 l 257,7,-1
 -33 790 l 257,4,-1
EndSplineSet
PickledDataWithLists: "(dp0
Vcom.fontlab.hintData
p1
(dp2
Vvhints
p3
(lp4
(dp5
Vposition
p6
I412
sVwidth
p7
I33
sass."
EndChar

StartChar: uni030F
Encoding: 783 783 400
GlifName: uni030F_
Width: 0
VWidth: 0
GlyphClass: 4
Flags: W
AnchorPoint: "top" 0 772 mark 0
LayerCount: 2
Fore
SplineSet
-32 1036 m 257,0,-1
 88 800 l 257,1,-1
 135 824 l 257,2,-1
 16 1061 l 257,3,-1
 -32 1036 l 257,0,-1
-178 1033 m 257,4,-1
 -58 797 l 257,5,-1
 -39 846 l 257,6,-1
 -158 1083 l 257,7,-1
 -178 1033 l 257,4,-1
EndSplineSet
EndChar

StartChar: uni0311
Encoding: 785 785 401
GlifName: uni0311
Width: 0
VWidth: 0
GlyphClass: 4
Flags: W
VStem: 229 660
AnchorPoint: "top" -10 776 mark 0
LayerCount: 2
Fore
SplineSet
-180 865 m 257,0,-1
 -180 933 l 257,1,-1
 -345 865 l 257,2,-1
 -345 768 l 257,3,-1
 -180 865 l 257,0,-1
144 865 m 257,4,-1
 144 933 l 257,5,-1
 -180 933 l 257,6,-1
 -180 865 l 257,7,-1
 144 865 l 257,4,-1
315 783 m 257,8,-1
 315 865 l 257,9,-1
 144 933 l 257,10,-1
 144 865 l 257,11,-1
 315 783 l 257,8,-1
EndSplineSet
PickledDataWithLists: "(dp0
Vcom.fontlab.hintData
p1
(dp2
Vvhints
p3
(lp4
(dp5
Vposition
p6
I229
sVwidth
p7
I660
sass."
EndChar

StartChar: uni031B
Encoding: 795 795 402
GlifName: uni031B_
Width: 0
VWidth: 0
GlyphClass: 4
Flags: W
AnchorPoint: "top" 10 774 mark 0
LayerCount: 2
Fore
SplineSet
58 1087 m 257,0,-1
 0 930 l 257,1,-1
 136 930 l 257,2,-1
 194 1087 l 257,3,-1
 58 1087 l 257,0,-1
131 1057 m 257,4,-1
 3 823 l 257,5,-1
 36 774 l 257,6,-1
 141 948 l 257,7,-1
 131 1057 l 257,4,-1
EndSplineSet
EndChar

StartChar: uni0326
Encoding: 806 806 403
GlifName: uni0326
Width: 0
VWidth: 0
GlyphClass: 4
Flags: W
AnchorPoint: "base" -23 -5 mark 0
LayerCount: 2
Fore
SplineSet
-34 0 m 257,0,-1
 -82 -132 l 257,1,-1
 30 -132 l 257,2,-1
 78 0 l 257,3,-1
 -34 0 l 257,0,-1
-82 -132 m 257,4,-1
 -168 -246 l 257,5,-1
 -113 -273 l 257,6,-1
 30 -132 l 257,7,-1
 -82 -132 l 257,4,-1
EndSplineSet
EndChar

StartChar: uni0327
Encoding: 807 807 404
GlifName: uni0327
Width: 0
VWidth: 0
GlyphClass: 4
Flags: W
HStem: -406 586<-160.485 -160.485 -160.485 -102.485 -160.485 78.2285 -160.485 78.2285>
AnchorPoint: "base" -517 90 mark 0
LayerCount: 2
Fore
SplineSet
-160 180 m 257,0,-1
 -248 -60 l 257,1,-1
 -190 -60 l 257,2,-1
 -102 180 l 257,3,-1
 -160 180 l 257,0,-1
-346 -347 m 257,4,-1
 -368 -406 l 257,5,-1
 78 -406 l 257,6,-1
 100 -347 l 257,7,-1
 -346 -347 l 257,4,-1
167 0 m 257,8,-1
 32 -372 l 257,9,-1
 91 -372 l 257,10,-1
 226 0 l 257,11,-1
 167 0 l 257,8,-1
-220 0 m 257,12,-1
 -242 -60 l 257,13,-1
 204 -60 l 257,14,-1
 226 0 l 257,15,-1
 -220 0 l 257,12,-1
EndSplineSet
PickledDataWithLists: "(dp0
Vcom.fontlab.hintData
p1
(dp2
Vhhints
p3
(lp4
(dp5
Vposition
p6
I-406
sVwidth
p7
I586
sass."
EndChar

StartChar: uni0328
Encoding: 808 808 405
GlifName: uni0328
Width: 0
VWidth: 0
GlyphClass: 4
Flags: W
HStem: -411 411<-271 -271 -271 120.408 -420.592 -271 -360.592 -271 120.408 120.408>
AnchorPoint: "base" -242 0 mark 0
LayerCount: 2
Fore
SplineSet
-399 -351 m 257,0,-1
 -421 -411 l 257,1,-1
 120 -411 l 257,2,-1
 142 -351 l 257,3,-1
 -399 -351 l 257,0,-1
-271 0 m 257,4,-1
 -421 -411 l 257,5,-1
 -361 -411 l 257,6,-1
 -211 0 l 257,7,-1
 -271 0 l 257,4,-1
-271 0 m 257,8,-1
 -292 -59 l 257,9,-1
 250 -59 l 257,10,-1
 271 0 l 257,11,-1
 -271 0 l 257,8,-1
EndSplineSet
PickledDataWithLists: "(dp0
Vcom.fontlab.hintData
p1
(dp2
Vhhints
p3
(lp4
(dp5
Vposition
p6
I-411
sVwidth
p7
I411
sass."
EndChar

StartChar: uni0331
Encoding: 817 817 406
GlifName: uni0331
Width: 0
VWidth: 0
GlyphClass: 4
Flags: W
HStem: -248 44<-354.25 -354.25 -354.25 189.734 189.734 189.734>
AnchorPoint: "base" -78 -163 mark 0
LayerCount: 2
Fore
SplineSet
-354 -204 m 257,0,-1
 -370 -248 l 257,1,-1
 190 -248 l 257,2,-1
 206 -204 l 257,3,-1
 -354 -204 l 257,0,-1
EndSplineSet
PickledDataWithLists: "(dp0
Vcom.fontlab.hintData
p1
(dp2
Vhhints
p3
(lp4
(dp5
Vposition
p6
I-248
sVwidth
p7
I44
sass."
EndChar

StartChar: uni0900
Encoding: 2304 2304 407
GlifName: uni0900
Width: 0
VWidth: 0
GlyphClass: 4
Flags: W
HStem: 1639 482<264.047 439.48 324.047 439.48>
AnchorPoint: "abvm_deva" 42 1648 mark 0
LayerCount: 2
Fore
SplineSet
439 2121 m 257,0,-1
 264 1639 l 257,1,-1
 324 1639 l 257,2,-1
 499 2121 l 257,3,-1
 439 2121 l 257,0,-1
454 2122 m 257,4,-1
 432 2061 l 257,5,-1
 1045 2061 l 257,6,-1
 1067 2122 l 257,7,-1
 454 2122 l 257,4,-1
652 1919 m 257,8,-1
 607 1796 l 257,9,-1
 724 1796 l 257,10,-1
 769 1919 l 257,11,-1
 652 1919 l 257,8,-1
1045 2122 m 257,12,-1
 868 1636 l 257,13,-1
 928 1636 l 257,14,-1
 1105 2122 l 257,15,-1
 1045 2122 l 257,12,-1
EndSplineSet
PickledDataWithLists: "(dp0
Vcom.fontlab.hintData
p1
(dp2
Vhhints
p3
(lp4
(dp5
Vposition
p6
I1639
sVwidth
p7
I482
sass."
EndChar

StartChar: uni0901
Encoding: 2305 2305 408
GlifName: uni0901
Width: 0
VWidth: 0
GlyphClass: 4
Flags: W
HStem: 1639 485<247.547 424.073 424.073 424.073 424.073 484.073 424.073 916.547 307.547 424.073 424.073 945.547>
AnchorPoint: "abvm_deva" 0 1618 mark 0
LayerCount: 2
Fore
SplineSet
424 2124 m 257,0,-1
 248 1639 l 257,1,-1
 308 1639 l 257,2,-1
 484 2124 l 257,3,-1
 424 2124 l 257,0,-1
304 1699 m 257,4,-1
 283 1639 l 257,5,-1
 917 1639 l 257,6,-1
 938 1699 l 257,7,-1
 304 1699 l 257,4,-1
667 1962 m 257,8,-1
 622 1839 l 257,9,-1
 739 1839 l 257,10,-1
 784 1962 l 257,11,-1
 667 1962 l 257,8,-1
1064 2130 m 257,12,-1
 886 1639 l 257,13,-1
 946 1639 l 257,14,-1
 1124 2130 l 257,15,-1
 1064 2130 l 257,12,-1
EndSplineSet
PickledDataWithLists: "(dp0
Vcom.fontlab.hintData
p1
(dp2
Vhhints
p3
(lp4
(dp5
Vposition
p6
I1639
sVwidth
p7
I485
sass."
EndChar

StartChar: uni0902
Encoding: 2306 2306 409
GlifName: uni0902
Width: 0
VWidth: 0
GlyphClass: 4
Flags: W
HStem: 1580 120<558.749 558.749 558.749 635.073 635.073 635.073>
AnchorPoint: "abvm_deva" -318 1636 mark 0
LayerCount: 2
Fore
SplineSet
559 1700 m 257,0,-1
 515 1580 l 257,1,-1
 635 1580 l 257,2,-1
 679 1700 l 257,3,-1
 559 1700 l 257,0,-1
EndSplineSet
PickledDataWithLists: "(dp0
Vcom.fontlab.hintData
p1
(dp2
Vhhints
p3
(lp4
(dp5
Vposition
p6
I1580
sVwidth
p7
I120
sass."
EndChar

StartChar: uni0903
Encoding: 2307 2307 410
GlifName: uni0903
Width: 1024
VWidth: 0
GlyphClass: 2
Flags: W
LayerCount: 2
Fore
SplineSet
331 410 m 257,0,-1
 287 290 l 257,1,-1
 407 290 l 257,2,-1
 451 410 l 257,3,-1
 331 410 l 257,0,-1
617 1302 m 257,4,-1
 573 1182 l 257,5,-1
 693 1182 l 257,6,-1
 737 1302 l 257,7,-1
 617 1302 l 257,4,-1
EndSplineSet
EndChar

StartChar: uni0904
Encoding: 2308 2308 411
GlifName: uni0904
Width: 1024
VWidth: 0
GlyphClass: 2
Flags: W
AnchorPoint: "abvm_deva" 1354 1972 basechar 0
LayerCount: 2
Fore
SplineSet
1010 2062 m 257,0,-1
 923 1823 l 257,1,-1
 984 1823 l 257,2,-1
 1071 2062 l 257,3,-1
 1010 2062 l 257,0,-1
937 1866 m 257,4,-1
 916 1809 l 257,5,-1
 1599 1809 l 257,6,-1
 1620 1866 l 257,7,-1
 937 1866 l 257,4,-1
1559 1863 m 257,8,-1
 1443 1545 l 257,9,-1
 1503 1545 l 257,10,-1
 1619 1863 l 257,11,-1
 1559 1863 l 257,8,-1
1293 1550 m 257,12,-1
 1271 1488 l 257,13,-1
 1568 1488 l 257,14,-1
 1590 1550 l 257,15,-1
 1293 1550 l 257,12,-1
1461 1518 m 257,16,-1
 908 0 l 257,17,-1
 969 0 l 257,18,-1
 1522 1518 l 257,19,-1
 1461 1518 l 257,16,-1
607 1550 m 257,20,-1
 584 1487 l 257,21,-1
 1107 1487 l 257,22,-1
 1130 1550 l 257,23,-1
 607 1550 l 257,20,-1
1097 1550 m 257,24,-1
 545 34 l 257,25,-1
 604 34 l 257,26,-1
 1156 1550 l 257,27,-1
 1097 1550 l 257,24,-1
452 894 m 257,28,-1
 431 835 l 257,29,-1
 1239 835 l 257,30,-1
 1260 894 l 257,31,-1
 452 894 l 257,28,-1
42 65 m 257,32,-1
 18 0 l 257,33,-1
 592 0 l 257,34,-1
 616 65 l 257,35,-1
 42 65 l 257,32,-1
EndSplineSet
EndChar

StartChar: uni0905
Encoding: 2309 2309 412
GlifName: uni0905
Width: 1024
VWidth: 0
GlyphClass: 2
Flags: W
AnchorPoint: "abvm_deva" 1441 1618 basechar 0
LayerCount: 2
Fore
SplineSet
1292 1550 m 257,0,-1
 1270 1488 l 257,1,-1
 1567 1488 l 257,2,-1
 1589 1550 l 257,3,-1
 1292 1550 l 257,0,-1
1461 1518 m 257,4,-1
 908 0 l 257,5,-1
 969 0 l 257,6,-1
 1522 1518 l 257,7,-1
 1461 1518 l 257,4,-1
607 1550 m 257,8,-1
 584 1487 l 257,9,-1
 1107 1487 l 257,10,-1
 1130 1550 l 257,11,-1
 607 1550 l 257,8,-1
1097 1550 m 257,12,-1
 545 34 l 257,13,-1
 604 34 l 257,14,-1
 1156 1550 l 257,15,-1
 1097 1550 l 257,12,-1
452 894 m 257,16,-1
 431 835 l 257,17,-1
 1239 835 l 257,18,-1
 1260 894 l 257,19,-1
 452 894 l 257,16,-1
42 65 m 257,20,-1
 18 0 l 257,21,-1
 592 0 l 257,22,-1
 616 65 l 257,23,-1
 42 65 l 257,20,-1
EndSplineSet
EndChar

StartChar: uni0906
Encoding: 2310 2310 413
GlifName: uni0906
Width: 1024
VWidth: 0
GlyphClass: 2
Flags: W
AnchorPoint: "abvm_deva" 1347 1606 basechar 0
LayerCount: 2
Fore
SplineSet
1089 1550 m 257,0,-1
 1067 1488 l 257,1,-1
 1568 1488 l 257,2,-1
 1590 1550 l 257,3,-1
 1089 1550 l 257,0,-1
1261 1518 m 257,4,-1
 708 0 l 257,5,-1
 769 0 l 257,6,-1
 1322 1518 l 257,7,-1
 1261 1518 l 257,4,-1
605 1550 m 257,8,-1
 582 1487 l 257,9,-1
 905 1487 l 257,10,-1
 928 1550 l 257,11,-1
 605 1550 l 257,8,-1
895 1550 m 257,12,-1
 343 34 l 257,13,-1
 402 34 l 257,14,-1
 954 1550 l 257,15,-1
 895 1550 l 257,12,-1
450 894 m 257,16,-1
 429 835 l 257,17,-1
 1037 835 l 257,18,-1
 1058 894 l 257,19,-1
 450 894 l 257,16,-1
40 65 m 257,20,-1
 16 0 l 257,21,-1
 390 0 l 257,22,-1
 414 65 l 257,23,-1
 40 65 l 257,20,-1
1444 1518 m 257,24,-1
 891 0 l 257,25,-1
 952 0 l 257,26,-1
 1505 1518 l 257,27,-1
 1444 1518 l 257,24,-1
EndSplineSet
EndChar

StartChar: uni0907
Encoding: 2311 2311 414
GlifName: uni0907
Width: 1024
VWidth: 0
GlyphClass: 2
Flags: W
AnchorPoint: "abvm_deva" 1212 1600 basechar 0
LayerCount: 2
Fore
SplineSet
558 1550 m 257,0,-1
 536 1488 l 257,1,-1
 1570 1488 l 257,2,-1
 1592 1550 l 257,3,-1
 558 1550 l 257,0,-1
1243 1518 m 257,4,-1
 1117 1173 l 257,5,-1
 1176 1173 l 257,6,-1
 1302 1518 l 257,7,-1
 1243 1518 l 257,4,-1
607 1205 m 257,8,-1
 584 1144 l 257,9,-1
 1164 1144 l 257,10,-1
 1187 1205 l 257,11,-1
 607 1205 l 257,8,-1
598 1181 m 257,12,-1
 476 845 l 257,13,-1
 534 845 l 257,14,-1
 656 1181 l 257,15,-1
 598 1181 l 257,12,-1
489 881 m 257,16,-1
 466 819 l 257,17,-1
 1112 819 l 257,18,-1
 1135 881 l 257,19,-1
 489 881 l 257,16,-1
1101 881 m 257,20,-1
 884 285 l 257,21,-1
 944 285 l 257,22,-1
 1161 881 l 257,23,-1
 1101 881 l 257,20,-1
254 298 m 257,24,-1
 232 237 l 257,25,-1
 927 237 l 257,26,-1
 949 298 l 257,27,-1
 254 298 l 257,24,-1
370 298 m 257,28,-1
 173 -244 l 257,29,-1
 233 -244 l 257,30,-1
 430 298 l 257,31,-1
 370 298 l 257,28,-1
EndSplineSet
EndChar

StartChar: uni0908
Encoding: 2312 2312 415
GlifName: uni0908
Width: 1024
VWidth: 0
GlyphClass: 2
Flags: W
AnchorPoint: "abvm_deva" 1371 1624 basechar 0
LayerCount: 2
Fore
SplineSet
558 1550 m 257,0,-1
 536 1488 l 257,1,-1
 1573 1488 l 257,2,-1
 1595 1550 l 257,3,-1
 558 1550 l 257,0,-1
1249 1529 m 257,4,-1
 1123 1183 l 257,5,-1
 1183 1183 l 257,6,-1
 1309 1529 l 257,7,-1
 1249 1529 l 257,4,-1
609 1207 m 257,8,-1
 587 1146 l 257,9,-1
 1169 1146 l 257,10,-1
 1191 1207 l 257,11,-1
 609 1207 l 257,8,-1
600 1181 m 257,12,-1
 479 849 l 257,13,-1
 539 849 l 257,14,-1
 660 1181 l 257,15,-1
 600 1181 l 257,12,-1
491 881 m 257,16,-1
 469 821 l 257,17,-1
 1121 821 l 257,18,-1
 1143 881 l 257,19,-1
 491 881 l 257,16,-1
1105 881 m 257,20,-1
 888 285 l 257,21,-1
 948 285 l 257,22,-1
 1165 881 l 257,23,-1
 1105 881 l 257,20,-1
256 298 m 257,24,-1
 234 237 l 257,25,-1
 932 237 l 257,26,-1
 954 298 l 257,27,-1
 256 298 l 257,24,-1
372 298 m 257,28,-1
 175 -244 l 257,29,-1
 235 -244 l 257,30,-1
 432 298 l 257,31,-1
 372 298 l 257,28,-1
993 1860 m 257,32,-1
 1111 1550 l 257,33,-1
 1215 1550 l 257,34,-1
 1088 1908 l 257,35,-1
 993 1860 l 257,32,-1
EndSplineSet
EndChar

StartChar: uni0909
Encoding: 2313 2313 416
GlifName: uni0909
Width: 1024
VWidth: 0
GlyphClass: 2
Flags: W
AnchorPoint: "abvm_deva" 1143 1606 basechar 0
LayerCount: 2
Fore
SplineSet
564 1550 m 257,0,-1
 542 1488 l 257,1,-1
 1567 1488 l 257,2,-1
 1589 1550 l 257,3,-1
 564 1550 l 257,0,-1
1180 1530 m 257,4,-1
 987 1001 l 257,5,-1
 1046 1001 l 257,6,-1
 1239 1530 l 257,7,-1
 1180 1530 l 257,4,-1
618 1044 m 257,8,-1
 597 985 l 257,9,-1
 1239 985 l 257,10,-1
 1260 1044 l 257,11,-1
 618 1044 l 257,8,-1
1183 994 m 257,12,-1
 821 0 l 257,13,-1
 880 0 l 257,14,-1
 1242 994 l 257,15,-1
 1183 994 l 257,12,-1
155 61 m 257,16,-1
 133 0 l 257,17,-1
 870 0 l 257,18,-1
 892 61 l 257,19,-1
 155 61 l 257,16,-1
259 346 m 257,20,-1
 140 19 l 257,21,-1
 199 19 l 257,22,-1
 318 346 l 257,23,-1
 259 346 l 257,20,-1
EndSplineSet
EndChar

StartChar: uni090A
Encoding: 2314 2314 417
GlifName: uni090A_
Width: 1024
VWidth: 0
GlyphClass: 2
Flags: W
AnchorPoint: "abvm_deva" 1103 1612 basechar 0
LayerCount: 2
Fore
SplineSet
564 1550 m 257,0,-1
 542 1488 l 257,1,-1
 1567 1488 l 257,2,-1
 1589 1550 l 257,3,-1
 564 1550 l 257,0,-1
891 1530 m 257,4,-1
 698 1001 l 257,5,-1
 759 1001 l 257,6,-1
 952 1530 l 257,7,-1
 891 1530 l 257,4,-1
534 1044 m 257,8,-1
 512 983 l 257,9,-1
 1317 983 l 257,10,-1
 1339 1044 l 257,11,-1
 534 1044 l 257,8,-1
991 994 m 257,12,-1
 641 33 l 257,13,-1
 702 33 l 257,14,-1
 1052 994 l 257,15,-1
 991 994 l 257,12,-1
71 61 m 257,16,-1
 49 0 l 257,17,-1
 690 0 l 257,18,-1
 712 61 l 257,19,-1
 71 61 l 257,16,-1
175 346 m 257,20,-1
 56 19 l 257,21,-1
 117 19 l 257,22,-1
 236 346 l 257,23,-1
 175 346 l 257,20,-1
1271 1023 m 257,24,-1
 971 197 l 257,25,-1
 1031 197 l 257,26,-1
 1331 1023 l 257,27,-1
 1271 1023 l 257,24,-1
EndSplineSet
EndChar

StartChar: uni090B
Encoding: 2315 2315 418
GlifName: uni090B_
Width: 1024
VWidth: 0
GlyphClass: 2
Flags: W
AnchorPoint: "abvm_deva" 1182 1600 basechar 0
LayerCount: 2
Fore
SplineSet
564 1550 m 257,0,-1
 542 1488 l 257,1,-1
 1559 1488 l 257,2,-1
 1581 1550 l 257,3,-1
 564 1550 l 257,0,-1
1066 1533 m 257,4,-1
 508 0 l 257,5,-1
 556 0 l 257,6,-1
 1118 1545 l 257,7,-1
 1066 1533 l 257,4,-1
398 1043 m 257,8,-1
 376 983 l 257,9,-1
 679 983 l 257,10,-1
 701 1043 l 257,11,-1
 398 1043 l 257,8,-1
700 471 m 257,12,-1
 236 422 l 257,13,-1
 304 376 l 257,14,-1
 716 417 l 257,15,-1
 700 471 l 257,12,-1
701 1043 m 257,16,-1
 679 983 l 257,17,-1
 883 902 l 257,18,-1
 904 958 l 257,19,-1
 701 1043 l 257,16,-1
881 897 m 257,20,-1
 860 837 l 257,21,-1
 1201 837 l 257,22,-1
 1222 897 l 257,23,-1
 881 897 l 257,20,-1
1180 897 m 257,24,-1
 950 265 l 257,25,-1
 1011 265 l 257,26,-1
 1241 897 l 257,27,-1
 1180 897 l 257,24,-1
972 324 m 257,28,-1
 950 264 l 257,29,-1
 1120 264 l 257,30,-1
 1142 324 l 257,31,-1
 972 324 l 257,28,-1
EndSplineSet
EndChar

StartChar: uni090C
Encoding: 2316 2316 419
GlifName: uni090C_
Width: 1024
VWidth: 0
GlyphClass: 2
Flags: W
AnchorPoint: "abvm_deva" 1196 1588 basechar 0
LayerCount: 2
Fore
SplineSet
557 1550 m 257,0,-1
 535 1488 l 257,1,-1
 1574 1488 l 257,2,-1
 1596 1550 l 257,3,-1
 557 1550 l 257,0,-1
1270 1550 m 257,4,-1
 982 759 l 257,5,-1
 1042 759 l 257,6,-1
 1330 1550 l 257,7,-1
 1270 1550 l 257,4,-1
1252 791 m 257,8,-1
 336 791 l 257,9,-1
 314 731 l 257,10,-1
 1230 731 l 257,11,-1
 1252 791 l 257,8,-1
333 777 m 257,12,-1
 142 252 l 257,13,-1
 202 252 l 257,14,-1
 393 777 l 257,15,-1
 333 777 l 257,12,-1
760 791 m 257,16,-1
 630 433 l 257,17,-1
 690 433 l 257,18,-1
 820 791 l 257,19,-1
 760 791 l 257,16,-1
1182 792 m 257,20,-1
 921 73 l 257,21,-1
 981 73 l 257,22,-1
 1242 792 l 257,23,-1
 1182 792 l 257,20,-1
986 132 m 257,24,-1
 964 71 l 257,25,-1
 1056 71 l 257,26,-1
 1078 132 l 257,27,-1
 986 132 l 257,24,-1
EndSplineSet
EndChar

StartChar: uni090D
Encoding: 2317 2317 420
GlifName: uni090D_
Width: 1024
VWidth: 0
GlyphClass: 2
Flags: W
AnchorPoint: "abvm_deva" 1609 1644 basechar 0
LayerCount: 2
Fore
SplineSet
559 1550 m 257,0,-1
 537 1488 l 257,1,-1
 1572 1488 l 257,2,-1
 1594 1550 l 257,3,-1
 559 1550 l 257,0,-1
1430 1545 m 257,4,-1
 1152 779 l 257,5,-1
 1212 779 l 257,6,-1
 1490 1545 l 257,7,-1
 1430 1545 l 257,4,-1
939 839 m 257,8,-1
 918 779 l 257,9,-1
 1212 779 l 257,10,-1
 1233 839 l 257,11,-1
 939 839 l 257,8,-1
703 1542 m 257,12,-1
 265 338 l 257,13,-1
 325 338 l 257,14,-1
 763 1542 l 257,15,-1
 703 1542 l 257,12,-1
272 358 m 257,16,-1
 250 297 l 257,17,-1
 850 297 l 257,18,-1
 872 358 l 257,19,-1
 272 358 l 257,16,-1
818 358 m 257,20,-1
 652 -98 l 257,21,-1
 712 -98 l 257,22,-1
 878 358 l 257,23,-1
 818 358 l 257,20,-1
372 -38 m 257,24,-1
 350 -98 l 257,25,-1
 710 -98 l 257,26,-1
 732 -38 l 257,27,-1
 372 -38 l 257,24,-1
929 2124 m 257,28,-1
 753 1639 l 257,29,-1
 813 1639 l 257,30,-1
 989 2124 l 257,31,-1
 929 2124 l 257,28,-1
821 1702 m 257,32,-1
 799 1641 l 257,33,-1
 1393 1641 l 257,34,-1
 1415 1702 l 257,35,-1
 821 1702 l 257,32,-1
1536 2132 m 257,36,-1
 1357 1641 l 257,37,-1
 1417 1641 l 257,38,-1
 1596 2132 l 257,39,-1
 1536 2132 l 257,36,-1
EndSplineSet
EndChar

StartChar: uni090E
Encoding: 2318 2318 421
GlifName: uni090E_
Width: 1024
VWidth: 0
GlyphClass: 2
Flags: W
AnchorPoint: "abvm_deva" 1639 1622 basechar 0
LayerCount: 2
Fore
SplineSet
559 1550 m 257,0,-1
 537 1488 l 257,1,-1
 1572 1488 l 257,2,-1
 1594 1550 l 257,3,-1
 559 1550 l 257,0,-1
1430 1545 m 257,4,-1
 1152 779 l 257,5,-1
 1212 779 l 257,6,-1
 1490 1545 l 257,7,-1
 1430 1545 l 257,4,-1
939 839 m 257,8,-1
 918 779 l 257,9,-1
 1212 779 l 257,10,-1
 1233 839 l 257,11,-1
 939 839 l 257,8,-1
703 1542 m 257,12,-1
 265 338 l 257,13,-1
 325 338 l 257,14,-1
 763 1542 l 257,15,-1
 703 1542 l 257,12,-1
272 358 m 257,16,-1
 250 297 l 257,17,-1
 850 297 l 257,18,-1
 872 358 l 257,19,-1
 272 358 l 257,16,-1
818 358 m 257,20,-1
 652 -98 l 257,21,-1
 712 -98 l 257,22,-1
 878 358 l 257,23,-1
 818 358 l 257,20,-1
372 -38 m 257,24,-1
 350 -98 l 257,25,-1
 710 -98 l 257,26,-1
 732 -38 l 257,27,-1
 372 -38 l 257,24,-1
1021 2062 m 257,28,-1
 934 1823 l 257,29,-1
 994 1823 l 257,30,-1
 1081 2062 l 257,31,-1
 1021 2062 l 257,28,-1
947 1866 m 257,32,-1
 926 1809 l 257,33,-1
 1610 1809 l 257,34,-1
 1631 1866 l 257,35,-1
 947 1866 l 257,32,-1
1570 1858 m 257,36,-1
 1455 1540 l 257,37,-1
 1515 1540 l 257,38,-1
 1630 1858 l 257,39,-1
 1570 1858 l 257,36,-1
EndSplineSet
EndChar

StartChar: uni090F
Encoding: 2319 2319 422
GlifName: uni090F_
Width: 1024
VWidth: 0
GlyphClass: 2
Flags: W
AnchorPoint: "abvm_deva" 1115 1630 basechar 0
LayerCount: 2
Fore
SplineSet
559 1550 m 257,0,-1
 537 1488 l 257,1,-1
 1572 1488 l 257,2,-1
 1594 1550 l 257,3,-1
 559 1550 l 257,0,-1
1430 1545 m 257,4,-1
 1152 779 l 257,5,-1
 1212 779 l 257,6,-1
 1490 1545 l 257,7,-1
 1430 1545 l 257,4,-1
939 839 m 257,8,-1
 918 779 l 257,9,-1
 1212 779 l 257,10,-1
 1233 839 l 257,11,-1
 939 839 l 257,8,-1
703 1542 m 257,12,-1
 265 338 l 257,13,-1
 325 338 l 257,14,-1
 763 1542 l 257,15,-1
 703 1542 l 257,12,-1
272 358 m 257,16,-1
 250 297 l 257,17,-1
 850 297 l 257,18,-1
 872 358 l 257,19,-1
 272 358 l 257,16,-1
818 358 m 257,20,-1
 652 -98 l 257,21,-1
 712 -98 l 257,22,-1
 878 358 l 257,23,-1
 818 358 l 257,20,-1
372 -38 m 257,24,-1
 350 -98 l 257,25,-1
 710 -98 l 257,26,-1
 732 -38 l 257,27,-1
 372 -38 l 257,24,-1
EndSplineSet
EndChar

StartChar: uni0910
Encoding: 2320 2320 423
GlifName: uni0910
Width: 1024
VWidth: 0
GlyphClass: 2
Flags: W
AnchorPoint: "abvm_deva" 1555 1702 basechar 0
LayerCount: 2
Fore
SplineSet
559 1549 m 257,0,-1
 537 1489 l 257,1,-1
 1572 1489 l 257,2,-1
 1594 1549 l 257,3,-1
 559 1549 l 257,0,-1
1428 1545 m 257,4,-1
 1150 779 l 257,5,-1
 1212 779 l 257,6,-1
 1490 1545 l 257,7,-1
 1428 1545 l 257,4,-1
940 840 m 257,8,-1
 918 779 l 257,9,-1
 1212 779 l 257,10,-1
 1234 840 l 257,11,-1
 940 840 l 257,8,-1
703 1542 m 257,12,-1
 265 338 l 257,13,-1
 325 338 l 257,14,-1
 763 1542 l 257,15,-1
 703 1542 l 257,12,-1
273 359 m 257,16,-1
 250 297 l 257,17,-1
 850 297 l 257,18,-1
 873 359 l 257,19,-1
 273 359 l 257,16,-1
832 358 m 257,20,-1
 666 -98 l 257,21,-1
 724 -98 l 257,22,-1
 890 358 l 257,23,-1
 832 358 l 257,20,-1
373 -37 m 257,24,-1
 350 -98 l 257,25,-1
 710 -98 l 257,26,-1
 733 -37 l 257,27,-1
 373 -37 l 257,24,-1
1270 1962 m 257,28,-1
 1418 1550 l 257,29,-1
 1490 1550 l 257,30,-1
 1337 1998 l 257,31,-1
 1270 1962 l 257,28,-1
EndSplineSet
EndChar

StartChar: uni0911
Encoding: 2321 2321 424
GlifName: uni0911
Width: 1024
VWidth: 0
GlyphClass: 2
Flags: W
AnchorPoint: "abvm_deva" 1564 2170 basechar 0
LayerCount: 2
Fore
SplineSet
1099 1548 m 257,0,-1
 1078 1488 l 257,1,-1
 1566 1488 l 257,2,-1
 1587 1548 l 257,3,-1
 1099 1548 l 257,0,-1
1092 1506 m 257,4,-1
 544 0 l 257,5,-1
 606 0 l 257,6,-1
 1154 1506 l 257,7,-1
 1092 1506 l 257,4,-1
590 1550 m 257,8,-1
 568 1488 l 257,9,-1
 928 1488 l 257,10,-1
 950 1550 l 257,11,-1
 590 1550 l 257,8,-1
916 1550 m 257,12,-1
 363 30 l 257,13,-1
 423 30 l 257,14,-1
 976 1550 l 257,15,-1
 916 1550 l 257,12,-1
435 894 m 257,16,-1
 414 834 l 257,17,-1
 886 834 l 257,18,-1
 907 894 l 257,19,-1
 435 894 l 257,16,-1
22 61 m 257,20,-1
 0 0 l 257,21,-1
 412 0 l 257,22,-1
 434 61 l 257,23,-1
 22 61 l 257,20,-1
1359 1504 m 257,24,-1
 812 0 l 257,25,-1
 872 0 l 257,26,-1
 1419 1504 l 257,27,-1
 1359 1504 l 257,24,-1
1285 2085 m 257,28,-1
 1123 1639 l 257,29,-1
 1185 1639 l 257,30,-1
 1347 2085 l 257,31,-1
 1285 2085 l 257,28,-1
1151 1701 m 257,32,-1
 1129 1641 l 257,33,-1
 1621 1641 l 257,34,-1
 1643 1701 l 257,35,-1
 1151 1701 l 257,32,-1
1710 2083 m 257,36,-1
 1549 1641 l 257,37,-1
 1621 1641 l 257,38,-1
 1782 2083 l 257,39,-1
 1710 2083 l 257,36,-1
EndSplineSet
EndChar

StartChar: uni0912
Encoding: 2322 2322 425
GlifName: uni0912
Width: 1024
VWidth: 0
GlyphClass: 2
Flags: W
AnchorPoint: "abvm_deva" 1611 1599 basechar 0
LayerCount: 2
Fore
SplineSet
1072 1553 m 257,0,-1
 1051 1494 l 257,1,-1
 1552 1494 l 257,2,-1
 1573 1553 l 257,3,-1
 1072 1553 l 257,0,-1
1261 1518 m 257,4,-1
 708 0 l 257,5,-1
 769 0 l 257,6,-1
 1322 1518 l 257,7,-1
 1261 1518 l 257,4,-1
605 1550 m 257,8,-1
 582 1487 l 257,9,-1
 905 1487 l 257,10,-1
 928 1550 l 257,11,-1
 605 1550 l 257,8,-1
895 1550 m 257,12,-1
 343 34 l 257,13,-1
 402 34 l 257,14,-1
 954 1550 l 257,15,-1
 895 1550 l 257,12,-1
450 894 m 257,16,-1
 429 835 l 257,17,-1
 1037 835 l 257,18,-1
 1058 894 l 257,19,-1
 450 894 l 257,16,-1
40 65 m 257,20,-1
 16 0 l 257,21,-1
 390 0 l 257,22,-1
 414 65 l 257,23,-1
 40 65 l 257,20,-1
1444 1518 m 257,24,-1
 891 0 l 257,25,-1
 952 0 l 257,26,-1
 1505 1518 l 257,27,-1
 1444 1518 l 257,24,-1
1008 2062 m 257,28,-1
 921 1823 l 257,29,-1
 982 1823 l 257,30,-1
 1069 2062 l 257,31,-1
 1008 2062 l 257,28,-1
935 1866 m 257,32,-1
 914 1809 l 257,33,-1
 1597 1809 l 257,34,-1
 1618 1866 l 257,35,-1
 935 1866 l 257,32,-1
1557 1863 m 257,36,-1
 1441 1545 l 257,37,-1
 1501 1545 l 257,38,-1
 1617 1863 l 257,39,-1
 1557 1863 l 257,36,-1
EndSplineSet
EndChar

StartChar: uni0913
Encoding: 2323 2323 426
GlifName: uni0913
Width: 1024
VWidth: 0
GlyphClass: 2
Flags: W
AnchorPoint: "abvm_deva" 1608 1582 basechar 0
LayerCount: 2
Fore
SplineSet
1087 1549 m 257,0,-1
 1065 1489 l 257,1,-1
 1566 1489 l 257,2,-1
 1588 1549 l 257,3,-1
 1087 1549 l 257,0,-1
1261 1518 m 257,4,-1
 708 0 l 257,5,-1
 769 0 l 257,6,-1
 1322 1518 l 257,7,-1
 1261 1518 l 257,4,-1
605 1550 m 257,8,-1
 582 1487 l 257,9,-1
 905 1487 l 257,10,-1
 928 1550 l 257,11,-1
 605 1550 l 257,8,-1
895 1550 m 257,12,-1
 343 34 l 257,13,-1
 402 34 l 257,14,-1
 954 1550 l 257,15,-1
 895 1550 l 257,12,-1
450 894 m 257,16,-1
 429 835 l 257,17,-1
 1037 835 l 257,18,-1
 1058 894 l 257,19,-1
 450 894 l 257,16,-1
40 65 m 257,20,-1
 16 0 l 257,21,-1
 390 0 l 257,22,-1
 414 65 l 257,23,-1
 40 65 l 257,20,-1
1444 1518 m 257,24,-1
 891 0 l 257,25,-1
 952 0 l 257,26,-1
 1505 1518 l 257,27,-1
 1444 1518 l 257,24,-1
1347 1807 m 257,28,-1
 1327 1529 l 257,29,-1
 1410 1550 l 257,30,-1
 1427 1826 l 257,31,-1
 1347 1807 l 257,28,-1
EndSplineSet
EndChar

StartChar: uni0914
Encoding: 2324 2324 427
GlifName: uni0914
Width: 1024
VWidth: 0
GlyphClass: 2
Flags: W
AnchorPoint: "abvm_deva" 1619 1564 basechar 0
LayerCount: 2
Fore
SplineSet
1072 1553 m 257,0,-1
 1051 1494 l 257,1,-1
 1552 1494 l 257,2,-1
 1573 1553 l 257,3,-1
 1072 1553 l 257,0,-1
1261 1518 m 257,4,-1
 708 0 l 257,5,-1
 769 0 l 257,6,-1
 1322 1518 l 257,7,-1
 1261 1518 l 257,4,-1
605 1550 m 257,8,-1
 582 1487 l 257,9,-1
 905 1487 l 257,10,-1
 928 1550 l 257,11,-1
 605 1550 l 257,8,-1
895 1550 m 257,12,-1
 343 34 l 257,13,-1
 402 34 l 257,14,-1
 954 1550 l 257,15,-1
 895 1550 l 257,12,-1
450 894 m 257,16,-1
 429 835 l 257,17,-1
 1037 835 l 257,18,-1
 1058 894 l 257,19,-1
 450 894 l 257,16,-1
40 65 m 257,20,-1
 16 0 l 257,21,-1
 390 0 l 257,22,-1
 414 65 l 257,23,-1
 40 65 l 257,20,-1
1444 1518 m 257,24,-1
 891 0 l 257,25,-1
 952 0 l 257,26,-1
 1505 1518 l 257,27,-1
 1444 1518 l 257,24,-1
969 1767 m 257,28,-1
 1259 1525 l 257,29,-1
 1329 1540 l 257,30,-1
 1028 1816 l 257,31,-1
 969 1767 l 257,28,-1
1268 1905 m 257,32,-1
 1342 1550 l 257,33,-1
 1423 1550 l 257,34,-1
 1333 1937 l 257,35,-1
 1268 1905 l 257,32,-1
EndSplineSet
EndChar

StartChar: uni0915
Encoding: 2325 2325 428
GlifName: uni0915
Width: 1024
VWidth: 0
GlyphClass: 2
Flags: W
AnchorPoint: "abvm_deva" 1212 1582 basechar 0
AnchorPoint: "blwm_deva" 597 -50 basechar 0
LayerCount: 2
Fore
SplineSet
565 1553 m 257,0,-1
 543 1492 l 257,1,-1
 1567 1492 l 257,2,-1
 1589 1553 l 257,3,-1
 565 1553 l 257,0,-1
1147 1509 m 257,4,-1
 598 0 l 257,5,-1
 658 0 l 257,6,-1
 1207 1509 l 257,7,-1
 1147 1509 l 257,4,-1
570 1069 m 257,8,-1
 548 1008 l 257,9,-1
 907 1008 l 257,10,-1
 929 1069 l 257,11,-1
 570 1069 l 257,8,-1
559 1068 m 257,12,-1
 356 510 l 257,13,-1
 416 510 l 257,14,-1
 619 1068 l 257,15,-1
 559 1068 l 257,12,-1
393 572 m 257,16,-1
 371 511 l 257,17,-1
 831 511 l 257,18,-1
 853 572 l 257,19,-1
 393 572 l 257,16,-1
987 999 m 257,20,-1
 964 938 l 257,21,-1
 1229 938 l 257,22,-1
 1252 999 l 257,23,-1
 987 999 l 257,20,-1
1202 1000 m 257,24,-1
 1122 779 l 257,25,-1
 1184 779 l 257,26,-1
 1264 1000 l 257,27,-1
 1202 1000 l 257,24,-1
EndSplineSet
EndChar

StartChar: uni0915_uni0930_uni094D.vatu
Encoding: 65536 -1 429
GlifName: uni0915_uni0930_uni094D_.vatu
Width: 1024
VWidth: 0
GlyphClass: 3
Flags: W
LayerCount: 2
Fore
SplineSet
565 1553 m 257,0,-1
 543 1492 l 257,1,-1
 1567 1492 l 257,2,-1
 1589 1553 l 257,3,-1
 565 1553 l 257,0,-1
1147 1509 m 257,4,-1
 598 0 l 257,5,-1
 658 0 l 257,6,-1
 1207 1509 l 257,7,-1
 1147 1509 l 257,4,-1
570 1069 m 257,8,-1
 548 1008 l 257,9,-1
 892 1008 l 257,10,-1
 914 1069 l 257,11,-1
 570 1069 l 257,8,-1
559 1068 m 257,12,-1
 356 510 l 257,13,-1
 416 510 l 257,14,-1
 619 1068 l 257,15,-1
 559 1068 l 257,12,-1
393 572 m 257,16,-1
 371 511 l 257,17,-1
 831 511 l 257,18,-1
 853 572 l 257,19,-1
 393 572 l 257,16,-1
987 999 m 257,20,-1
 964 938 l 257,21,-1
 1229 938 l 257,22,-1
 1252 999 l 257,23,-1
 987 999 l 257,20,-1
1202 1000 m 257,24,-1
 1122 779 l 257,25,-1
 1184 779 l 257,26,-1
 1264 1000 l 257,27,-1
 1202 1000 l 257,24,-1
57 0 m 257,28,-1
 177 0 l 257,29,-1
 732 215 l 257,30,-1
 758 285 l 257,31,-1
 57 0 l 257,28,-1
EndSplineSet
Ligature2: "rkrfRakarVariantsinDevanagari2lookup0 subtable" uni0915 uni094D uni0930
EndChar

StartChar: uni0915_uni094D.half
Encoding: 65537 -1 430
GlifName: uni0915_uni094D_.half
Width: 1024
VWidth: 0
GlyphClass: 2
Flags: W
LayerCount: 2
Fore
SplineSet
565 1553 m 257,0,-1
 543 1492 l 257,1,-1
 1567 1492 l 257,2,-1
 1589 1553 l 257,3,-1
 565 1553 l 257,0,-1
1147 1509 m 257,4,-1
 598 0 l 257,5,-1
 658 0 l 257,6,-1
 1207 1509 l 257,7,-1
 1147 1509 l 257,4,-1
570 1069 m 257,8,-1
 548 1008 l 257,9,-1
 902 1008 l 257,10,-1
 924 1069 l 257,11,-1
 570 1069 l 257,8,-1
559 1068 m 257,12,-1
 356 510 l 257,13,-1
 416 510 l 257,14,-1
 619 1068 l 257,15,-1
 559 1068 l 257,12,-1
393 572 m 257,16,-1
 371 511 l 257,17,-1
 831 511 l 257,18,-1
 853 572 l 257,19,-1
 393 572 l 257,16,-1
987 999 m 257,20,-1
 964 938 l 257,21,-1
 1372 938 l 257,22,-1
 1395 999 l 257,23,-1
 987 999 l 257,20,-1
EndSplineSet
Ligature2: "halfHalfFormsinDevanagari2lookup0 subtable" uni0915 uni094D
EndChar

StartChar: uni0915_uni094D.haln
Encoding: 65538 -1 431
GlifName: uni0915_uni094D_.haln
Width: 1024
VWidth: 0
GlyphClass: 3
Flags: W
LayerCount: 2
Fore
SplineSet
565 1553 m 257,0,-1
 543 1492 l 257,1,-1
 1567 1492 l 257,2,-1
 1589 1553 l 257,3,-1
 565 1553 l 257,0,-1
1147 1509 m 257,4,-1
 598 0 l 257,5,-1
 658 0 l 257,6,-1
 1207 1509 l 257,7,-1
 1147 1509 l 257,4,-1
570 1069 m 257,8,-1
 548 1008 l 257,9,-1
 907 1008 l 257,10,-1
 929 1069 l 257,11,-1
 570 1069 l 257,8,-1
559 1068 m 257,12,-1
 356 510 l 257,13,-1
 416 510 l 257,14,-1
 619 1068 l 257,15,-1
 559 1068 l 257,12,-1
393 572 m 257,16,-1
 371 511 l 257,17,-1
 831 511 l 257,18,-1
 853 572 l 257,19,-1
 393 572 l 257,16,-1
987 999 m 257,20,-1
 964 938 l 257,21,-1
 1229 938 l 257,22,-1
 1252 999 l 257,23,-1
 987 999 l 257,20,-1
1202 1000 m 257,24,-1
 1122 779 l 257,25,-1
 1184 779 l 257,26,-1
 1264 1000 l 257,27,-1
 1202 1000 l 257,24,-1
617 -16 m 257,28,-1
 595 -77 l 257,29,-1
 939 -77 l 257,30,-1
 961 -16 l 257,31,-1
 617 -16 l 257,28,-1
912 -71 m 257,32,-1
 1096 -418 l 257,33,-1
 1145 -366 l 257,34,-1
 962 -15 l 257,35,-1
 912 -71 l 257,32,-1
EndSplineSet
Ligature2: "halnHalantFormsinDevanagari2lookup0 subtable" uni0915 uni094D
EndChar

StartChar: uni0915_uni094D_uni0937.akhn
Encoding: 65539 -1 432
GlifName: uni0915_uni094D__uni0937.akhn
Width: 1024
VWidth: 0
GlyphClass: 3
Flags: W
LayerCount: 2
Fore
SplineSet
1229 1550 m 257,0,-1
 1208 1491 l 257,1,-1
 1567 1491 l 257,2,-1
 1588 1550 l 257,3,-1
 1229 1550 l 257,0,-1
1412 1511 m 257,4,-1
 862 0 l 257,5,-1
 921 0 l 257,6,-1
 1471 1511 l 257,7,-1
 1412 1511 l 257,4,-1
518 1078 m 257,8,-1
 497 1018 l 257,9,-1
 1292 1018 l 257,10,-1
 1313 1078 l 257,11,-1
 518 1078 l 257,8,-1
498 1023 m 257,12,-1
 558 1023 l 257,13,-1
 704 1422 l 257,14,-1
 644 1422 l 257,15,-1
 498 1023 l 257,12,-1
649 1435 m 257,16,-1
 627 1374 l 257,17,-1
 1067 1374 l 257,18,-1
 1089 1435 l 257,19,-1
 649 1435 l 257,16,-1
1024 1422 m 257,20,-1
 881 1030 l 257,21,-1
 941 1030 l 257,22,-1
 1084 1422 l 257,23,-1
 1024 1422 l 257,20,-1
393 647 m 257,24,-1
 453 647 l 257,25,-1
 939 1028 l 257,26,-1
 881 1028 l 257,27,-1
 393 647 l 257,24,-1
393 647 m 257,28,-1
 231 200 l 257,29,-1
 291 200 l 257,30,-1
 453 647 l 257,31,-1
 393 647 l 257,28,-1
240 226 m 257,32,-1
 218 166 l 257,33,-1
 942 166 l 257,34,-1
 964 226 l 257,35,-1
 240 226 l 257,32,-1
EndSplineSet
Ligature2: "akhnAkhandinDevanagari2lookup0 subtable" uni0915 uni094D uni0937
EndChar

StartChar: uni0915_uni094D_uni0937.half
Encoding: 65540 -1 433
GlifName: uni0915_uni094D__uni0937.half
Width: 1024
VWidth: 0
GlyphClass: 3
Flags: W
LayerCount: 2
Fore
SplineSet
1229 1550 m 257,0,-1
 1208 1491 l 257,1,-1
 1567 1491 l 257,2,-1
 1588 1550 l 257,3,-1
 1229 1550 l 257,0,-1
518 1078 m 257,4,-1
 497 1018 l 257,5,-1
 1392 1018 l 257,6,-1
 1413 1078 l 257,7,-1
 518 1078 l 257,4,-1
498 1023 m 257,8,-1
 558 1023 l 257,9,-1
 704 1422 l 257,10,-1
 644 1422 l 257,11,-1
 498 1023 l 257,8,-1
649 1435 m 257,12,-1
 627 1374 l 257,13,-1
 1067 1374 l 257,14,-1
 1089 1435 l 257,15,-1
 649 1435 l 257,12,-1
1024 1422 m 257,16,-1
 881 1030 l 257,17,-1
 941 1030 l 257,18,-1
 1084 1422 l 257,19,-1
 1024 1422 l 257,16,-1
393 647 m 257,20,-1
 453 647 l 257,21,-1
 939 1028 l 257,22,-1
 881 1028 l 257,23,-1
 393 647 l 257,20,-1
393 647 m 257,24,-1
 231 200 l 257,25,-1
 291 200 l 257,26,-1
 453 647 l 257,27,-1
 393 647 l 257,24,-1
240 226 m 257,28,-1
 218 166 l 257,29,-1
 1042 166 l 257,30,-1
 1064 226 l 257,31,-1
 240 226 l 257,28,-1
EndSplineSet
Ligature2: "halfHalfFormsinDevanagari2lookup0 subtable" uni0915_uni094D_uni0937.akhn uni094D
EndChar

StartChar: uni0915_uni094D_uni0937_uni094D
Encoding: 65541 -1 434
GlifName: uni0915_uni094D__uni0937_uni094D_
Width: 1024
VWidth: 0
GlyphClass: 2
Flags: W
LayerCount: 2
Fore
SplineSet
1229 1550 m 257,0,-1
 1208 1491 l 257,1,-1
 1567 1491 l 257,2,-1
 1588 1550 l 257,3,-1
 1229 1550 l 257,0,-1
1412 1511 m 257,4,-1
 862 0 l 257,5,-1
 921 0 l 257,6,-1
 1471 1511 l 257,7,-1
 1412 1511 l 257,4,-1
518 1078 m 257,8,-1
 497 1018 l 257,9,-1
 1292 1018 l 257,10,-1
 1313 1078 l 257,11,-1
 518 1078 l 257,8,-1
498 1023 m 257,12,-1
 558 1023 l 257,13,-1
 704 1422 l 257,14,-1
 644 1422 l 257,15,-1
 498 1023 l 257,12,-1
649 1435 m 257,16,-1
 627 1374 l 257,17,-1
 1067 1374 l 257,18,-1
 1089 1435 l 257,19,-1
 649 1435 l 257,16,-1
1024 1422 m 257,20,-1
 881 1030 l 257,21,-1
 941 1030 l 257,22,-1
 1084 1422 l 257,23,-1
 1024 1422 l 257,20,-1
393 647 m 257,24,-1
 453 647 l 257,25,-1
 939 1028 l 257,26,-1
 881 1028 l 257,27,-1
 393 647 l 257,24,-1
393 647 m 257,28,-1
 231 200 l 257,29,-1
 291 200 l 257,30,-1
 453 647 l 257,31,-1
 393 647 l 257,28,-1
240 226 m 257,32,-1
 218 166 l 257,33,-1
 942 166 l 257,34,-1
 964 226 l 257,35,-1
 240 226 l 257,32,-1
770 -16 m 257,36,-1
 748 -77 l 257,37,-1
 1092 -77 l 257,38,-1
 1114 -16 l 257,39,-1
 770 -16 l 257,36,-1
1065 -71 m 257,40,-1
 1249 -418 l 257,41,-1
 1298 -366 l 257,42,-1
 1115 -15 l 257,43,-1
 1065 -71 l 257,40,-1
EndSplineSet
Ligature2: "halnHalantFormsinDevanagari2lookup0 subtable" uni0915_uni094D_uni0937.akhn uni094D
EndChar

StartChar: uni0916
Encoding: 2326 2326 435
GlifName: uni0916
Width: 1024
VWidth: 0
GlyphClass: 2
Flags: W
AnchorPoint: "abvm_deva" 1445 1621 basechar 0
AnchorPoint: "blwm_deva" 860 -46 basechar 0
LayerCount: 2
Fore
SplineSet
565 1553 m 257,0,-1
 544 1496 l 257,1,-1
 1570 1496 l 257,2,-1
 1591 1553 l 257,3,-1
 565 1553 l 257,0,-1
1383 1514 m 257,4,-1
 832 0 l 257,5,-1
 894 0 l 257,6,-1
 1445 1514 l 257,7,-1
 1383 1514 l 257,4,-1
770 979 m 257,8,-1
 748 919 l 257,9,-1
 1010 919 l 257,10,-1
 1032 979 l 257,11,-1
 770 979 l 257,8,-1
740 979 m 257,12,-1
 535 414 l 257,13,-1
 595 414 l 257,14,-1
 800 979 l 257,15,-1
 740 979 l 257,12,-1
540 429 m 257,16,-1
 518 368 l 257,17,-1
 982 368 l 257,18,-1
 1004 429 l 257,19,-1
 540 429 l 257,16,-1
736 1510 m 257,20,-1
 230 120 l 257,21,-1
 292 120 l 257,22,-1
 798 1510 l 257,23,-1
 736 1510 l 257,20,-1
276 714 m 257,24,-1
 254 654 l 257,25,-1
 484 654 l 257,26,-1
 506 714 l 257,27,-1
 276 714 l 257,24,-1
233 130 m 257,28,-1
 211 70 l 257,29,-1
 855 70 l 257,30,-1
 877 130 l 257,31,-1
 233 130 l 257,28,-1
EndSplineSet
EndChar

StartChar: uni0916_uni0930_uni094D.vatu
Encoding: 65542 -1 436
GlifName: uni0916_uni0930_uni094D_.vatu
Width: 1024
VWidth: 0
GlyphClass: 3
Flags: W
LayerCount: 2
Fore
SplineSet
239 0 m 257,0,-1
 359 0 l 257,1,-1
 914 215 l 257,2,-1
 940 285 l 257,3,-1
 239 0 l 257,0,-1
565 1553 m 257,4,-1
 544 1496 l 257,5,-1
 1570 1496 l 257,6,-1
 1591 1553 l 257,7,-1
 565 1553 l 257,4,-1
1383 1514 m 257,8,-1
 832 0 l 257,9,-1
 894 0 l 257,10,-1
 1445 1514 l 257,11,-1
 1383 1514 l 257,8,-1
880 1279 m 257,12,-1
 858 1219 l 257,13,-1
 1120 1219 l 257,14,-1
 1142 1279 l 257,15,-1
 880 1279 l 257,12,-1
850 1279 m 257,16,-1
 644 714 l 257,17,-1
 704 714 l 257,18,-1
 910 1279 l 257,19,-1
 850 1279 l 257,16,-1
649 729 m 257,20,-1
 627 668 l 257,21,-1
 1091 668 l 257,22,-1
 1113 729 l 257,23,-1
 649 729 l 257,20,-1
736 1510 m 257,24,-1
 339 420 l 257,25,-1
 401 420 l 257,26,-1
 798 1510 l 257,27,-1
 736 1510 l 257,24,-1
385 1014 m 257,28,-1
 363 954 l 257,29,-1
 593 954 l 257,30,-1
 615 1014 l 257,31,-1
 385 1014 l 257,28,-1
343 430 m 257,32,-1
 321 370 l 257,33,-1
 965 370 l 257,34,-1
 987 430 l 257,35,-1
 343 430 l 257,32,-1
EndSplineSet
Ligature2: "rkrfRakarVariantsinDevanagari2lookup0 subtable" uni0916 uni094D uni0930
EndChar

StartChar: uni0916_uni094D.half
Encoding: 65543 -1 437
GlifName: uni0916_uni094D_.half
Width: 1024
VWidth: 0
GlyphClass: 2
Flags: W
LayerCount: 2
Fore
SplineSet
565 1553 m 257,0,-1
 544 1496 l 257,1,-1
 1570 1496 l 257,2,-1
 1591 1553 l 257,3,-1
 565 1553 l 257,0,-1
770 979 m 257,4,-1
 748 919 l 257,5,-1
 1185 919 l 257,6,-1
 1207 979 l 257,7,-1
 770 979 l 257,4,-1
740 979 m 257,8,-1
 535 414 l 257,9,-1
 595 414 l 257,10,-1
 800 979 l 257,11,-1
 740 979 l 257,8,-1
540 429 m 257,12,-1
 518 368 l 257,13,-1
 1158 368 l 257,14,-1
 1180 429 l 257,15,-1
 540 429 l 257,12,-1
736 1510 m 257,16,-1
 230 120 l 257,17,-1
 292 120 l 257,18,-1
 798 1510 l 257,19,-1
 736 1510 l 257,16,-1
276 714 m 257,20,-1
 254 654 l 257,21,-1
 484 654 l 257,22,-1
 506 714 l 257,23,-1
 276 714 l 257,20,-1
233 130 m 257,24,-1
 211 70 l 257,25,-1
 1031 70 l 257,26,-1
 1053 130 l 257,27,-1
 233 130 l 257,24,-1
EndSplineSet
Ligature2: "halfHalfFormsinDevanagari2lookup0 subtable" uni0916 uni094D
EndChar

StartChar: uni0916_uni094D.haln
Encoding: 65544 -1 438
GlifName: uni0916_uni094D_.haln
Width: 1024
VWidth: 0
GlyphClass: 3
Flags: W
LayerCount: 2
Fore
SplineSet
565 1553 m 257,0,-1
 544 1496 l 257,1,-1
 1570 1496 l 257,2,-1
 1591 1553 l 257,3,-1
 565 1553 l 257,0,-1
1383 1514 m 257,4,-1
 832 0 l 257,5,-1
 894 0 l 257,6,-1
 1445 1514 l 257,7,-1
 1383 1514 l 257,4,-1
770 979 m 257,8,-1
 748 919 l 257,9,-1
 1010 919 l 257,10,-1
 1032 979 l 257,11,-1
 770 979 l 257,8,-1
740 979 m 257,12,-1
 535 414 l 257,13,-1
 595 414 l 257,14,-1
 800 979 l 257,15,-1
 740 979 l 257,12,-1
540 429 m 257,16,-1
 518 368 l 257,17,-1
 982 368 l 257,18,-1
 1004 429 l 257,19,-1
 540 429 l 257,16,-1
736 1510 m 257,20,-1
 230 120 l 257,21,-1
 292 120 l 257,22,-1
 798 1510 l 257,23,-1
 736 1510 l 257,20,-1
276 714 m 257,24,-1
 254 654 l 257,25,-1
 484 654 l 257,26,-1
 506 714 l 257,27,-1
 276 714 l 257,24,-1
233 130 m 257,28,-1
 211 70 l 257,29,-1
 855 70 l 257,30,-1
 877 130 l 257,31,-1
 233 130 l 257,28,-1
617 -16 m 257,32,-1
 595 -77 l 257,33,-1
 939 -77 l 257,34,-1
 961 -16 l 257,35,-1
 617 -16 l 257,32,-1
912 -71 m 257,36,-1
 1096 -418 l 257,37,-1
 1145 -366 l 257,38,-1
 962 -15 l 257,39,-1
 912 -71 l 257,36,-1
EndSplineSet
Ligature2: "halnHalantFormsinDevanagari2lookup0 subtable" uni0916 uni094D
EndChar

StartChar: uni0917
Encoding: 2327 2327 439
GlifName: uni0917
Width: 1024
VWidth: 0
GlyphClass: 2
Flags: W
AnchorPoint: "abvm_deva" 1418 1554 basechar 0
AnchorPoint: "blwm_deva" 844 -64 basechar 0
LayerCount: 2
Fore
SplineSet
367 853 m 257,0,-1
 437 853 l 257,1,-1
 507 1044 l 257,2,-1
 437 1044 l 257,3,-1
 367 853 l 257,0,-1
378 882 m 257,4,-1
 353 812 l 257,5,-1
 700 812 l 257,6,-1
 725 882 l 257,7,-1
 378 882 l 257,4,-1
899 1553 m 257,8,-1
 630 812 l 257,9,-1
 700 812 l 257,10,-1
 969 1553 l 257,11,-1
 899 1553 l 257,8,-1
1532 1553 m 257,12,-1
 781 1553 l 257,13,-1
 760 1496 l 257,14,-1
 1512 1496 l 257,15,-1
 1532 1553 l 257,12,-1
1370 1523 m 257,16,-1
 816 0 l 257,17,-1
 886 0 l 257,18,-1
 1440 1523 l 257,19,-1
 1370 1523 l 257,16,-1
EndSplineSet
EndChar

StartChar: uni0917_uni0930_uni094D.vatu
Encoding: 65545 -1 440
GlifName: uni0917_uni0930_uni094D_.vatu
Width: 1024
VWidth: 0
GlyphClass: 3
Flags: W
LayerCount: 2
Fore
SplineSet
238 0 m 257,0,-1
 358 0 l 257,1,-1
 913 215 l 257,2,-1
 939 285 l 257,3,-1
 238 0 l 257,0,-1
367 853 m 257,4,-1
 437 853 l 257,5,-1
 507 1044 l 257,6,-1
 437 1044 l 257,7,-1
 367 853 l 257,4,-1
378 882 m 257,8,-1
 353 812 l 257,9,-1
 700 812 l 257,10,-1
 725 882 l 257,11,-1
 378 882 l 257,8,-1
899 1553 m 257,12,-1
 630 812 l 257,13,-1
 700 812 l 257,14,-1
 969 1553 l 257,15,-1
 899 1553 l 257,12,-1
1532 1553 m 257,16,-1
 781 1553 l 257,17,-1
 760 1496 l 257,18,-1
 1512 1496 l 257,19,-1
 1532 1553 l 257,16,-1
1370 1523 m 257,20,-1
 816 0 l 257,21,-1
 886 0 l 257,22,-1
 1440 1523 l 257,23,-1
 1370 1523 l 257,20,-1
EndSplineSet
Ligature2: "rkrfRakarVariantsinDevanagari2lookup0 subtable" uni0917 uni094D uni0930
EndChar

StartChar: uni0917_uni094D.half
Encoding: 65546 -1 441
GlifName: uni0917_uni094D_.half
Width: 1024
VWidth: 0
GlyphClass: 3
Flags: W
LayerCount: 2
Fore
SplineSet
367 853 m 257,0,-1
 437 853 l 257,1,-1
 507 1044 l 257,2,-1
 437 1044 l 257,3,-1
 367 853 l 257,0,-1
378 882 m 257,4,-1
 353 812 l 257,5,-1
 700 812 l 257,6,-1
 725 882 l 257,7,-1
 378 882 l 257,4,-1
899 1553 m 257,8,-1
 630 812 l 257,9,-1
 700 812 l 257,10,-1
 969 1553 l 257,11,-1
 899 1553 l 257,8,-1
1532 1553 m 257,12,-1
 781 1553 l 257,13,-1
 760 1496 l 257,14,-1
 1512 1496 l 257,15,-1
 1532 1553 l 257,12,-1
EndSplineSet
Ligature2: "halfHalfFormsinDevanagari2lookup0 subtable" uni0917 uni094D
EndChar

StartChar: uni0917_uni094D.haln
Encoding: 65547 -1 442
GlifName: uni0917_uni094D_.haln
Width: 1024
VWidth: 0
GlyphClass: 3
Flags: W
LayerCount: 2
Fore
SplineSet
367 853 m 257,0,-1
 437 853 l 257,1,-1
 507 1044 l 257,2,-1
 437 1044 l 257,3,-1
 367 853 l 257,0,-1
378 882 m 257,4,-1
 353 812 l 257,5,-1
 700 812 l 257,6,-1
 725 882 l 257,7,-1
 378 882 l 257,4,-1
899 1553 m 257,8,-1
 630 812 l 257,9,-1
 700 812 l 257,10,-1
 969 1553 l 257,11,-1
 899 1553 l 257,8,-1
1532 1553 m 257,12,-1
 781 1553 l 257,13,-1
 760 1496 l 257,14,-1
 1512 1496 l 257,15,-1
 1532 1553 l 257,12,-1
1370 1523 m 257,16,-1
 816 0 l 257,17,-1
 886 0 l 257,18,-1
 1440 1523 l 257,19,-1
 1370 1523 l 257,16,-1
617 -16 m 257,20,-1
 595 -77 l 257,21,-1
 939 -77 l 257,22,-1
 961 -16 l 257,23,-1
 617 -16 l 257,20,-1
912 -71 m 257,24,-1
 1096 -418 l 257,25,-1
 1145 -366 l 257,26,-1
 962 -15 l 257,27,-1
 912 -71 l 257,24,-1
EndSplineSet
Ligature2: "halnHalantFormsinDevanagari2lookup0 subtable" uni0917 uni094D
EndChar

StartChar: uni0918
Encoding: 2328 2328 443
GlifName: uni0918
Width: 1024
VWidth: 0
GlyphClass: 2
Flags: W
AnchorPoint: "abvm_deva" 1321 1618 basechar 0
AnchorPoint: "blwm_deva" 876 -27 basechar 0
LayerCount: 2
Fore
SplineSet
565 1553 m 257,0,-1
 544 1495 l 257,1,-1
 1566 1495 l 257,2,-1
 1587 1553 l 257,3,-1
 565 1553 l 257,0,-1
1396 1522 m 257,4,-1
 847 13 l 257,5,-1
 907 13 l 257,6,-1
 1456 1522 l 257,7,-1
 1396 1522 l 257,4,-1
725 1515 m 257,8,-1
 487 859 l 257,9,-1
 545 859 l 257,10,-1
 783 1515 l 257,11,-1
 725 1515 l 257,8,-1
534 867 m 257,12,-1
 512 807 l 257,13,-1
 756 807 l 257,14,-1
 778 867 l 257,15,-1
 534 867 l 257,12,-1
299 328 m 257,16,-1
 278 269 l 257,17,-1
 976 269 l 257,18,-1
 997 328 l 257,19,-1
 299 328 l 257,16,-1
272 269 m 257,20,-1
 332 269 l 257,21,-1
 530 814 l 257,22,-1
 470 814 l 257,23,-1
 272 269 l 257,20,-1
EndSplineSet
EndChar

StartChar: uni0918_uni0930_uni094D.vatu
Encoding: 65548 -1 444
GlifName: uni0918_uni0930_uni094D_.vatu
Width: 1024
VWidth: 0
GlyphClass: 3
Flags: W
LayerCount: 2
Fore
SplineSet
261 0 m 257,0,-1
 381 0 l 257,1,-1
 936 215 l 257,2,-1
 962 285 l 257,3,-1
 261 0 l 257,0,-1
565 1553 m 257,4,-1
 544 1495 l 257,5,-1
 1566 1495 l 257,6,-1
 1587 1553 l 257,7,-1
 565 1553 l 257,4,-1
1396 1522 m 257,8,-1
 847 13 l 257,9,-1
 907 13 l 257,10,-1
 1456 1522 l 257,11,-1
 1396 1522 l 257,8,-1
725 1515 m 257,12,-1
 487 859 l 257,13,-1
 545 859 l 257,14,-1
 783 1515 l 257,15,-1
 725 1515 l 257,12,-1
534 867 m 257,16,-1
 512 807 l 257,17,-1
 756 807 l 257,18,-1
 778 867 l 257,19,-1
 534 867 l 257,16,-1
299 328 m 257,20,-1
 278 269 l 257,21,-1
 976 269 l 257,22,-1
 997 328 l 257,23,-1
 299 328 l 257,20,-1
272 269 m 257,24,-1
 332 269 l 257,25,-1
 530 814 l 257,26,-1
 470 814 l 257,27,-1
 272 269 l 257,24,-1
EndSplineSet
Ligature2: "rkrfRakarVariantsinDevanagari2lookup0 subtable" uni0918 uni094D uni0930
EndChar

StartChar: uni0918_uni094D.half
Encoding: 65549 -1 445
GlifName: uni0918_uni094D_.half
Width: 1024
VWidth: 0
GlyphClass: 3
Flags: W
LayerCount: 2
Fore
SplineSet
565 1553 m 257,0,-1
 544 1495 l 257,1,-1
 1566 1495 l 257,2,-1
 1587 1553 l 257,3,-1
 565 1553 l 257,0,-1
725 1515 m 257,4,-1
 487 859 l 257,5,-1
 545 859 l 257,6,-1
 783 1515 l 257,7,-1
 725 1515 l 257,4,-1
534 867 m 257,8,-1
 512 807 l 257,9,-1
 756 807 l 257,10,-1
 778 867 l 257,11,-1
 534 867 l 257,8,-1
299 328 m 257,12,-1
 278 269 l 257,13,-1
 1176 269 l 257,14,-1
 1197 328 l 257,15,-1
 299 328 l 257,12,-1
272 269 m 257,16,-1
 332 269 l 257,17,-1
 530 814 l 257,18,-1
 470 814 l 257,19,-1
 272 269 l 257,16,-1
EndSplineSet
Ligature2: "halfHalfFormsinDevanagari2lookup0 subtable" uni0918 uni094D
EndChar

StartChar: uni0918_uni094D.haln
Encoding: 65550 -1 446
GlifName: uni0918_uni094D_.haln
Width: 1024
VWidth: 0
GlyphClass: 3
Flags: W
LayerCount: 2
Fore
SplineSet
565 1553 m 257,0,-1
 544 1495 l 257,1,-1
 1566 1495 l 257,2,-1
 1587 1553 l 257,3,-1
 565 1553 l 257,0,-1
1396 1522 m 257,4,-1
 847 13 l 257,5,-1
 907 13 l 257,6,-1
 1456 1522 l 257,7,-1
 1396 1522 l 257,4,-1
725 1515 m 257,8,-1
 487 859 l 257,9,-1
 545 859 l 257,10,-1
 783 1515 l 257,11,-1
 725 1515 l 257,8,-1
534 867 m 257,12,-1
 512 807 l 257,13,-1
 756 807 l 257,14,-1
 778 867 l 257,15,-1
 534 867 l 257,12,-1
299 328 m 257,16,-1
 278 269 l 257,17,-1
 976 269 l 257,18,-1
 997 328 l 257,19,-1
 299 328 l 257,16,-1
272 269 m 257,20,-1
 332 269 l 257,21,-1
 530 814 l 257,22,-1
 470 814 l 257,23,-1
 272 269 l 257,20,-1
617 -16 m 257,24,-1
 595 -77 l 257,25,-1
 939 -77 l 257,26,-1
 961 -16 l 257,27,-1
 617 -16 l 257,24,-1
912 -71 m 257,28,-1
 1096 -418 l 257,29,-1
 1145 -366 l 257,30,-1
 962 -15 l 257,31,-1
 912 -71 l 257,28,-1
EndSplineSet
Ligature2: "halnHalantFormsinDevanagari2lookup0 subtable" uni0918 uni094D
EndChar

StartChar: uni0919
Encoding: 2329 2329 447
GlifName: uni0919
Width: 1024
VWidth: 0
GlyphClass: 2
Flags: W
AnchorPoint: "abvm_deva" 1206 1582 basechar 0
AnchorPoint: "blwm_deva" 432 -145 basechar 0
LayerCount: 2
Fore
SplineSet
565 1553 m 257,0,-1
 544 1494 l 257,1,-1
 1569 1494 l 257,2,-1
 1590 1553 l 257,3,-1
 565 1553 l 257,0,-1
1214 1543 m 257,4,-1
 1024 1023 l 257,5,-1
 1084 1023 l 257,6,-1
 1274 1543 l 257,7,-1
 1214 1543 l 257,4,-1
1098 1086 m 257,8,-1
 635 1086 l 257,9,-1
 612 1023 l 257,10,-1
 1075 1023 l 257,11,-1
 1098 1086 l 257,8,-1
622 1083 m 257,12,-1
 457 629 l 257,13,-1
 529 629 l 257,14,-1
 694 1083 l 257,15,-1
 622 1083 l 257,12,-1
482 680 m 257,16,-1
 460 620 l 257,17,-1
 1015 620 l 257,18,-1
 1036 680 l 257,19,-1
 482 680 l 257,16,-1
974 680 m 257,20,-1
 737 29 l 257,21,-1
 800 29 l 257,22,-1
 1036 680 l 257,23,-1
 974 680 l 257,20,-1
137 61 m 257,24,-1
 115 0 l 257,25,-1
 790 0 l 257,26,-1
 812 61 l 257,27,-1
 137 61 l 257,24,-1
189 202 m 257,28,-1
 118 8 l 257,29,-1
 178 8 l 257,30,-1
 249 202 l 257,31,-1
 189 202 l 257,28,-1
1113 931 m 257,32,-1
 1078 835 l 257,33,-1
 1174 835 l 257,34,-1
 1209 931 l 257,35,-1
 1113 931 l 257,32,-1
EndSplineSet
EndChar

StartChar: uni0919_uni0930_uni094D.vatu
Encoding: 65551 -1 448
GlifName: uni0919_uni0930_uni094D_.vatu
Width: 1024
VWidth: 0
GlyphClass: 3
Flags: W
LayerCount: 2
Fore
SplineSet
474 220 m 257,0,-1
 534 -119 l 257,1,-1
 602 -119 l 257,2,-1
 542 287 l 257,3,-1
 474 220 l 257,0,-1
542 287 m 257,4,-1
 139 -106 l 257,5,-1
 207 -106 l 257,6,-1
 551 228 l 257,7,-1
 542 287 l 257,4,-1
565 1553 m 257,8,-1
 544 1494 l 257,9,-1
 1569 1494 l 257,10,-1
 1590 1553 l 257,11,-1
 565 1553 l 257,8,-1
1214 1543 m 257,12,-1
 1135 1326 l 257,13,-1
 1195 1326 l 257,14,-1
 1274 1543 l 257,15,-1
 1214 1543 l 257,12,-1
1207 1386 m 257,16,-1
 744 1386 l 257,17,-1
 723 1326 l 257,18,-1
 1186 1326 l 257,19,-1
 1207 1386 l 257,16,-1
731 1383 m 257,20,-1
 566 929 l 257,21,-1
 638 929 l 257,22,-1
 803 1383 l 257,23,-1
 731 1383 l 257,20,-1
591 980 m 257,24,-1
 569 920 l 257,25,-1
 1124 920 l 257,26,-1
 1146 980 l 257,27,-1
 591 980 l 257,24,-1
1083 980 m 257,28,-1
 846 329 l 257,29,-1
 909 329 l 257,30,-1
 1146 980 l 257,31,-1
 1083 980 l 257,28,-1
246 361 m 257,32,-1
 224 300 l 257,33,-1
 899 300 l 257,34,-1
 921 361 l 257,35,-1
 246 361 l 257,32,-1
298 502 m 257,36,-1
 227 308 l 257,37,-1
 287 308 l 257,38,-1
 358 502 l 257,39,-1
 298 502 l 257,36,-1
1222 1231 m 257,40,-1
 1187 1135 l 257,41,-1
 1283 1135 l 257,42,-1
 1318 1231 l 257,43,-1
 1222 1231 l 257,40,-1
EndSplineSet
Ligature2: "rkrfRakarVariantsinDevanagari2lookup0 subtable" uni0919 uni094D uni0930
EndChar

StartChar: uni0919_uni094D.half
Encoding: 65552 -1 449
GlifName: uni0919_uni094D_.half
Width: 1024
VWidth: 0
GlyphClass: 3
Flags: W
LayerCount: 2
Fore
SplineSet
564 1550 m 257,0,-1
 543 1491 l 257,1,-1
 1565 1491 l 257,2,-1
 1586 1550 l 257,3,-1
 564 1550 l 257,0,-1
1211 1543 m 257,4,-1
 1021 1023 l 257,5,-1
 1081 1023 l 257,6,-1
 1271 1543 l 257,7,-1
 1211 1543 l 257,4,-1
1094 1083 m 257,8,-1
 620 1083 l 257,9,-1
 598 1023 l 257,10,-1
 1072 1023 l 257,11,-1
 1094 1083 l 257,8,-1
619 1083 m 257,12,-1
 454 629 l 257,13,-1
 521 629 l 257,14,-1
 686 1083 l 257,15,-1
 619 1083 l 257,12,-1
476 690 m 257,16,-1
 451 620 l 257,17,-1
 1012 620 l 257,18,-1
 1037 690 l 257,19,-1
 476 690 l 257,16,-1
972 680 m 257,20,-1
 816 254 l 257,21,-1
 878 254 l 257,22,-1
 1034 680 l 257,23,-1
 972 680 l 257,20,-1
215 284 m 257,24,-1
 194 224 l 257,25,-1
 869 224 l 257,26,-1
 890 284 l 257,27,-1
 215 284 l 257,24,-1
315 559 m 257,28,-1
 197 233 l 257,29,-1
 258 233 l 257,30,-1
 376 559 l 257,31,-1
 315 559 l 257,28,-1
1165 968 m 257,32,-1
 1137 890 l 257,33,-1
 1212 890 l 257,34,-1
 1240 968 l 257,35,-1
 1165 968 l 257,32,-1
391 144 m 257,36,-1
 245 83 l 257,37,-1
 602 83 l 257,38,-1
 748 144 l 257,39,-1
 391 144 l 257,36,-1
602 83 m 257,40,-1
 865 -112 l 257,41,-1
 910 -91 l 257,42,-1
 748 144 l 257,43,-1
 602 83 l 257,40,-1
EndSplineSet
Ligature2: "halfHalfFormsinDevanagari2lookup0 subtable" uni0919 uni094D
EndChar

StartChar: uni0919_uni094D.haln
Encoding: 65553 -1 450
GlifName: uni0919_uni094D_.haln
Width: 1024
VWidth: 0
GlyphClass: 3
Flags: W
LayerCount: 2
Fore
SplineSet
565 1553 m 257,0,-1
 544 1494 l 257,1,-1
 1569 1494 l 257,2,-1
 1590 1553 l 257,3,-1
 565 1553 l 257,0,-1
1214 1543 m 257,4,-1
 1024 1023 l 257,5,-1
 1084 1023 l 257,6,-1
 1274 1543 l 257,7,-1
 1214 1543 l 257,4,-1
1098 1086 m 257,8,-1
 635 1086 l 257,9,-1
 612 1023 l 257,10,-1
 1075 1023 l 257,11,-1
 1098 1086 l 257,8,-1
622 1083 m 257,12,-1
 457 629 l 257,13,-1
 529 629 l 257,14,-1
 694 1083 l 257,15,-1
 622 1083 l 257,12,-1
482 680 m 257,16,-1
 460 620 l 257,17,-1
 1015 620 l 257,18,-1
 1036 680 l 257,19,-1
 482 680 l 257,16,-1
974 680 m 257,20,-1
 737 29 l 257,21,-1
 800 29 l 257,22,-1
 1036 680 l 257,23,-1
 974 680 l 257,20,-1
137 61 m 257,24,-1
 115 0 l 257,25,-1
 790 0 l 257,26,-1
 812 61 l 257,27,-1
 137 61 l 257,24,-1
189 202 m 257,28,-1
 118 8 l 257,29,-1
 178 8 l 257,30,-1
 249 202 l 257,31,-1
 189 202 l 257,28,-1
1113 931 m 257,32,-1
 1078 835 l 257,33,-1
 1174 835 l 257,34,-1
 1209 931 l 257,35,-1
 1113 931 l 257,32,-1
617 -16 m 257,36,-1
 595 -77 l 257,37,-1
 939 -77 l 257,38,-1
 961 -16 l 257,39,-1
 617 -16 l 257,36,-1
912 -71 m 257,40,-1
 1096 -418 l 257,41,-1
 1145 -366 l 257,42,-1
 962 -15 l 257,43,-1
 912 -71 l 257,40,-1
EndSplineSet
Ligature2: "halnHalantFormsinDevanagari2lookup0 subtable" uni0919 uni094D
EndChar

StartChar: uni091A
Encoding: 2330 2330 451
GlifName: uni091A_
Width: 1024
VWidth: 0
GlyphClass: 2
Flags: W
AnchorPoint: "abvm_deva" 1311 1624 basechar 0
AnchorPoint: "blwm_deva" 761 -111 basechar 0
LayerCount: 2
Fore
SplineSet
565 1553 m 257,0,-1
 545 1497 l 257,1,-1
 1568 1497 l 257,2,-1
 1588 1553 l 257,3,-1
 565 1553 l 257,0,-1
1343 1553 m 257,4,-1
 778 0 l 257,5,-1
 837 0 l 257,6,-1
 1402 1553 l 257,7,-1
 1343 1553 l 257,4,-1
957 421 m 257,8,-1
 979 480 l 257,9,-1
 472 480 l 257,10,-1
 450 421 l 257,11,-1
 957 421 l 257,8,-1
602 837 m 257,12,-1
 450 421 l 257,13,-1
 509 421 l 257,14,-1
 661 837 l 257,15,-1
 602 837 l 257,12,-1
383 852 m 257,16,-1
 361 791 l 257,17,-1
 786 791 l 257,18,-1
 808 852 l 257,19,-1
 383 852 l 257,16,-1
EndSplineSet
EndChar

StartChar: uni091A_uni0930_uni094D.vatu
Encoding: 65554 -1 452
GlifName: uni091A__uni0930_uni094D_.vatu
Width: 1024
VWidth: 0
GlyphClass: 2
Flags: W
LayerCount: 2
Fore
SplineSet
208 0 m 257,0,-1
 328 0 l 257,1,-1
 883 215 l 257,2,-1
 909 285 l 257,3,-1
 208 0 l 257,0,-1
565 1553 m 257,4,-1
 545 1497 l 257,5,-1
 1568 1497 l 257,6,-1
 1588 1553 l 257,7,-1
 565 1553 l 257,4,-1
1343 1553 m 257,8,-1
 778 0 l 257,9,-1
 837 0 l 257,10,-1
 1402 1553 l 257,11,-1
 1343 1553 l 257,8,-1
957 421 m 257,12,-1
 979 480 l 257,13,-1
 472 480 l 257,14,-1
 450 421 l 257,15,-1
 957 421 l 257,12,-1
602 837 m 257,16,-1
 450 421 l 257,17,-1
 509 421 l 257,18,-1
 661 837 l 257,19,-1
 602 837 l 257,16,-1
383 852 m 257,20,-1
 361 791 l 257,21,-1
 786 791 l 257,22,-1
 808 852 l 257,23,-1
 383 852 l 257,20,-1
EndSplineSet
Ligature2: "rkrfRakarVariantsinDevanagari2lookup0 subtable" uni091A uni094D uni0930
EndChar

StartChar: uni091A_uni094D.half
Encoding: 65555 -1 453
GlifName: uni091A__uni094D_.half
Width: 1024
VWidth: 0
GlyphClass: 3
Flags: W
LayerCount: 2
Fore
SplineSet
565 1553 m 257,0,-1
 545 1497 l 257,1,-1
 1568 1497 l 257,2,-1
 1588 1553 l 257,3,-1
 565 1553 l 257,0,-1
1257 421 m 257,4,-1
 1279 480 l 257,5,-1
 472 480 l 257,6,-1
 450 421 l 257,7,-1
 1257 421 l 257,4,-1
602 837 m 257,8,-1
 450 421 l 257,9,-1
 509 421 l 257,10,-1
 661 837 l 257,11,-1
 602 837 l 257,8,-1
383 852 m 257,12,-1
 361 791 l 257,13,-1
 786 791 l 257,14,-1
 808 852 l 257,15,-1
 383 852 l 257,12,-1
EndSplineSet
Ligature2: "halfHalfFormsinDevanagari2lookup0 subtable" uni091A uni094D
EndChar

StartChar: uni091A_uni094D.haln
Encoding: 65556 -1 454
GlifName: uni091A__uni094D_.haln
Width: 1024
VWidth: 0
GlyphClass: 3
Flags: W
LayerCount: 2
Fore
SplineSet
565 1553 m 257,0,-1
 545 1497 l 257,1,-1
 1568 1497 l 257,2,-1
 1588 1553 l 257,3,-1
 565 1553 l 257,0,-1
1343 1553 m 257,4,-1
 778 0 l 257,5,-1
 837 0 l 257,6,-1
 1402 1553 l 257,7,-1
 1343 1553 l 257,4,-1
957 421 m 257,8,-1
 979 480 l 257,9,-1
 472 480 l 257,10,-1
 450 421 l 257,11,-1
 957 421 l 257,8,-1
602 837 m 257,12,-1
 450 421 l 257,13,-1
 509 421 l 257,14,-1
 661 837 l 257,15,-1
 602 837 l 257,12,-1
383 852 m 257,16,-1
 361 791 l 257,17,-1
 786 791 l 257,18,-1
 808 852 l 257,19,-1
 383 852 l 257,16,-1
617 -16 m 257,20,-1
 595 -77 l 257,21,-1
 939 -77 l 257,22,-1
 961 -16 l 257,23,-1
 617 -16 l 257,20,-1
912 -71 m 257,24,-1
 1096 -418 l 257,25,-1
 1145 -366 l 257,26,-1
 962 -15 l 257,27,-1
 912 -71 l 257,24,-1
EndSplineSet
Ligature2: "halnHalantFormsinDevanagari2lookup0 subtable" uni091A uni094D
EndChar

StartChar: uni091B
Encoding: 2331 2331 455
GlifName: uni091B_
Width: 1024
VWidth: 0
GlyphClass: 2
Flags: W
AnchorPoint: "abvm_deva" 1182 1600 basechar 0
AnchorPoint: "blwm_deva" 788 -52 basechar 0
LayerCount: 2
Fore
SplineSet
565 1553 m 257,0,-1
 544 1495 l 257,1,-1
 1567 1495 l 257,2,-1
 1588 1553 l 257,3,-1
 565 1553 l 257,0,-1
948 1128 m 257,4,-1
 563 1128 l 257,5,-1
 541 1069 l 257,6,-1
 926 1069 l 257,7,-1
 948 1128 l 257,4,-1
554 1128 m 257,8,-1
 339 538 l 257,9,-1
 399 538 l 257,10,-1
 614 1128 l 257,11,-1
 554 1128 l 257,8,-1
373 547 m 257,12,-1
 351 487 l 257,13,-1
 714 487 l 257,14,-1
 736 547 l 257,15,-1
 373 547 l 257,12,-1
324 501 m 257,16,-1
 142 0 l 257,17,-1
 202 0 l 257,18,-1
 384 501 l 257,19,-1
 324 501 l 257,16,-1
219 59 m 257,20,-1
 198 0 l 257,21,-1
 833 0 l 257,22,-1
 854 59 l 257,23,-1
 219 59 l 257,20,-1
776 6 m 257,24,-1
 835 6 l 257,25,-1
 1384 1515 l 257,26,-1
 1325 1515 l 257,27,-1
 776 6 l 257,24,-1
982 869 m 257,28,-1
 960 808 l 257,29,-1
 1298 808 l 257,30,-1
 1320 869 l 257,31,-1
 982 869 l 257,28,-1
1261 868 m 257,32,-1
 1116 471 l 257,33,-1
 1175 471 l 257,34,-1
 1320 868 l 257,35,-1
 1261 868 l 257,32,-1
EndSplineSet
EndChar

StartChar: uni091B_uni0930_uni094D.vatu
Encoding: 65557 -1 456
GlifName: uni091B__uni0930_uni094D_.vatu
Width: 1024
VWidth: 0
GlyphClass: 3
Flags: W
LayerCount: 2
Fore
SplineSet
208 0 m 257,0,-1
 328 0 l 257,1,-1
 883 215 l 257,2,-1
 909 285 l 257,3,-1
 208 0 l 257,0,-1
565 1553 m 257,4,-1
 544 1495 l 257,5,-1
 1567 1495 l 257,6,-1
 1588 1553 l 257,7,-1
 565 1553 l 257,4,-1
1057 1428 m 257,8,-1
 672 1428 l 257,9,-1
 650 1369 l 257,10,-1
 1035 1369 l 257,11,-1
 1057 1428 l 257,8,-1
663 1428 m 257,12,-1
 448 838 l 257,13,-1
 508 838 l 257,14,-1
 723 1428 l 257,15,-1
 663 1428 l 257,12,-1
482 847 m 257,16,-1
 460 787 l 257,17,-1
 823 787 l 257,18,-1
 845 847 l 257,19,-1
 482 847 l 257,16,-1
434 801 m 257,20,-1
 251 300 l 257,21,-1
 311 300 l 257,22,-1
 494 801 l 257,23,-1
 434 801 l 257,20,-1
329 359 m 257,24,-1
 307 300 l 257,25,-1
 942 300 l 257,26,-1
 964 359 l 257,27,-1
 329 359 l 257,24,-1
774 0 m 257,28,-1
 833 0 l 257,29,-1
 1378 1498 l 257,30,-1
 1319 1498 l 257,31,-1
 774 0 l 257,28,-1
1091 1169 m 257,32,-1
 1069 1108 l 257,33,-1
 1407 1108 l 257,34,-1
 1429 1169 l 257,35,-1
 1091 1169 l 257,32,-1
1370 1168 m 257,36,-1
 1226 771 l 257,37,-1
 1285 771 l 257,38,-1
 1429 1168 l 257,39,-1
 1370 1168 l 257,36,-1
EndSplineSet
Ligature2: "rkrfRakarVariantsinDevanagari2lookup0 subtable" uni091B uni094D uni0930
EndChar

StartChar: uni091B_uni094D.half
Encoding: 65558 -1 457
GlifName: uni091B__uni094D_.half
Width: 1024
VWidth: 0
GlyphClass: 3
Flags: W
LayerCount: 2
Fore
SplineSet
565 1553 m 257,0,-1
 544 1495 l 257,1,-1
 1567 1495 l 257,2,-1
 1588 1553 l 257,3,-1
 565 1553 l 257,0,-1
948 1128 m 257,4,-1
 563 1128 l 257,5,-1
 541 1069 l 257,6,-1
 926 1069 l 257,7,-1
 948 1128 l 257,4,-1
554 1128 m 257,8,-1
 339 538 l 257,9,-1
 399 538 l 257,10,-1
 614 1128 l 257,11,-1
 554 1128 l 257,8,-1
373 547 m 257,12,-1
 351 487 l 257,13,-1
 714 487 l 257,14,-1
 736 547 l 257,15,-1
 373 547 l 257,12,-1
324 501 m 257,16,-1
 142 0 l 257,17,-1
 202 0 l 257,18,-1
 384 501 l 257,19,-1
 324 501 l 257,16,-1
219 59 m 257,20,-1
 198 0 l 257,21,-1
 1133 0 l 257,22,-1
 1154 59 l 257,23,-1
 219 59 l 257,20,-1
EndSplineSet
Ligature2: "halfHalfFormsinDevanagari2lookup0 subtable" uni091B uni094D
EndChar

StartChar: uni091B_uni094D.haln
Encoding: 65559 -1 458
GlifName: uni091B__uni094D_.haln
Width: 1024
VWidth: 0
GlyphClass: 3
Flags: W
LayerCount: 2
Fore
SplineSet
565 1553 m 257,0,-1
 544 1495 l 257,1,-1
 1567 1495 l 257,2,-1
 1588 1553 l 257,3,-1
 565 1553 l 257,0,-1
948 1128 m 257,4,-1
 563 1128 l 257,5,-1
 541 1069 l 257,6,-1
 926 1069 l 257,7,-1
 948 1128 l 257,4,-1
554 1128 m 257,8,-1
 339 538 l 257,9,-1
 399 538 l 257,10,-1
 614 1128 l 257,11,-1
 554 1128 l 257,8,-1
373 547 m 257,12,-1
 351 487 l 257,13,-1
 714 487 l 257,14,-1
 736 547 l 257,15,-1
 373 547 l 257,12,-1
324 501 m 257,16,-1
 142 0 l 257,17,-1
 202 0 l 257,18,-1
 384 501 l 257,19,-1
 324 501 l 257,16,-1
219 59 m 257,20,-1
 198 0 l 257,21,-1
 833 0 l 257,22,-1
 854 59 l 257,23,-1
 219 59 l 257,20,-1
776 6 m 257,24,-1
 835 6 l 257,25,-1
 1384 1515 l 257,26,-1
 1325 1515 l 257,27,-1
 776 6 l 257,24,-1
982 869 m 257,28,-1
 960 808 l 257,29,-1
 1298 808 l 257,30,-1
 1320 869 l 257,31,-1
 982 869 l 257,28,-1
1261 868 m 257,32,-1
 1116 471 l 257,33,-1
 1175 471 l 257,34,-1
 1320 868 l 257,35,-1
 1261 868 l 257,32,-1
475 -7 m 257,36,-1
 453 -68 l 257,37,-1
 797 -68 l 257,38,-1
 819 -7 l 257,39,-1
 475 -7 l 257,36,-1
770 -62 m 257,40,-1
 954 -409 l 257,41,-1
 1003 -357 l 257,42,-1
 820 -6 l 257,43,-1
 770 -62 l 257,40,-1
EndSplineSet
Ligature2: "halnHalantFormsinDevanagari2lookup0 subtable" uni091B uni094D
EndChar

StartChar: uni091C
Encoding: 2332 2332 459
GlifName: uni091C_
Width: 1024
VWidth: 0
GlyphClass: 2
Flags: W
AnchorPoint: "abvm_deva" 1342 1594 basechar 0
AnchorPoint: "blwm_deva" 818 -61 basechar 0
LayerCount: 2
Fore
SplineSet
547 1550 m 257,0,-1
 526 1492 l 257,1,-1
 1584 1492 l 257,2,-1
 1605 1550 l 257,3,-1
 547 1550 l 257,0,-1
1397 1550 m 257,4,-1
 829 -12 l 257,5,-1
 890 -12 l 257,6,-1
 1458 1550 l 257,7,-1
 1397 1550 l 257,4,-1
831 860 m 257,8,-1
 810 801 l 257,9,-1
 1146 801 l 257,10,-1
 1167 860 l 257,11,-1
 831 860 l 257,8,-1
821 860 m 257,12,-1
 694 512 l 257,13,-1
 754 512 l 257,14,-1
 881 860 l 257,15,-1
 821 860 l 257,12,-1
264 567 m 257,16,-1
 243 508 l 257,17,-1
 753 508 l 257,18,-1
 774 567 l 257,19,-1
 264 567 l 257,16,-1
323 727 m 257,20,-1
 243 509 l 257,21,-1
 303 509 l 257,22,-1
 383 727 l 257,23,-1
 323 727 l 257,20,-1
EndSplineSet
EndChar

StartChar: uni091C_uni0930_uni094D.vatu
Encoding: 65560 -1 460
GlifName: uni091C__uni0930_uni094D_.vatu
Width: 1024
VWidth: 0
GlyphClass: 2
Flags: W
LayerCount: 2
Fore
SplineSet
208 0 m 257,0,-1
 328 0 l 257,1,-1
 930 215 l 257,2,-1
 956 285 l 257,3,-1
 208 0 l 257,0,-1
547 1550 m 257,4,-1
 526 1492 l 257,5,-1
 1584 1492 l 257,6,-1
 1605 1550 l 257,7,-1
 547 1550 l 257,4,-1
1397 1550 m 257,8,-1
 829 -12 l 257,9,-1
 890 -12 l 257,10,-1
 1458 1550 l 257,11,-1
 1397 1550 l 257,8,-1
831 860 m 257,12,-1
 810 801 l 257,13,-1
 1146 801 l 257,14,-1
 1167 860 l 257,15,-1
 831 860 l 257,12,-1
821 860 m 257,16,-1
 694 512 l 257,17,-1
 754 512 l 257,18,-1
 881 860 l 257,19,-1
 821 860 l 257,16,-1
264 567 m 257,20,-1
 243 508 l 257,21,-1
 753 508 l 257,22,-1
 774 567 l 257,23,-1
 264 567 l 257,20,-1
323 727 m 257,24,-1
 243 509 l 257,25,-1
 303 509 l 257,26,-1
 383 727 l 257,27,-1
 323 727 l 257,24,-1
EndSplineSet
Ligature2: "rkrfRakarVariantsinDevanagari2lookup0 subtable" uni091C uni094D uni0930
EndChar

StartChar: uni091C_uni094D.half
Encoding: 65561 -1 461
GlifName: uni091C__uni094D_.half
Width: 1024
VWidth: 0
GlyphClass: 3
Flags: W
LayerCount: 2
Fore
SplineSet
547 1550 m 257,0,-1
 526 1492 l 257,1,-1
 1584 1492 l 257,2,-1
 1605 1550 l 257,3,-1
 547 1550 l 257,0,-1
831 860 m 257,4,-1
 810 801 l 257,5,-1
 1446 801 l 257,6,-1
 1467 860 l 257,7,-1
 831 860 l 257,4,-1
821 860 m 257,8,-1
 694 512 l 257,9,-1
 754 512 l 257,10,-1
 881 860 l 257,11,-1
 821 860 l 257,8,-1
264 567 m 257,12,-1
 243 508 l 257,13,-1
 753 508 l 257,14,-1
 774 567 l 257,15,-1
 264 567 l 257,12,-1
323 727 m 257,16,-1
 243 509 l 257,17,-1
 303 509 l 257,18,-1
 383 727 l 257,19,-1
 323 727 l 257,16,-1
EndSplineSet
Ligature2: "halfHalfFormsinDevanagari2lookup0 subtable" uni091C uni094D
EndChar

StartChar: uni091C_uni094D.haln
Encoding: 65562 -1 462
GlifName: uni091C__uni094D_.haln
Width: 1024
VWidth: 0
GlyphClass: 3
Flags: W
LayerCount: 2
Fore
SplineSet
547 1550 m 257,0,-1
 526 1492 l 257,1,-1
 1584 1492 l 257,2,-1
 1605 1550 l 257,3,-1
 547 1550 l 257,0,-1
1397 1550 m 257,4,-1
 829 -12 l 257,5,-1
 890 -12 l 257,6,-1
 1458 1550 l 257,7,-1
 1397 1550 l 257,4,-1
831 860 m 257,8,-1
 810 801 l 257,9,-1
 1146 801 l 257,10,-1
 1167 860 l 257,11,-1
 831 860 l 257,8,-1
821 860 m 257,12,-1
 694 512 l 257,13,-1
 754 512 l 257,14,-1
 881 860 l 257,15,-1
 821 860 l 257,12,-1
264 567 m 257,16,-1
 243 508 l 257,17,-1
 753 508 l 257,18,-1
 774 567 l 257,19,-1
 264 567 l 257,16,-1
323 727 m 257,20,-1
 243 509 l 257,21,-1
 303 509 l 257,22,-1
 383 727 l 257,23,-1
 323 727 l 257,20,-1
617 -16 m 257,24,-1
 595 -77 l 257,25,-1
 939 -77 l 257,26,-1
 961 -16 l 257,27,-1
 617 -16 l 257,24,-1
912 -71 m 257,28,-1
 1096 -418 l 257,29,-1
 1145 -366 l 257,30,-1
 962 -15 l 257,31,-1
 912 -71 l 257,28,-1
EndSplineSet
Ligature2: "halnHalantFormsinDevanagari2lookup0 subtable" uni091C uni094D
EndChar

StartChar: uni091C_uni094D_uni091E.akhn
Encoding: 65563 -1 463
GlifName: uni091C__uni094D__uni091E_.akhn
Width: 1024
VWidth: 0
GlyphClass: 3
Flags: W
LayerCount: 2
Fore
SplineSet
551 1550 m 257,0,-1
 529 1488 l 257,1,-1
 1566 1488 l 257,2,-1
 1588 1550 l 257,3,-1
 551 1550 l 257,0,-1
1381 1550 m 257,4,-1
 813 -12 l 257,5,-1
 873 -12 l 257,6,-1
 1441 1550 l 257,7,-1
 1381 1550 l 257,4,-1
710 860 m 257,8,-1
 688 800 l 257,9,-1
 1128 800 l 257,10,-1
 1150 860 l 257,11,-1
 710 860 l 257,8,-1
664 860 m 257,12,-1
 501 413 l 257,13,-1
 560 413 l 257,14,-1
 723 860 l 257,15,-1
 664 860 l 257,12,-1
197 428 m 257,16,-1
 175 367 l 257,17,-1
 544 367 l 257,18,-1
 566 428 l 257,19,-1
 197 428 l 257,16,-1
175 368 m 257,20,-1
 216 75 l 257,21,-1
 305 75 l 257,22,-1
 249 368 l 257,23,-1
 175 368 l 257,20,-1
EndSplineSet
Ligature2: "akhnAkhandinDevanagari2lookup0 subtable" uni091C uni094D uni091E
EndChar

StartChar: uni091C_uni094D_uni091E.half
Encoding: 65564 -1 464
GlifName: uni091C__uni094D__uni091E_.half
Width: 1024
VWidth: 0
GlyphClass: 3
Flags: W
LayerCount: 2
Fore
SplineSet
551 1550 m 257,0,-1
 529 1488 l 257,1,-1
 1566 1488 l 257,2,-1
 1588 1550 l 257,3,-1
 551 1550 l 257,0,-1
910 860 m 257,4,-1
 888 800 l 257,5,-1
 1328 800 l 257,6,-1
 1350 860 l 257,7,-1
 910 860 l 257,4,-1
864 860 m 257,8,-1
 701 413 l 257,9,-1
 760 413 l 257,10,-1
 923 860 l 257,11,-1
 864 860 l 257,8,-1
397 428 m 257,12,-1
 375 367 l 257,13,-1
 744 367 l 257,14,-1
 766 428 l 257,15,-1
 397 428 l 257,12,-1
375 368 m 257,16,-1
 416 75 l 257,17,-1
 505 75 l 257,18,-1
 449 368 l 257,19,-1
 375 368 l 257,16,-1
EndSplineSet
Ligature2: "halfHalfFormsinDevanagari2lookup0 subtable" uni091C_uni094D_uni091E.akhn uni094D
EndChar

StartChar: uni091C_uni094D_uni091E_uni094D
Encoding: 65565 -1 465
GlifName: uni091C__uni094D__uni091E__uni094D_
Width: 1024
VWidth: 0
GlyphClass: 2
Flags: W
LayerCount: 2
Fore
SplineSet
551 1550 m 257,0,-1
 529 1488 l 257,1,-1
 1566 1488 l 257,2,-1
 1588 1550 l 257,3,-1
 551 1550 l 257,0,-1
1381 1550 m 257,4,-1
 813 -12 l 257,5,-1
 873 -12 l 257,6,-1
 1441 1550 l 257,7,-1
 1381 1550 l 257,4,-1
710 860 m 257,8,-1
 688 800 l 257,9,-1
 1128 800 l 257,10,-1
 1150 860 l 257,11,-1
 710 860 l 257,8,-1
664 860 m 257,12,-1
 501 413 l 257,13,-1
 560 413 l 257,14,-1
 723 860 l 257,15,-1
 664 860 l 257,12,-1
197 428 m 257,16,-1
 175 367 l 257,17,-1
 544 367 l 257,18,-1
 566 428 l 257,19,-1
 197 428 l 257,16,-1
175 368 m 257,20,-1
 216 75 l 257,21,-1
 305 75 l 257,22,-1
 249 368 l 257,23,-1
 175 368 l 257,20,-1
617 -16 m 257,24,-1
 595 -77 l 257,25,-1
 939 -77 l 257,26,-1
 961 -16 l 257,27,-1
 617 -16 l 257,24,-1
912 -71 m 257,28,-1
 1096 -418 l 257,29,-1
 1145 -366 l 257,30,-1
 962 -15 l 257,31,-1
 912 -71 l 257,28,-1
EndSplineSet
Ligature2: "halnHalantFormsinDevanagari2lookup0 subtable" uni091C_uni094D_uni091E.akhn uni094D
EndChar

StartChar: uni091D
Encoding: 2333 2333 466
GlifName: uni091D_
Width: 1024
VWidth: 0
GlyphClass: 2
Flags: W
AnchorPoint: "abvm_deva" 1342 1594 basechar 0
AnchorPoint: "blwm_deva" 852 -52 basechar 0
LayerCount: 2
Fore
SplineSet
557 1553 m 257,0,-1
 536 1494 l 257,1,-1
 1576 1494 l 257,2,-1
 1597 1553 l 257,3,-1
 557 1553 l 257,0,-1
1393 1553 m 257,4,-1
 826 -5 l 257,5,-1
 888 -5 l 257,6,-1
 1455 1553 l 257,7,-1
 1393 1553 l 257,4,-1
1155 1537 m 257,8,-1
 968 1023 l 257,9,-1
 1028 1023 l 257,10,-1
 1215 1537 l 257,11,-1
 1155 1537 l 257,8,-1
529 1084 m 257,12,-1
 506 1023 l 257,13,-1
 1028 1023 l 257,14,-1
 1051 1084 l 257,15,-1
 529 1084 l 257,12,-1
529 1085 m 257,16,-1
 371 651 l 257,17,-1
 431 651 l 257,18,-1
 589 1085 l 257,19,-1
 529 1085 l 257,16,-1
388 698 m 257,20,-1
 366 638 l 257,21,-1
 1116 638 l 257,22,-1
 1138 698 l 257,23,-1
 388 698 l 257,20,-1
820 691 m 257,24,-1
 571 7 l 257,25,-1
 631 7 l 257,26,-1
 880 691 l 257,27,-1
 820 691 l 257,24,-1
157 63 m 257,28,-1
 134 0 l 257,29,-1
 628 0 l 257,30,-1
 651 63 l 257,31,-1
 157 63 l 257,28,-1
157 63 m 257,32,-1
 80 -148 l 257,33,-1
 140 -148 l 257,34,-1
 217 63 l 257,35,-1
 157 63 l 257,32,-1
EndSplineSet
EndChar

StartChar: uni091D_uni0930_uni094D.vatu
Encoding: 65566 -1 467
GlifName: uni091D__uni0930_uni094D_.vatu
Width: 1024
VWidth: 0
GlyphClass: 3
Flags: W
LayerCount: 2
Fore
SplineSet
412 0 m 257,0,-1
 532 0 l 257,1,-1
 953 215 l 257,2,-1
 979 285 l 257,3,-1
 412 0 l 257,0,-1
557 1553 m 257,4,-1
 536 1494 l 257,5,-1
 1576 1494 l 257,6,-1
 1597 1553 l 257,7,-1
 557 1553 l 257,4,-1
1393 1553 m 257,8,-1
 826 -5 l 257,9,-1
 888 -5 l 257,10,-1
 1455 1553 l 257,11,-1
 1393 1553 l 257,8,-1
1155 1537 m 257,12,-1
 968 1023 l 257,13,-1
 1028 1023 l 257,14,-1
 1215 1537 l 257,15,-1
 1155 1537 l 257,12,-1
529 1084 m 257,16,-1
 506 1023 l 257,17,-1
 1028 1023 l 257,18,-1
 1051 1084 l 257,19,-1
 529 1084 l 257,16,-1
529 1085 m 257,20,-1
 371 651 l 257,21,-1
 431 651 l 257,22,-1
 589 1085 l 257,23,-1
 529 1085 l 257,20,-1
388 698 m 257,24,-1
 366 638 l 257,25,-1
 1116 638 l 257,26,-1
 1138 698 l 257,27,-1
 388 698 l 257,24,-1
554 691 m 257,28,-1
 305 7 l 257,29,-1
 365 7 l 257,30,-1
 614 691 l 257,31,-1
 554 691 l 257,28,-1
157 63 m 257,32,-1
 134 0 l 257,33,-1
 362 0 l 257,34,-1
 385 63 l 257,35,-1
 157 63 l 257,32,-1
157 63 m 257,36,-1
 80 -148 l 257,37,-1
 140 -148 l 257,38,-1
 217 63 l 257,39,-1
 157 63 l 257,36,-1
EndSplineSet
Ligature2: "rkrfRakarVariantsinDevanagari2lookup0 subtable" uni091D uni094D uni0930
EndChar

StartChar: uni091D_uni094D.half
Encoding: 65567 -1 468
GlifName: uni091D__uni094D_.half
Width: 1024
VWidth: 0
GlyphClass: 3
Flags: W
LayerCount: 2
Fore
SplineSet
557 1553 m 257,0,-1
 536 1494 l 257,1,-1
 1576 1494 l 257,2,-1
 1597 1553 l 257,3,-1
 557 1553 l 257,0,-1
1155 1537 m 257,4,-1
 968 1023 l 257,5,-1
 1028 1023 l 257,6,-1
 1215 1537 l 257,7,-1
 1155 1537 l 257,4,-1
529 1084 m 257,8,-1
 506 1023 l 257,9,-1
 1028 1023 l 257,10,-1
 1051 1084 l 257,11,-1
 529 1084 l 257,8,-1
529 1085 m 257,12,-1
 371 651 l 257,13,-1
 431 651 l 257,14,-1
 589 1085 l 257,15,-1
 529 1085 l 257,12,-1
388 698 m 257,16,-1
 366 638 l 257,17,-1
 1316 638 l 257,18,-1
 1338 698 l 257,19,-1
 388 698 l 257,16,-1
820 691 m 257,20,-1
 571 7 l 257,21,-1
 631 7 l 257,22,-1
 880 691 l 257,23,-1
 820 691 l 257,20,-1
157 63 m 257,24,-1
 134 0 l 257,25,-1
 628 0 l 257,26,-1
 651 63 l 257,27,-1
 157 63 l 257,24,-1
157 63 m 257,28,-1
 80 -148 l 257,29,-1
 140 -148 l 257,30,-1
 217 63 l 257,31,-1
 157 63 l 257,28,-1
EndSplineSet
Ligature2: "halfHalfFormsinDevanagari2lookup0 subtable" uni091D uni094D
EndChar

StartChar: uni091D_uni094D.haln
Encoding: 65568 -1 469
GlifName: uni091D__uni094D_.haln
Width: 1024
VWidth: 0
GlyphClass: 3
Flags: W
LayerCount: 2
Fore
SplineSet
557 1553 m 257,0,-1
 536 1494 l 257,1,-1
 1576 1494 l 257,2,-1
 1597 1553 l 257,3,-1
 557 1553 l 257,0,-1
1393 1553 m 257,4,-1
 826 -5 l 257,5,-1
 888 -5 l 257,6,-1
 1455 1553 l 257,7,-1
 1393 1553 l 257,4,-1
1155 1537 m 257,8,-1
 968 1023 l 257,9,-1
 1028 1023 l 257,10,-1
 1215 1537 l 257,11,-1
 1155 1537 l 257,8,-1
529 1084 m 257,12,-1
 506 1023 l 257,13,-1
 1028 1023 l 257,14,-1
 1051 1084 l 257,15,-1
 529 1084 l 257,12,-1
529 1085 m 257,16,-1
 371 651 l 257,17,-1
 431 651 l 257,18,-1
 589 1085 l 257,19,-1
 529 1085 l 257,16,-1
388 698 m 257,20,-1
 366 638 l 257,21,-1
 1116 638 l 257,22,-1
 1138 698 l 257,23,-1
 388 698 l 257,20,-1
820 691 m 257,24,-1
 571 7 l 257,25,-1
 631 7 l 257,26,-1
 880 691 l 257,27,-1
 820 691 l 257,24,-1
157 63 m 257,28,-1
 134 0 l 257,29,-1
 628 0 l 257,30,-1
 651 63 l 257,31,-1
 157 63 l 257,28,-1
157 63 m 257,32,-1
 80 -148 l 257,33,-1
 140 -148 l 257,34,-1
 217 63 l 257,35,-1
 157 63 l 257,32,-1
617 -16 m 257,36,-1
 595 -77 l 257,37,-1
 939 -77 l 257,38,-1
 961 -16 l 257,39,-1
 617 -16 l 257,36,-1
912 -71 m 257,40,-1
 1096 -418 l 257,41,-1
 1145 -366 l 257,42,-1
 962 -15 l 257,43,-1
 912 -71 l 257,40,-1
EndSplineSet
Ligature2: "halnHalantFormsinDevanagari2lookup0 subtable" uni091D uni094D
EndChar

StartChar: uni091E
Encoding: 2334 2334 470
GlifName: uni091E_
Width: 1024
VWidth: 0
GlyphClass: 2
Flags: W
AnchorPoint: "abvm_deva" 1416 1600 basechar 0
AnchorPoint: "blwm_deva" 894 -105 basechar 0
LayerCount: 2
Fore
SplineSet
560 1553 m 257,0,-1
 538 1493 l 257,1,-1
 1572 1493 l 257,2,-1
 1594 1553 l 257,3,-1
 560 1553 l 257,0,-1
1435 1538 m 257,4,-1
 872 -8 l 257,5,-1
 932 -8 l 257,6,-1
 1495 1538 l 257,7,-1
 1435 1538 l 257,4,-1
827 672 m 257,8,-1
 805 612 l 257,9,-1
 1119 612 l 257,10,-1
 1141 672 l 257,11,-1
 827 672 l 257,8,-1
433 960 m 257,12,-1
 412 900 l 257,13,-1
 909 900 l 257,14,-1
 930 960 l 257,15,-1
 433 960 l 257,12,-1
900 960 m 257,16,-1
 666 316 l 257,17,-1
 726 316 l 257,18,-1
 960 960 l 257,19,-1
 900 960 l 257,16,-1
177 320 m 257,20,-1
 156 260 l 257,21,-1
 706 260 l 257,22,-1
 727 320 l 257,23,-1
 177 320 l 257,20,-1
EndSplineSet
EndChar

StartChar: uni091E_uni0930_uni094D.vatu
Encoding: 65569 -1 471
GlifName: uni091E__uni0930_uni094D_.vatu
Width: 1024
VWidth: 0
GlyphClass: 3
Flags: W
LayerCount: 2
Fore
SplineSet
289 0 m 257,0,-1
 409 0 l 257,1,-1
 964 215 l 257,2,-1
 990 285 l 257,3,-1
 289 0 l 257,0,-1
560 1553 m 257,4,-1
 538 1493 l 257,5,-1
 1572 1493 l 257,6,-1
 1594 1553 l 257,7,-1
 560 1553 l 257,4,-1
1435 1538 m 257,8,-1
 872 -8 l 257,9,-1
 932 -8 l 257,10,-1
 1495 1538 l 257,11,-1
 1435 1538 l 257,8,-1
827 672 m 257,12,-1
 805 612 l 257,13,-1
 1119 612 l 257,14,-1
 1141 672 l 257,15,-1
 827 672 l 257,12,-1
433 960 m 257,16,-1
 412 900 l 257,17,-1
 909 900 l 257,18,-1
 930 960 l 257,19,-1
 433 960 l 257,16,-1
900 960 m 257,20,-1
 666 316 l 257,21,-1
 726 316 l 257,22,-1
 960 960 l 257,23,-1
 900 960 l 257,20,-1
177 320 m 257,24,-1
 156 260 l 257,25,-1
 706 260 l 257,26,-1
 727 320 l 257,27,-1
 177 320 l 257,24,-1
EndSplineSet
Ligature2: "rkrfRakarVariantsinDevanagari2lookup0 subtable" uni091E uni094D uni0930
EndChar

StartChar: uni091E_uni094D.half
Encoding: 65570 -1 472
GlifName: uni091E__uni094D_.half
Width: 1024
VWidth: 0
GlyphClass: 3
Flags: W
LayerCount: 2
Fore
SplineSet
560 1553 m 257,0,-1
 538 1493 l 257,1,-1
 1572 1493 l 257,2,-1
 1594 1553 l 257,3,-1
 560 1553 l 257,0,-1
827 672 m 257,4,-1
 805 612 l 257,5,-1
 1319 612 l 257,6,-1
 1341 672 l 257,7,-1
 827 672 l 257,4,-1
433 960 m 257,8,-1
 412 900 l 257,9,-1
 909 900 l 257,10,-1
 930 960 l 257,11,-1
 433 960 l 257,8,-1
900 960 m 257,12,-1
 666 316 l 257,13,-1
 726 316 l 257,14,-1
 960 960 l 257,15,-1
 900 960 l 257,12,-1
177 320 m 257,16,-1
 156 260 l 257,17,-1
 706 260 l 257,18,-1
 727 320 l 257,19,-1
 177 320 l 257,16,-1
EndSplineSet
Ligature2: "halfHalfFormsinDevanagari2lookup0 subtable" uni091E uni094D
EndChar

StartChar: uni091E_uni094D.haln
Encoding: 65571 -1 473
GlifName: uni091E__uni094D_.haln
Width: 1024
VWidth: 0
GlyphClass: 3
Flags: W
LayerCount: 2
Fore
SplineSet
560 1553 m 257,0,-1
 538 1493 l 257,1,-1
 1572 1493 l 257,2,-1
 1594 1553 l 257,3,-1
 560 1553 l 257,0,-1
1435 1538 m 257,4,-1
 872 -8 l 257,5,-1
 932 -8 l 257,6,-1
 1495 1538 l 257,7,-1
 1435 1538 l 257,4,-1
827 672 m 257,8,-1
 805 612 l 257,9,-1
 1119 612 l 257,10,-1
 1141 672 l 257,11,-1
 827 672 l 257,8,-1
433 960 m 257,12,-1
 412 900 l 257,13,-1
 909 900 l 257,14,-1
 930 960 l 257,15,-1
 433 960 l 257,12,-1
900 960 m 257,16,-1
 666 316 l 257,17,-1
 726 316 l 257,18,-1
 960 960 l 257,19,-1
 900 960 l 257,16,-1
177 320 m 257,20,-1
 156 260 l 257,21,-1
 706 260 l 257,22,-1
 727 320 l 257,23,-1
 177 320 l 257,20,-1
617 -16 m 257,24,-1
 595 -77 l 257,25,-1
 939 -77 l 257,26,-1
 961 -16 l 257,27,-1
 617 -16 l 257,24,-1
912 -71 m 257,28,-1
 1096 -418 l 257,29,-1
 1145 -366 l 257,30,-1
 962 -15 l 257,31,-1
 912 -71 l 257,28,-1
EndSplineSet
Ligature2: "halnHalantFormsinDevanagari2lookup0 subtable" uni091E uni094D
EndChar

StartChar: uni091F
Encoding: 2335 2335 474
GlifName: uni091F_
Width: 1024
VWidth: 0
GlyphClass: 2
Flags: W
AnchorPoint: "abvm_deva" 1236 1582 basechar 0
AnchorPoint: "blwm_deva" 489 -65 basechar 0
LayerCount: 2
Fore
SplineSet
570 1553 m 257,0,-1
 549 1494 l 257,1,-1
 1563 1494 l 257,2,-1
 1584 1553 l 257,3,-1
 570 1553 l 257,0,-1
1260 1528 m 257,4,-1
 1064 988 l 257,5,-1
 1124 988 l 257,6,-1
 1320 1528 l 257,7,-1
 1260 1528 l 257,4,-1
1136 1023 m 257,8,-1
 487 1023 l 257,9,-1
 466 963 l 257,10,-1
 1114 963 l 257,11,-1
 1136 1023 l 257,8,-1
466 1023 m 257,12,-1
 96 5 l 257,13,-1
 156 5 l 257,14,-1
 526 1023 l 257,15,-1
 466 1023 l 257,12,-1
116 60 m 257,16,-1
 94 0 l 257,17,-1
 807 0 l 257,18,-1
 829 60 l 257,19,-1
 116 60 l 257,16,-1
EndSplineSet
EndChar

StartChar: uni091F_uni0930_uni094D.vatu
Encoding: 65572 -1 475
GlifName: uni091F__uni0930_uni094D_.vatu
Width: 1024
VWidth: 0
GlyphClass: 3
Flags: W
LayerCount: 2
Fore
SplineSet
474 220 m 257,0,-1
 534 -119 l 257,1,-1
 602 -119 l 257,2,-1
 542 287 l 257,3,-1
 474 220 l 257,0,-1
542 287 m 257,4,-1
 139 -106 l 257,5,-1
 207 -106 l 257,6,-1
 551 228 l 257,7,-1
 542 287 l 257,4,-1
570 1553 m 257,8,-1
 549 1494 l 257,9,-1
 1563 1494 l 257,10,-1
 1584 1553 l 257,11,-1
 570 1553 l 257,8,-1
1260 1528 m 257,12,-1
 1064 988 l 257,13,-1
 1124 988 l 257,14,-1
 1320 1528 l 257,15,-1
 1260 1528 l 257,12,-1
1136 1023 m 257,16,-1
 487 1023 l 257,17,-1
 466 963 l 257,18,-1
 1114 963 l 257,19,-1
 1136 1023 l 257,16,-1
466 1023 m 257,20,-1
 205 305 l 257,21,-1
 265 305 l 257,22,-1
 526 1023 l 257,23,-1
 466 1023 l 257,20,-1
225 360 m 257,24,-1
 203 300 l 257,25,-1
 916 300 l 257,26,-1
 938 360 l 257,27,-1
 225 360 l 257,24,-1
EndSplineSet
Ligature2: "rkrfRakarVariantsinDevanagari2lookup0 subtable" uni091F uni094D uni0930
EndChar

StartChar: uni091F_uni094D.haln
Encoding: 65573 -1 476
GlifName: uni091F__uni094D_.haln
Width: 1024
VWidth: 0
GlyphClass: 3
Flags: W
LayerCount: 2
Fore
SplineSet
570 1553 m 257,0,-1
 549 1494 l 257,1,-1
 1563 1494 l 257,2,-1
 1584 1553 l 257,3,-1
 570 1553 l 257,0,-1
1260 1528 m 257,4,-1
 1064 988 l 257,5,-1
 1124 988 l 257,6,-1
 1320 1528 l 257,7,-1
 1260 1528 l 257,4,-1
1136 1023 m 257,8,-1
 487 1023 l 257,9,-1
 466 963 l 257,10,-1
 1114 963 l 257,11,-1
 1136 1023 l 257,8,-1
466 1023 m 257,12,-1
 96 5 l 257,13,-1
 156 5 l 257,14,-1
 526 1023 l 257,15,-1
 466 1023 l 257,12,-1
116 60 m 257,16,-1
 94 0 l 257,17,-1
 807 0 l 257,18,-1
 829 60 l 257,19,-1
 116 60 l 257,16,-1
617 -16 m 257,20,-1
 595 -77 l 257,21,-1
 939 -77 l 257,22,-1
 961 -16 l 257,23,-1
 617 -16 l 257,20,-1
912 -71 m 257,24,-1
 1096 -418 l 257,25,-1
 1145 -366 l 257,26,-1
 962 -15 l 257,27,-1
 912 -71 l 257,24,-1
EndSplineSet
Ligature2: "halnHalantFormsinDevanagari2lookup0 subtable" uni091F uni094D
EndChar

StartChar: uni0920
Encoding: 2336 2336 477
GlifName: uni0920
Width: 1024
VWidth: 0
GlyphClass: 2
Flags: W
AnchorPoint: "abvm_deva" 1132 1594 basechar 0
AnchorPoint: "blwm_deva" 487 -71 basechar 0
LayerCount: 2
Fore
SplineSet
564 1550 m 257,0,-1
 542 1490 l 257,1,-1
 1567 1490 l 257,2,-1
 1589 1550 l 257,3,-1
 564 1550 l 257,0,-1
1147 1510 m 257,4,-1
 969 1023 l 257,5,-1
 1028 1023 l 257,6,-1
 1206 1510 l 257,7,-1
 1147 1510 l 257,4,-1
456 1023 m 257,8,-1
 435 963 l 257,9,-1
 1312 963 l 257,10,-1
 1334 1023 l 257,11,-1
 456 1023 l 257,8,-1
443 1023 m 257,12,-1
 76 13 l 257,13,-1
 138 13 l 257,14,-1
 505 1023 l 257,15,-1
 443 1023 l 257,12,-1
1255 1001 m 257,16,-1
 891 0 l 257,17,-1
 962 0 l 257,18,-1
 1326 1001 l 257,19,-1
 1255 1001 l 257,16,-1
93 58 m 257,20,-1
 72 0 l 257,21,-1
 942 0 l 257,22,-1
 963 58 l 257,23,-1
 93 58 l 257,20,-1
EndSplineSet
EndChar

StartChar: uni0920_uni0930_uni094D.vatu
Encoding: 65574 -1 478
GlifName: uni0920_uni0930_uni094D_.vatu
Width: 1024
VWidth: 0
GlyphClass: 3
Flags: W
LayerCount: 2
Fore
SplineSet
575 220 m 257,0,-1
 635 -119 l 257,1,-1
 703 -119 l 257,2,-1
 643 287 l 257,3,-1
 575 220 l 257,0,-1
643 287 m 257,4,-1
 240 -106 l 257,5,-1
 308 -106 l 257,6,-1
 652 228 l 257,7,-1
 643 287 l 257,4,-1
564 1550 m 257,8,-1
 542 1490 l 257,9,-1
 1567 1490 l 257,10,-1
 1589 1550 l 257,11,-1
 564 1550 l 257,8,-1
1060 1510 m 257,12,-1
 882 1023 l 257,13,-1
 941 1023 l 257,14,-1
 1119 1510 l 257,15,-1
 1060 1510 l 257,12,-1
456 1023 m 257,16,-1
 435 963 l 257,17,-1
 1312 963 l 257,18,-1
 1334 1023 l 257,19,-1
 456 1023 l 257,16,-1
443 1023 m 257,20,-1
 185 313 l 257,21,-1
 247 313 l 257,22,-1
 505 1023 l 257,23,-1
 443 1023 l 257,20,-1
1255 1001 m 257,24,-1
 999 298 l 257,25,-1
 1070 298 l 257,26,-1
 1326 1001 l 257,27,-1
 1255 1001 l 257,24,-1
202 358 m 257,28,-1
 180 297 l 257,29,-1
 1050 297 l 257,30,-1
 1072 358 l 257,31,-1
 202 358 l 257,28,-1
EndSplineSet
Ligature2: "rkrfRakarVariantsinDevanagari2lookup0 subtable" uni0920 uni094D uni0930
EndChar

StartChar: uni0920_uni094D.haln
Encoding: 65575 -1 479
GlifName: uni0920_uni094D_.haln
Width: 1024
VWidth: 0
GlyphClass: 3
Flags: W
LayerCount: 2
Fore
SplineSet
564 1550 m 257,0,-1
 542 1490 l 257,1,-1
 1567 1490 l 257,2,-1
 1589 1550 l 257,3,-1
 564 1550 l 257,0,-1
1147 1510 m 257,4,-1
 969 1023 l 257,5,-1
 1028 1023 l 257,6,-1
 1206 1510 l 257,7,-1
 1147 1510 l 257,4,-1
456 1023 m 257,8,-1
 435 963 l 257,9,-1
 1312 963 l 257,10,-1
 1334 1023 l 257,11,-1
 456 1023 l 257,8,-1
443 1023 m 257,12,-1
 76 13 l 257,13,-1
 138 13 l 257,14,-1
 505 1023 l 257,15,-1
 443 1023 l 257,12,-1
1255 1001 m 257,16,-1
 891 0 l 257,17,-1
 962 0 l 257,18,-1
 1326 1001 l 257,19,-1
 1255 1001 l 257,16,-1
93 58 m 257,20,-1
 72 0 l 257,21,-1
 942 0 l 257,22,-1
 963 58 l 257,23,-1
 93 58 l 257,20,-1
617 -16 m 257,24,-1
 595 -77 l 257,25,-1
 939 -77 l 257,26,-1
 961 -16 l 257,27,-1
 617 -16 l 257,24,-1
912 -71 m 257,28,-1
 1096 -418 l 257,29,-1
 1145 -366 l 257,30,-1
 962 -15 l 257,31,-1
 912 -71 l 257,28,-1
EndSplineSet
Ligature2: "halnHalantFormsinDevanagari2lookup0 subtable" uni0920 uni094D
EndChar

StartChar: uni0921
Encoding: 2337 2337 480
GlifName: uni0921
Width: 1024
VWidth: 0
GlyphClass: 2
Flags: W
AnchorPoint: "abvm_deva" 1449 1606 basechar 0
AnchorPoint: "blwm_deva" 489 -85 basechar 0
LayerCount: 2
Fore
SplineSet
563 1548 m 257,0,-1
 542 1488 l 257,1,-1
 1568 1488 l 257,2,-1
 1589 1548 l 257,3,-1
 563 1548 l 257,0,-1
781 1091 m 257,4,-1
 595 579 l 257,5,-1
 655 579 l 257,6,-1
 841 1091 l 257,7,-1
 781 1091 l 257,4,-1
601 597 m 257,8,-1
 580 538 l 257,9,-1
 1123 538 l 257,10,-1
 1144 597 l 257,11,-1
 601 597 l 257,8,-1
1069 554 m 257,12,-1
 869 5 l 257,13,-1
 929 5 l 257,14,-1
 1129 554 l 257,15,-1
 1069 554 l 257,12,-1
84 60 m 257,16,-1
 62 0 l 257,17,-1
 927 0 l 257,18,-1
 949 60 l 257,19,-1
 84 60 l 257,16,-1
182 331 m 257,20,-1
 64 5 l 257,21,-1
 125 5 l 257,22,-1
 243 331 l 257,23,-1
 182 331 l 257,20,-1
797 1134 m 257,24,-1
 775 1074 l 257,25,-1
 1318 1074 l 257,26,-1
 1340 1134 l 257,27,-1
 797 1134 l 257,24,-1
1412 1503 m 257,28,-1
 1265 1098 l 257,29,-1
 1327 1098 l 257,30,-1
 1474 1503 l 257,31,-1
 1412 1503 l 257,28,-1
EndSplineSet
EndChar

StartChar: uni0921_uni0930_uni094D.vatu
Encoding: 65576 -1 481
GlifName: uni0921_uni0930_uni094D_.vatu
Width: 1024
VWidth: 0
GlyphClass: 3
Flags: W
LayerCount: 2
Fore
SplineSet
512 136 m 257,0,-1
 587 -162 l 257,1,-1
 662 -142 l 257,2,-1
 577 191 l 257,3,-1
 512 136 l 257,0,-1
577 191 m 257,4,-1
 199 -131 l 257,5,-1
 260 -152 l 257,6,-1
 589 143 l 257,7,-1
 577 191 l 257,4,-1
563 1548 m 257,8,-1
 542 1488 l 257,9,-1
 1568 1488 l 257,10,-1
 1589 1548 l 257,11,-1
 563 1548 l 257,8,-1
781 1091 m 257,12,-1
 675 799 l 257,13,-1
 735 799 l 257,14,-1
 841 1091 l 257,15,-1
 781 1091 l 257,12,-1
681 817 m 257,16,-1
 660 758 l 257,17,-1
 1203 758 l 257,18,-1
 1224 817 l 257,19,-1
 681 817 l 257,16,-1
1149 774 m 257,20,-1
 949 225 l 257,21,-1
 1009 225 l 257,22,-1
 1209 774 l 257,23,-1
 1149 774 l 257,20,-1
164 280 m 257,24,-1
 142 220 l 257,25,-1
 1007 220 l 257,26,-1
 1029 280 l 257,27,-1
 164 280 l 257,24,-1
263 551 m 257,28,-1
 144 225 l 257,29,-1
 205 225 l 257,30,-1
 324 551 l 257,31,-1
 263 551 l 257,28,-1
797 1134 m 257,32,-1
 775 1074 l 257,33,-1
 1318 1074 l 257,34,-1
 1340 1134 l 257,35,-1
 797 1134 l 257,32,-1
1412 1503 m 257,36,-1
 1265 1098 l 257,37,-1
 1327 1098 l 257,38,-1
 1474 1503 l 257,39,-1
 1412 1503 l 257,36,-1
EndSplineSet
Ligature2: "rkrfRakarVariantsinDevanagari2lookup0 subtable" uni0921 uni094D uni0930
EndChar

StartChar: uni0921_uni094D.haln
Encoding: 65577 -1 482
GlifName: uni0921_uni094D_.haln
Width: 1024
VWidth: 0
GlyphClass: 3
Flags: W
LayerCount: 2
Fore
SplineSet
563 1548 m 257,0,-1
 542 1488 l 257,1,-1
 1568 1488 l 257,2,-1
 1589 1548 l 257,3,-1
 563 1548 l 257,0,-1
781 1091 m 257,4,-1
 595 579 l 257,5,-1
 655 579 l 257,6,-1
 841 1091 l 257,7,-1
 781 1091 l 257,4,-1
601 597 m 257,8,-1
 580 538 l 257,9,-1
 1123 538 l 257,10,-1
 1144 597 l 257,11,-1
 601 597 l 257,8,-1
1069 554 m 257,12,-1
 869 5 l 257,13,-1
 929 5 l 257,14,-1
 1129 554 l 257,15,-1
 1069 554 l 257,12,-1
84 60 m 257,16,-1
 62 0 l 257,17,-1
 927 0 l 257,18,-1
 949 60 l 257,19,-1
 84 60 l 257,16,-1
182 331 m 257,20,-1
 64 5 l 257,21,-1
 125 5 l 257,22,-1
 243 331 l 257,23,-1
 182 331 l 257,20,-1
797 1134 m 257,24,-1
 775 1074 l 257,25,-1
 1318 1074 l 257,26,-1
 1340 1134 l 257,27,-1
 797 1134 l 257,24,-1
1412 1503 m 257,28,-1
 1265 1098 l 257,29,-1
 1327 1098 l 257,30,-1
 1474 1503 l 257,31,-1
 1412 1503 l 257,28,-1
617 -16 m 257,32,-1
 595 -77 l 257,33,-1
 939 -77 l 257,34,-1
 961 -16 l 257,35,-1
 617 -16 l 257,32,-1
912 -71 m 257,36,-1
 1096 -418 l 257,37,-1
 1145 -366 l 257,38,-1
 962 -15 l 257,39,-1
 912 -71 l 257,36,-1
EndSplineSet
Ligature2: "halnHalantFormsinDevanagari2lookup0 subtable" uni0921 uni094D
EndChar

StartChar: uni0922
Encoding: 2338 2338 483
GlifName: uni0922
Width: 1024
VWidth: 0
GlyphClass: 2
Flags: W
AnchorPoint: "abvm_deva" 1274 1588 basechar 0
AnchorPoint: "blwm_deva" 487 -73 basechar 0
LayerCount: 2
Fore
SplineSet
564 1550 m 257,0,-1
 542 1488 l 257,1,-1
 1566 1488 l 257,2,-1
 1588 1550 l 257,3,-1
 564 1550 l 257,0,-1
1243 1528 m 257,4,-1
 1047 988 l 257,5,-1
 1129 988 l 257,6,-1
 1325 1528 l 257,7,-1
 1243 1528 l 257,4,-1
1141 1023 m 257,8,-1
 492 1023 l 257,9,-1
 470 962 l 257,10,-1
 1119 962 l 257,11,-1
 1141 1023 l 257,8,-1
471 1023 m 257,12,-1
 101 5 l 257,13,-1
 161 5 l 257,14,-1
 531 1023 l 257,15,-1
 471 1023 l 257,12,-1
121 60 m 257,16,-1
 99 0 l 257,17,-1
 812 0 l 257,18,-1
 834 60 l 257,19,-1
 121 60 l 257,16,-1
952 544 m 257,20,-1
 754 0 l 257,21,-1
 814 0 l 257,22,-1
 1012 544 l 257,23,-1
 952 544 l 257,20,-1
883 547 m 257,24,-1
 861 487 l 257,25,-1
 989 487 l 257,26,-1
 1011 547 l 257,27,-1
 883 547 l 257,24,-1
EndSplineSet
EndChar

StartChar: uni0922_uni0930_uni094D.vatu
Encoding: 65578 -1 484
GlifName: uni0922_uni0930_uni094D_.vatu
Width: 1024
VWidth: 0
GlyphClass: 2
Flags: W
LayerCount: 2
Fore
SplineSet
524 220 m 257,0,-1
 584 -119 l 257,1,-1
 652 -119 l 257,2,-1
 592 287 l 257,3,-1
 524 220 l 257,0,-1
592 287 m 257,4,-1
 189 -106 l 257,5,-1
 257 -106 l 257,6,-1
 601 228 l 257,7,-1
 592 287 l 257,4,-1
564 1550 m 257,8,-1
 542 1488 l 257,9,-1
 1566 1488 l 257,10,-1
 1588 1550 l 257,11,-1
 564 1550 l 257,8,-1
1243 1528 m 257,12,-1
 1047 988 l 257,13,-1
 1129 988 l 257,14,-1
 1325 1528 l 257,15,-1
 1243 1528 l 257,12,-1
1141 1023 m 257,16,-1
 492 1023 l 257,17,-1
 470 962 l 257,18,-1
 1119 962 l 257,19,-1
 1141 1023 l 257,16,-1
471 1023 m 257,20,-1
 210 305 l 257,21,-1
 270 305 l 257,22,-1
 531 1023 l 257,23,-1
 471 1023 l 257,20,-1
230 360 m 257,24,-1
 208 300 l 257,25,-1
 921 300 l 257,26,-1
 943 360 l 257,27,-1
 230 360 l 257,24,-1
1061 844 m 257,28,-1
 862 298 l 257,29,-1
 922 298 l 257,30,-1
 1121 844 l 257,31,-1
 1061 844 l 257,28,-1
992 847 m 257,32,-1
 970 787 l 257,33,-1
 1098 787 l 257,34,-1
 1120 847 l 257,35,-1
 992 847 l 257,32,-1
EndSplineSet
Ligature2: "rkrfRakarVariantsinDevanagari2lookup0 subtable" uni0922 uni094D uni0930
EndChar

StartChar: uni0922_uni094D.haln
Encoding: 65579 -1 485
GlifName: uni0922_uni094D_.haln
Width: 1024
VWidth: 0
GlyphClass: 3
Flags: W
LayerCount: 2
Fore
SplineSet
564 1550 m 257,0,-1
 542 1488 l 257,1,-1
 1566 1488 l 257,2,-1
 1588 1550 l 257,3,-1
 564 1550 l 257,0,-1
1243 1528 m 257,4,-1
 1047 988 l 257,5,-1
 1129 988 l 257,6,-1
 1325 1528 l 257,7,-1
 1243 1528 l 257,4,-1
1141 1023 m 257,8,-1
 492 1023 l 257,9,-1
 470 962 l 257,10,-1
 1119 962 l 257,11,-1
 1141 1023 l 257,8,-1
471 1023 m 257,12,-1
 101 5 l 257,13,-1
 161 5 l 257,14,-1
 531 1023 l 257,15,-1
 471 1023 l 257,12,-1
121 60 m 257,16,-1
 99 0 l 257,17,-1
 812 0 l 257,18,-1
 834 60 l 257,19,-1
 121 60 l 257,16,-1
952 544 m 257,20,-1
 754 0 l 257,21,-1
 814 0 l 257,22,-1
 1012 544 l 257,23,-1
 952 544 l 257,20,-1
883 547 m 257,24,-1
 861 487 l 257,25,-1
 989 487 l 257,26,-1
 1011 547 l 257,27,-1
 883 547 l 257,24,-1
617 -16 m 257,28,-1
 595 -77 l 257,29,-1
 939 -77 l 257,30,-1
 961 -16 l 257,31,-1
 617 -16 l 257,28,-1
912 -71 m 257,32,-1
 1096 -418 l 257,33,-1
 1145 -366 l 257,34,-1
 962 -15 l 257,35,-1
 912 -71 l 257,32,-1
EndSplineSet
Ligature2: "halnHalantFormsinDevanagari2lookup0 subtable" uni0922 uni094D
EndChar

StartChar: uni0923
Encoding: 2339 2339 486
GlifName: uni0923
Width: 1024
VWidth: 0
GlyphClass: 2
Flags: W
AnchorPoint: "abvm_deva" 1424 1588 basechar 0
AnchorPoint: "blwm_deva" 888 -35 basechar 0
LayerCount: 2
Fore
SplineSet
564 1550 m 257,0,-1
 542 1488 l 257,1,-1
 1569 1488 l 257,2,-1
 1591 1550 l 257,3,-1
 564 1550 l 257,0,-1
1416 1530 m 257,4,-1
 859 0 l 257,5,-1
 919 0 l 257,6,-1
 1476 1530 l 257,7,-1
 1416 1530 l 257,4,-1
669 1543 m 257,8,-1
 418 855 l 257,9,-1
 478 855 l 257,10,-1
 729 1543 l 257,11,-1
 669 1543 l 257,8,-1
1159 1528 m 257,12,-1
 910 844 l 257,13,-1
 970 844 l 257,14,-1
 1219 1528 l 257,15,-1
 1159 1528 l 257,12,-1
429 885 m 257,16,-1
 407 825 l 257,17,-1
 963 825 l 257,18,-1
 985 885 l 257,19,-1
 429 885 l 257,16,-1
EndSplineSet
EndChar

StartChar: uni0923_uni0930_uni094D.vatu
Encoding: 65580 -1 487
GlifName: uni0923_uni0930_uni094D_.vatu
Width: 1024
VWidth: 0
GlyphClass: 2
Flags: W
LayerCount: 2
Fore
SplineSet
277 0 m 257,0,-1
 397 0 l 257,1,-1
 952 215 l 257,2,-1
 978 285 l 257,3,-1
 277 0 l 257,0,-1
564 1550 m 257,4,-1
 542 1488 l 257,5,-1
 1569 1488 l 257,6,-1
 1591 1550 l 257,7,-1
 564 1550 l 257,4,-1
1416 1530 m 257,8,-1
 859 0 l 257,9,-1
 919 0 l 257,10,-1
 1476 1530 l 257,11,-1
 1416 1530 l 257,8,-1
669 1543 m 257,12,-1
 418 855 l 257,13,-1
 478 855 l 257,14,-1
 729 1543 l 257,15,-1
 669 1543 l 257,12,-1
1159 1528 m 257,16,-1
 910 844 l 257,17,-1
 970 844 l 257,18,-1
 1219 1528 l 257,19,-1
 1159 1528 l 257,16,-1
429 885 m 257,20,-1
 407 825 l 257,21,-1
 963 825 l 257,22,-1
 985 885 l 257,23,-1
 429 885 l 257,20,-1
EndSplineSet
Ligature2: "rkrfRakarVariantsinDevanagari2lookup0 subtable" uni0923 uni094D uni0930
EndChar

StartChar: uni0923_uni094D.half
Encoding: 65581 -1 488
GlifName: uni0923_uni094D_.half
Width: 1024
VWidth: 0
GlyphClass: 3
Flags: W
LayerCount: 2
Fore
SplineSet
564 1550 m 257,0,-1
 542 1488 l 257,1,-1
 1569 1488 l 257,2,-1
 1591 1550 l 257,3,-1
 564 1550 l 257,0,-1
869 1543 m 257,4,-1
 618 855 l 257,5,-1
 678 855 l 257,6,-1
 929 1543 l 257,7,-1
 869 1543 l 257,4,-1
1359 1528 m 257,8,-1
 1110 844 l 257,9,-1
 1170 844 l 257,10,-1
 1419 1528 l 257,11,-1
 1359 1528 l 257,8,-1
629 885 m 257,12,-1
 607 825 l 257,13,-1
 1163 825 l 257,14,-1
 1185 885 l 257,15,-1
 629 885 l 257,12,-1
EndSplineSet
Ligature2: "halfHalfFormsinDevanagari2lookup0 subtable" uni0923 uni094D
EndChar

StartChar: uni0923_uni094D.haln
Encoding: 65582 -1 489
GlifName: uni0923_uni094D_.haln
Width: 1024
VWidth: 0
GlyphClass: 3
Flags: W
AnchorPoint: "abvm_deva" 1454 1616 basechar 0
AnchorPoint: "blwm_deva" 701 -149 basechar 0
LayerCount: 2
Fore
SplineSet
564 1550 m 257,0,-1
 542 1488 l 257,1,-1
 1569 1488 l 257,2,-1
 1591 1550 l 257,3,-1
 564 1550 l 257,0,-1
1416 1530 m 257,4,-1
 859 0 l 257,5,-1
 919 0 l 257,6,-1
 1476 1530 l 257,7,-1
 1416 1530 l 257,4,-1
669 1543 m 257,8,-1
 418 855 l 257,9,-1
 478 855 l 257,10,-1
 729 1543 l 257,11,-1
 669 1543 l 257,8,-1
1159 1528 m 257,12,-1
 910 844 l 257,13,-1
 970 844 l 257,14,-1
 1219 1528 l 257,15,-1
 1159 1528 l 257,12,-1
429 885 m 257,16,-1
 407 825 l 257,17,-1
 963 825 l 257,18,-1
 985 885 l 257,19,-1
 429 885 l 257,16,-1
617 -16 m 257,20,-1
 595 -77 l 257,21,-1
 939 -77 l 257,22,-1
 961 -16 l 257,23,-1
 617 -16 l 257,20,-1
912 -71 m 257,24,-1
 1096 -418 l 257,25,-1
 1145 -366 l 257,26,-1
 962 -15 l 257,27,-1
 912 -71 l 257,24,-1
EndSplineSet
Ligature2: "halnHalantFormsinDevanagari2lookup0 subtable" uni0923 uni094D
EndChar

StartChar: uni0924
Encoding: 2340 2340 490
GlifName: uni0924
Width: 1024
VWidth: 0
GlyphClass: 2
Flags: W
VStem: 787 14
AnchorPoint: "abvm_deva" 1320 1582 basechar 0
AnchorPoint: "blwm_deva" 852 -77 basechar 0
LayerCount: 2
Fore
SplineSet
552 1553 m 257,0,-1
 532 1497 l 257,1,-1
 1582 1497 l 257,2,-1
 1602 1553 l 257,3,-1
 552 1553 l 257,0,-1
1345 1534 m 257,4,-1
 787 0 l 257,5,-1
 846 0 l 257,6,-1
 1404 1534 l 257,7,-1
 1345 1534 l 257,4,-1
1088 788 m 257,8,-1
 409 788 l 257,9,-1
 387 728 l 257,10,-1
 1066 728 l 257,11,-1
 1088 788 l 257,8,-1
401 766 m 257,12,-1
 131 26 l 257,13,-1
 191 26 l 257,14,-1
 461 766 l 257,15,-1
 401 766 l 257,12,-1
EndSplineSet
PickledDataWithLists: "(dp0
Vcom.fontlab.hintData
p1
(dp2
Vvhints
p3
(lp4
(dp5
Vposition
p6
I787
sVwidth
p7
I14
sass."
EndChar

StartChar: uni0924_uni0930_uni094D.vatu
Encoding: 65583 -1 491
GlifName: uni0924_uni0930_uni094D_.vatu
Width: 1024
VWidth: 0
GlyphClass: 3
Flags: W
AnchorPoint: "abvm_deva" 756 1658 basechar 0
AnchorPoint: "blwm_deva" 701 -149 basechar 0
LayerCount: 2
Fore
SplineSet
251 117 m 257,0,-1
 371 117 l 257,1,-1
 967 446 l 257,2,-1
 993 516 l 257,3,-1
 251 117 l 257,0,-1
552 1553 m 257,4,-1
 532 1497 l 257,5,-1
 1582 1497 l 257,6,-1
 1602 1553 l 257,7,-1
 552 1553 l 257,4,-1
1345 1534 m 257,8,-1
 787 0 l 257,9,-1
 846 0 l 257,10,-1
 1404 1534 l 257,11,-1
 1345 1534 l 257,8,-1
1013 583 m 257,12,-1
 409 788 l 257,13,-1
 387 728 l 257,14,-1
 991 523 l 257,15,-1
 1013 583 l 257,12,-1
EndSplineSet
Ligature2: "rkrfRakarVariantsinDevanagari2lookup0 subtable" uni0924 uni094D uni0930
EndChar

StartChar: uni0924_uni094D.half
Encoding: 65584 -1 492
GlifName: uni0924_uni094D_.half
Width: 1024
VWidth: 0
GlyphClass: 3
Flags: W
LayerCount: 2
Fore
SplineSet
552 1553 m 257,0,-1
 532 1497 l 257,1,-1
 1582 1497 l 257,2,-1
 1602 1553 l 257,3,-1
 552 1553 l 257,0,-1
1388 788 m 257,4,-1
 709 788 l 257,5,-1
 687 728 l 257,6,-1
 1366 728 l 257,7,-1
 1388 788 l 257,4,-1
701 766 m 257,8,-1
 431 26 l 257,9,-1
 491 26 l 257,10,-1
 761 766 l 257,11,-1
 701 766 l 257,8,-1
EndSplineSet
Ligature2: "halfHalfFormsinDevanagari2lookup0 subtable" uni0924 uni094D
EndChar

StartChar: uni0924_uni094D.haln
Encoding: 65585 -1 493
GlifName: uni0924_uni094D_.haln
Width: 1024
VWidth: 0
GlyphClass: 3
Flags: W
LayerCount: 2
Fore
SplineSet
552 1553 m 257,0,-1
 532 1497 l 257,1,-1
 1582 1497 l 257,2,-1
 1602 1553 l 257,3,-1
 552 1553 l 257,0,-1
1345 1534 m 257,4,-1
 787 0 l 257,5,-1
 846 0 l 257,6,-1
 1404 1534 l 257,7,-1
 1345 1534 l 257,4,-1
1088 788 m 257,8,-1
 409 788 l 257,9,-1
 387 728 l 257,10,-1
 1066 728 l 257,11,-1
 1088 788 l 257,8,-1
401 766 m 257,12,-1
 131 26 l 257,13,-1
 191 26 l 257,14,-1
 461 766 l 257,15,-1
 401 766 l 257,12,-1
617 -16 m 257,16,-1
 595 -77 l 257,17,-1
 939 -77 l 257,18,-1
 961 -16 l 257,19,-1
 617 -16 l 257,16,-1
912 -71 m 257,20,-1
 1096 -418 l 257,21,-1
 1145 -366 l 257,22,-1
 962 -15 l 257,23,-1
 912 -71 l 257,20,-1
EndSplineSet
Ligature2: "halnHalantFormsinDevanagari2lookup0 subtable" uni0924 uni094D
EndChar

StartChar: uni0924_uni094D_uni0924.pres
Encoding: 65586 -1 494
GlifName: uni0924_uni094D__uni0924.pres
Width: 1024
VWidth: 0
GlyphClass: 3
Flags: W
VStem: 250 61
LayerCount: 2
Fore
SplineSet
535 1553 m 257,0,-1
 513 1493 l 257,1,-1
 1563 1493 l 257,2,-1
 1585 1553 l 257,3,-1
 535 1553 l 257,0,-1
1319 1511 m 257,4,-1
 769 0 l 257,5,-1
 829 0 l 257,6,-1
 1379 1511 l 257,7,-1
 1319 1511 l 257,4,-1
1071 788 m 257,8,-1
 392 788 l 257,9,-1
 370 728 l 257,10,-1
 1049 728 l 257,11,-1
 1071 788 l 257,8,-1
370 728 m 257,12,-1
 244 -16 l 257,13,-1
 319 22 l 257,14,-1
 444 766 l 257,15,-1
 370 728 l 257,12,-1
1176 1038 m 257,16,-1
 454 1038 l 257,17,-1
 432 978 l 257,18,-1
 1154 978 l 257,19,-1
 1176 1038 l 257,16,-1
EndSplineSet
PickledDataWithLists: "(dp0
Vcom.fontlab.hintData
p1
(dp2
Vvhints
p3
(lp4
(dp5
Vposition
p6
I250
sVwidth
p7
I61
sass."
Ligature2: "presPreBaseSubstitutionsinDevanagari2lookup0 subtable" uni0924_uni094D.half uni0924
EndChar

StartChar: uni0925
Encoding: 2341 2341 495
GlifName: uni0925
Width: 1024
VWidth: 0
GlyphClass: 2
Flags: W
AnchorPoint: "abvm_deva" 1350 1600 basechar 0
AnchorPoint: "blwm_deva" 852 -77 basechar 0
LayerCount: 2
Fore
SplineSet
1190 1550 m 257,0,-1
 1169 1492 l 257,1,-1
 1553 1492 l 257,2,-1
 1574 1550 l 257,3,-1
 1190 1550 l 257,0,-1
1463 1541 m 257,4,-1
 895 -18 l 257,5,-1
 954 -18 l 257,6,-1
 1522 1541 l 257,7,-1
 1463 1541 l 257,4,-1
578 1550 m 257,8,-1
 556 1490 l 257,9,-1
 1001 1490 l 257,10,-1
 1023 1550 l 257,11,-1
 578 1550 l 257,8,-1
945 1503 m 257,12,-1
 757 986 l 257,13,-1
 817 986 l 257,14,-1
 1005 1503 l 257,15,-1
 945 1503 l 257,12,-1
830 1018 m 257,16,-1
 389 1018 l 257,17,-1
 366 957 l 257,18,-1
 807 957 l 257,19,-1
 830 1018 l 257,16,-1
376 983 m 257,20,-1
 66 132 l 257,21,-1
 125 132 l 257,22,-1
 435 983 l 257,23,-1
 376 983 l 257,20,-1
88 191 m 257,24,-1
 66 132 l 257,25,-1
 1009 132 l 257,26,-1
 1031 191 l 257,27,-1
 88 191 l 257,24,-1
EndSplineSet
EndChar

StartChar: uni0925_uni0930_uni094D.vatu
Encoding: 65587 -1 496
GlifName: uni0925_uni0930_uni094D_.vatu
Width: 1024
VWidth: 0
GlyphClass: 3
Flags: W
LayerCount: 2
Fore
SplineSet
317 0 m 257,0,-1
 437 0 l 257,1,-1
 991 211 l 257,2,-1
 1016 281 l 257,3,-1
 317 0 l 257,0,-1
1190 1550 m 257,4,-1
 1169 1492 l 257,5,-1
 1553 1492 l 257,6,-1
 1574 1550 l 257,7,-1
 1190 1550 l 257,4,-1
1463 1541 m 257,8,-1
 895 -18 l 257,9,-1
 954 -18 l 257,10,-1
 1522 1541 l 257,11,-1
 1463 1541 l 257,8,-1
578 1550 m 257,12,-1
 556 1490 l 257,13,-1
 1001 1490 l 257,14,-1
 1023 1550 l 257,15,-1
 578 1550 l 257,12,-1
945 1503 m 257,16,-1
 757 986 l 257,17,-1
 817 986 l 257,18,-1
 1005 1503 l 257,19,-1
 945 1503 l 257,16,-1
830 1018 m 257,20,-1
 389 1018 l 257,21,-1
 366 957 l 257,22,-1
 807 957 l 257,23,-1
 830 1018 l 257,20,-1
376 983 m 257,24,-1
 175 432 l 257,25,-1
 234 432 l 257,26,-1
 435 983 l 257,27,-1
 376 983 l 257,24,-1
197 491 m 257,28,-1
 175 432 l 257,29,-1
 1118 432 l 257,30,-1
 1140 491 l 257,31,-1
 197 491 l 257,28,-1
EndSplineSet
Ligature2: "rkrfRakarVariantsinDevanagari2lookup0 subtable" uni0925 uni094D uni0930
EndChar

StartChar: uni0925_uni094D.half
Encoding: 65588 -1 497
GlifName: uni0925_uni094D_.half
Width: 1024
VWidth: 0
GlyphClass: 3
Flags: W
LayerCount: 2
Fore
SplineSet
1254 1545 m 257,0,-1
 1235 1493 l 257,1,-1
 1567 1493 l 257,2,-1
 1586 1545 l 257,3,-1
 1254 1545 l 257,0,-1
678 1550 m 257,4,-1
 656 1490 l 257,5,-1
 1101 1490 l 257,6,-1
 1123 1550 l 257,7,-1
 678 1550 l 257,4,-1
1045 1503 m 257,8,-1
 857 986 l 257,9,-1
 917 986 l 257,10,-1
 1105 1503 l 257,11,-1
 1045 1503 l 257,8,-1
930 1018 m 257,12,-1
 489 1018 l 257,13,-1
 466 957 l 257,14,-1
 907 957 l 257,15,-1
 930 1018 l 257,12,-1
476 983 m 257,16,-1
 166 132 l 257,17,-1
 225 132 l 257,18,-1
 535 983 l 257,19,-1
 476 983 l 257,16,-1
188 191 m 257,20,-1
 166 132 l 257,21,-1
 1109 132 l 257,22,-1
 1131 191 l 257,23,-1
 188 191 l 257,20,-1
EndSplineSet
Ligature2: "halfHalfFormsinDevanagari2lookup0 subtable" uni0925 uni094D
EndChar

